<svg width="790" height="553" viewBox="0 0 790 553" fill="none" xmlns="http://www.w3.org/2000/svg">
<rect width="790" height="553" fill="white"/>
<path d="M434.5 483.875H493.75" stroke="black" stroke-width="3.88" stroke-linecap="square"/>
<path d="M474 444.375V483.875" stroke="black" stroke-width="3.88" stroke-linecap="square"/>
<path d="M296.25 444.375H474" stroke="black" stroke-width="3.88" stroke-linecap="square"/>
<path d="M711 385.125V483.875" stroke="black" stroke-width="3.88" stroke-linecap="square"/>
<path d="M651.75 483.875H711" stroke="black" stroke-width="3.88" stroke-linecap="square"/>
<path d="M493.75 483.875H553" stroke="black" stroke-width="3.88" stroke-linecap="square"/>
<path d="M553 483.875H562.875" stroke="black" stroke-width="3.88" stroke-linecap="square"/>
<path d="M641.875 483.875H651.75" stroke="black" stroke-width="3.88" stroke-linecap="square"/>
<path d="M562.875 483.875H566.825L572.75 470.05L584.6 497.7L596.45 470.05L608.3 497.7L620.15 470.05L632 497.7L637.925 483.875H641.875" stroke="black" stroke-width="3.88" stroke-linecap="square"/>
<path d="M581.942 454.5H580.066V442.548C579.614 442.979 579.02 443.41 578.284 443.84C577.555 444.271 576.898 444.594 576.315 444.809V442.996C577.364 442.503 578.281 441.906 579.066 441.204C579.851 440.503 580.406 439.822 580.733 439.162H581.942V454.5ZM586.756 446.966C586.756 445.16 586.94 443.708 587.308 442.611C587.683 441.506 588.235 440.655 588.965 440.058C589.701 439.461 590.625 439.162 591.736 439.162C592.556 439.162 593.275 439.329 593.893 439.662C594.511 439.989 595.022 440.464 595.425 441.09C595.828 441.708 596.144 442.465 596.373 443.361C596.602 444.25 596.717 445.452 596.717 446.966C596.717 448.759 596.533 450.207 596.165 451.312C595.797 452.409 595.244 453.26 594.508 453.864C593.779 454.462 592.855 454.76 591.736 454.76C590.264 454.76 589.107 454.233 588.266 453.177C587.259 451.905 586.756 449.835 586.756 446.966ZM588.683 446.966C588.683 449.474 588.975 451.145 589.558 451.978C590.149 452.805 590.875 453.218 591.736 453.218C592.598 453.218 593.32 452.802 593.904 451.968C594.494 451.134 594.789 449.467 594.789 446.966C594.789 444.452 594.494 442.781 593.904 441.954C593.32 441.128 592.591 440.714 591.715 440.714C590.854 440.714 590.166 441.079 589.652 441.809C589.006 442.739 588.683 444.459 588.683 446.966ZM605.105 454.5V439.224H606.981V447.935L611.419 443.434H613.847L609.617 447.539L614.275 454.5H611.961L608.304 448.842L606.981 450.113V454.5H605.105ZM619.526 452.833C618.776 452.367 618.203 451.916 617.807 451.478C617.203 450.811 616.737 450.03 616.411 449.134C616.084 448.231 615.921 447.234 615.921 446.143C615.921 444.782 616.195 443.531 616.744 442.392C617.3 441.246 618.102 440.367 619.151 439.756C620.207 439.145 621.416 438.839 622.777 438.839C625.111 438.839 626.903 439.721 628.154 441.486C629.064 442.778 629.519 444.334 629.519 446.154C629.519 447.321 629.331 448.356 628.956 449.259C628.581 450.155 628.091 450.926 627.487 451.572C627.119 451.975 626.601 452.395 625.934 452.833L629.727 452.77V454.5H623.736V452.656C624.292 452.378 624.722 452.107 625.028 451.843C625.528 451.419 625.952 450.916 626.299 450.332C626.646 449.749 626.907 449.127 627.081 448.467C627.261 447.807 627.352 447.119 627.352 446.404C627.352 445.445 627.178 444.483 626.831 443.517C626.49 442.545 625.969 441.805 625.268 441.298C624.573 440.791 623.729 440.537 622.735 440.537C621.409 440.537 620.381 440.954 619.651 441.788C618.637 442.962 618.13 444.49 618.13 446.372C618.13 447.88 618.446 449.175 619.078 450.259C619.71 451.336 620.582 452.124 621.694 452.624V454.5H615.681V452.749L619.526 452.833Z" fill="black"/>
<path d="M296.25 483.875H375.25" stroke="black" stroke-width="3.88" stroke-linecap="square"/>
<path d="M375.25 483.875H377.225" stroke="black" stroke-width="3.88" stroke-linecap="square"/>
<path d="M432.525 483.875H434.5" stroke="black" stroke-width="3.88" stroke-linecap="square"/>
<path d="M383.15 489.8C386.422 489.8 389.075 487.147 389.075 483.875C389.075 480.603 386.422 477.95 383.15 477.95C379.878 477.95 377.225 480.603 377.225 483.875C377.225 487.147 379.878 489.8 383.15 489.8Z" stroke="black" stroke-width="3.88"/>
<path d="M426.6 489.8C429.872 489.8 432.525 487.147 432.525 483.875C432.525 480.603 429.872 477.95 426.6 477.95C423.328 477.95 420.675 480.603 420.675 483.875C420.675 487.147 423.328 489.8 426.6 489.8Z" stroke="black" stroke-width="3.88"/>
<path d="M389.075 479.925L422.65 468.075" stroke="black" stroke-width="3.88" stroke-linecap="square"/>
<path d="M711 49.375V148.125" stroke="black" stroke-width="3.88" stroke-linecap="square"/>
<path d="M316 49.375H711" stroke="black" stroke-width="3.88" stroke-linecap="square"/>
<path d="M316 49.375V187.625" stroke="black" stroke-width="3.88" stroke-linecap="square"/>
<path d="M296.25 187.625H316" stroke="black" stroke-width="3.88" stroke-linecap="square"/>
<path d="M651.75 148.125H711" stroke="black" stroke-width="3.88" stroke-linecap="square"/>
<path d="M651.75 266.625H711" stroke="black" stroke-width="3.88" stroke-linecap="square"/>
<path d="M651.75 385.125H711" stroke="black" stroke-width="3.88" stroke-linecap="square"/>
<path d="M711 148.125V385.125" stroke="black" stroke-width="3.88" stroke-linecap="square"/>
<path d="M493.75 266.625H553" stroke="black" stroke-width="3.88" stroke-linecap="square"/>
<path d="M493.75 385.125H553" stroke="black" stroke-width="3.88" stroke-linecap="square"/>
<path d="M493.75 148.125H553" stroke="black" stroke-width="3.88" stroke-linecap="square"/>
<path d="M553 385.125H562.875" stroke="black" stroke-width="3.88" stroke-linecap="square"/>
<path d="M641.875 385.125H651.75" stroke="black" stroke-width="3.88" stroke-linecap="square"/>
<path d="M562.875 385.125H566.825L572.75 371.3L584.6 398.95L596.45 371.3L608.3 398.95L620.15 371.3L632 398.95L637.925 385.125H641.875" stroke="black" stroke-width="3.88" stroke-linecap="square"/>
<path d="M574.283 351.717L576.159 351.467C576.374 352.53 576.739 353.298 577.253 353.77C577.774 354.236 578.406 354.468 579.149 354.468C580.031 354.468 580.775 354.163 581.379 353.551C581.99 352.94 582.296 352.183 582.296 351.28C582.296 350.418 582.015 349.71 581.452 349.154C580.889 348.591 580.174 348.31 579.305 348.31C578.951 348.31 578.51 348.38 577.982 348.519L578.19 346.872C578.315 346.886 578.416 346.893 578.493 346.893C579.291 346.893 580.01 346.685 580.65 346.268C581.289 345.851 581.608 345.208 581.608 344.34C581.608 343.652 581.375 343.083 580.91 342.631C580.445 342.18 579.844 341.954 579.107 341.954C578.378 341.954 577.77 342.183 577.284 342.642C576.798 343.1 576.485 343.788 576.346 344.705L574.471 344.371C574.7 343.114 575.221 342.142 576.034 341.454C576.846 340.759 577.857 340.412 579.066 340.412C579.899 340.412 580.667 340.592 581.369 340.954C582.07 341.308 582.605 341.794 582.973 342.412C583.348 343.031 583.536 343.687 583.536 344.382C583.536 345.042 583.359 345.643 583.004 346.184C582.65 346.726 582.126 347.157 581.431 347.477C582.334 347.685 583.036 348.119 583.536 348.779C584.036 349.432 584.286 350.252 584.286 351.238C584.286 352.572 583.8 353.704 582.827 354.635C581.855 355.559 580.625 356.021 579.139 356.021C577.798 356.021 576.683 355.621 575.794 354.823C574.912 354.024 574.408 352.989 574.283 351.717ZM586.162 351.717L588.037 351.467C588.253 352.53 588.617 353.298 589.131 353.77C589.652 354.236 590.285 354.468 591.028 354.468C591.91 354.468 592.653 354.163 593.258 353.551C593.869 352.94 594.175 352.183 594.175 351.28C594.175 350.418 593.893 349.71 593.331 349.154C592.768 348.591 592.052 348.31 591.184 348.31C590.83 348.31 590.389 348.38 589.861 348.519L590.069 346.872C590.194 346.886 590.295 346.893 590.371 346.893C591.17 346.893 591.889 346.685 592.528 346.268C593.167 345.851 593.487 345.208 593.487 344.34C593.487 343.652 593.254 343.083 592.789 342.631C592.323 342.18 591.722 341.954 590.986 341.954C590.257 341.954 589.649 342.183 589.163 342.642C588.676 343.1 588.364 343.788 588.225 344.705L586.349 344.371C586.578 343.114 587.099 342.142 587.912 341.454C588.725 340.759 589.736 340.412 590.944 340.412C591.778 340.412 592.546 340.592 593.247 340.954C593.949 341.308 594.484 341.794 594.852 342.412C595.227 343.031 595.415 343.687 595.415 344.382C595.415 345.042 595.237 345.643 594.883 346.184C594.529 346.726 594.004 347.157 593.31 347.477C594.213 347.685 594.914 348.119 595.415 348.779C595.915 349.432 596.165 350.252 596.165 351.238C596.165 352.572 595.679 353.704 594.706 354.635C593.734 355.559 592.504 356.021 591.017 356.021C589.677 356.021 588.562 355.621 587.673 354.823C586.79 354.024 586.287 352.989 586.162 351.717ZM598.03 348.216C598.03 346.41 598.214 344.958 598.582 343.861C598.957 342.756 599.51 341.905 600.239 341.308C600.975 340.711 601.899 340.412 603.011 340.412C603.83 340.412 604.549 340.579 605.168 340.912C605.786 341.238 606.296 341.714 606.699 342.34C607.102 342.958 607.418 343.715 607.648 344.611C607.877 345.5 607.991 346.702 607.991 348.216C607.991 350.009 607.807 351.457 607.439 352.561C607.071 353.659 606.519 354.51 605.782 355.114C605.053 355.712 604.129 356.01 603.011 356.01C601.538 356.01 600.381 355.483 599.541 354.427C598.534 353.155 598.03 351.085 598.03 348.216ZM599.958 348.216C599.958 350.724 600.249 352.395 600.833 353.228C601.423 354.055 602.149 354.468 603.011 354.468C603.872 354.468 604.595 354.052 605.178 353.218C605.769 352.384 606.064 350.717 606.064 348.216C606.064 345.702 605.769 344.031 605.178 343.204C604.595 342.378 603.865 341.964 602.99 341.964C602.128 341.964 601.441 342.329 600.927 343.059C600.281 343.989 599.958 345.709 599.958 348.216ZM620.131 354.083C619.38 353.617 618.807 353.166 618.411 352.728C617.807 352.061 617.342 351.28 617.015 350.384C616.689 349.481 616.525 348.484 616.525 347.393C616.525 346.032 616.8 344.781 617.349 343.642C617.904 342.496 618.707 341.617 619.756 341.006C620.811 340.394 622.02 340.089 623.382 340.089C625.716 340.089 627.508 340.971 628.758 342.735C629.668 344.028 630.123 345.584 630.123 347.404C630.123 348.571 629.936 349.606 629.561 350.509C629.186 351.405 628.696 352.176 628.091 352.822C627.723 353.225 627.206 353.645 626.539 354.083L630.332 354.02V355.75H624.34V353.906C624.896 353.628 625.327 353.357 625.632 353.093C626.133 352.669 626.556 352.166 626.904 351.582C627.251 350.998 627.511 350.377 627.685 349.717C627.866 349.057 627.956 348.369 627.956 347.654C627.956 346.695 627.782 345.733 627.435 344.767C627.095 343.795 626.574 343.055 625.872 342.548C625.177 342.041 624.333 341.787 623.34 341.787C622.013 341.787 620.985 342.204 620.256 343.038C619.241 344.212 618.734 345.74 618.734 347.622C618.734 349.13 619.05 350.425 619.683 351.509C620.315 352.586 621.187 353.374 622.298 353.874V355.75H616.286V353.999L620.131 354.083Z" fill="black"/>
<path d="M553 266.625H562.875" stroke="black" stroke-width="3.88" stroke-linecap="square"/>
<path d="M641.875 266.625H651.75" stroke="black" stroke-width="3.88" stroke-linecap="square"/>
<path d="M562.875 266.625H566.825L572.75 252.8L584.6 280.45L596.45 252.8L608.3 280.45L620.15 252.8L632 280.45L637.925 266.625H641.875" stroke="black" stroke-width="3.88" stroke-linecap="square"/>
<path d="M574.283 233.217L576.159 232.967C576.374 234.03 576.739 234.798 577.253 235.27C577.774 235.736 578.406 235.968 579.149 235.968C580.031 235.968 580.775 235.663 581.379 235.051C581.99 234.44 582.296 233.683 582.296 232.78C582.296 231.918 582.015 231.21 581.452 230.654C580.889 230.092 580.174 229.81 579.305 229.81C578.951 229.81 578.51 229.88 577.982 230.019L578.19 228.372C578.315 228.386 578.416 228.393 578.493 228.393C579.291 228.393 580.01 228.185 580.65 227.768C581.289 227.351 581.608 226.709 581.608 225.84C581.608 225.152 581.375 224.583 580.91 224.131C580.445 223.68 579.844 223.454 579.107 223.454C578.378 223.454 577.77 223.683 577.284 224.142C576.798 224.6 576.485 225.288 576.346 226.205L574.471 225.871C574.7 224.614 575.221 223.642 576.034 222.954C576.846 222.259 577.857 221.912 579.066 221.912C579.899 221.912 580.667 222.092 581.369 222.454C582.07 222.808 582.605 223.294 582.973 223.912C583.348 224.531 583.536 225.187 583.536 225.882C583.536 226.542 583.359 227.143 583.004 227.685C582.65 228.226 582.126 228.657 581.431 228.977C582.334 229.185 583.036 229.619 583.536 230.279C584.036 230.932 584.286 231.752 584.286 232.738C584.286 234.072 583.8 235.204 582.827 236.135C581.855 237.059 580.625 237.521 579.139 237.521C577.798 237.521 576.683 237.121 575.794 236.323C574.912 235.524 574.408 234.489 574.283 233.217ZM586.162 233.217L588.037 232.967C588.253 234.03 588.617 234.798 589.131 235.27C589.652 235.736 590.285 235.968 591.028 235.968C591.91 235.968 592.653 235.663 593.258 235.051C593.869 234.44 594.175 233.683 594.175 232.78C594.175 231.918 593.893 231.21 593.331 230.654C592.768 230.092 592.052 229.81 591.184 229.81C590.83 229.81 590.389 229.88 589.861 230.019L590.069 228.372C590.194 228.386 590.295 228.393 590.371 228.393C591.17 228.393 591.889 228.185 592.528 227.768C593.167 227.351 593.487 226.709 593.487 225.84C593.487 225.152 593.254 224.583 592.789 224.131C592.323 223.68 591.722 223.454 590.986 223.454C590.257 223.454 589.649 223.683 589.163 224.142C588.676 224.6 588.364 225.288 588.225 226.205L586.349 225.871C586.578 224.614 587.099 223.642 587.912 222.954C588.725 222.259 589.736 221.912 590.944 221.912C591.778 221.912 592.546 222.092 593.247 222.454C593.949 222.808 594.484 223.294 594.852 223.912C595.227 224.531 595.415 225.187 595.415 225.882C595.415 226.542 595.237 227.143 594.883 227.685C594.529 228.226 594.004 228.657 593.31 228.977C594.213 229.185 594.914 229.619 595.415 230.279C595.915 230.932 596.165 231.752 596.165 232.738C596.165 234.072 595.679 235.204 594.706 236.135C593.734 237.059 592.504 237.521 591.017 237.521C589.677 237.521 588.562 237.121 587.673 236.323C586.79 235.524 586.287 234.489 586.162 233.217ZM598.03 229.716C598.03 227.91 598.214 226.458 598.582 225.361C598.957 224.256 599.51 223.405 600.239 222.808C600.975 222.211 601.899 221.912 603.011 221.912C603.83 221.912 604.549 222.079 605.168 222.412C605.786 222.739 606.296 223.214 606.699 223.84C607.102 224.458 607.418 225.215 607.648 226.111C607.877 227 607.991 228.202 607.991 229.716C607.991 231.509 607.807 232.957 607.439 234.062C607.071 235.159 606.519 236.01 605.782 236.614C605.053 237.212 604.129 237.51 603.011 237.51C601.538 237.51 600.381 236.983 599.541 235.927C598.534 234.655 598.03 232.585 598.03 229.716ZM599.958 229.716C599.958 232.224 600.249 233.895 600.833 234.728C601.423 235.555 602.149 235.968 603.011 235.968C603.872 235.968 604.595 235.552 605.178 234.718C605.769 233.884 606.064 232.217 606.064 229.716C606.064 227.202 605.769 225.531 605.178 224.704C604.595 223.878 603.865 223.464 602.99 223.464C602.128 223.464 601.441 223.829 600.927 224.559C600.281 225.489 599.958 227.209 599.958 229.716ZM620.131 235.583C619.38 235.117 618.807 234.666 618.411 234.228C617.807 233.561 617.342 232.78 617.015 231.884C616.689 230.981 616.525 229.984 616.525 228.893C616.525 227.532 616.8 226.281 617.349 225.142C617.904 223.996 618.707 223.117 619.756 222.506C620.811 221.895 622.02 221.589 623.382 221.589C625.716 221.589 627.508 222.471 628.758 224.236C629.668 225.528 630.123 227.084 630.123 228.904C630.123 230.071 629.936 231.106 629.561 232.009C629.186 232.905 628.696 233.676 628.091 234.322C627.723 234.725 627.206 235.145 626.539 235.583L630.332 235.52V237.25H624.34V235.406C624.896 235.128 625.327 234.857 625.632 234.593C626.133 234.169 626.556 233.666 626.904 233.082C627.251 232.499 627.511 231.877 627.685 231.217C627.866 230.557 627.956 229.869 627.956 229.154C627.956 228.195 627.782 227.233 627.435 226.267C627.095 225.295 626.574 224.555 625.872 224.048C625.177 223.541 624.333 223.287 623.34 223.287C622.013 223.287 620.985 223.704 620.256 224.538C619.241 225.712 618.734 227.24 618.734 229.122C618.734 230.63 619.05 231.925 619.683 233.009C620.315 234.086 621.187 234.874 622.298 235.374V237.25H616.286V235.499L620.131 235.583Z" fill="black"/>
<path d="M553 148.125H562.875" stroke="black" stroke-width="3.88" stroke-linecap="square"/>
<path d="M641.875 148.125H651.75" stroke="black" stroke-width="3.88" stroke-linecap="square"/>
<path d="M562.875 148.125H566.825L572.75 134.3L584.6 161.95L596.45 134.3L608.3 161.95L620.15 134.3L632 161.95L637.925 148.125H641.875" stroke="black" stroke-width="3.88" stroke-linecap="square"/>
<path d="M574.283 114.717L576.159 114.467C576.374 115.53 576.739 116.298 577.253 116.77C577.774 117.236 578.406 117.468 579.149 117.468C580.031 117.468 580.775 117.163 581.379 116.551C581.99 115.94 582.296 115.183 582.296 114.28C582.296 113.418 582.015 112.71 581.452 112.154C580.889 111.592 580.174 111.31 579.305 111.31C578.951 111.31 578.51 111.38 577.982 111.519L578.19 109.872C578.315 109.886 578.416 109.893 578.493 109.893C579.291 109.893 580.01 109.685 580.65 109.268C581.289 108.851 581.608 108.209 581.608 107.34C581.608 106.652 581.375 106.083 580.91 105.631C580.445 105.18 579.844 104.954 579.107 104.954C578.378 104.954 577.77 105.183 577.284 105.642C576.798 106.1 576.485 106.788 576.346 107.705L574.471 107.371C574.7 106.114 575.221 105.142 576.034 104.454C576.846 103.759 577.857 103.412 579.066 103.412C579.899 103.412 580.667 103.592 581.369 103.954C582.07 104.308 582.605 104.794 582.973 105.412C583.348 106.031 583.536 106.687 583.536 107.382C583.536 108.042 583.359 108.643 583.004 109.185C582.65 109.726 582.126 110.157 581.431 110.477C582.334 110.685 583.036 111.119 583.536 111.779C584.036 112.432 584.286 113.252 584.286 114.238C584.286 115.572 583.8 116.704 582.827 117.635C581.855 118.559 580.625 119.021 579.139 119.021C577.798 119.021 576.683 118.621 575.794 117.823C574.912 117.024 574.408 115.989 574.283 114.717ZM586.162 114.717L588.037 114.467C588.253 115.53 588.617 116.298 589.131 116.77C589.652 117.236 590.285 117.468 591.028 117.468C591.91 117.468 592.653 117.163 593.258 116.551C593.869 115.94 594.175 115.183 594.175 114.28C594.175 113.418 593.893 112.71 593.331 112.154C592.768 111.592 592.052 111.31 591.184 111.31C590.83 111.31 590.389 111.38 589.861 111.519L590.069 109.872C590.194 109.886 590.295 109.893 590.371 109.893C591.17 109.893 591.889 109.685 592.528 109.268C593.167 108.851 593.487 108.209 593.487 107.34C593.487 106.652 593.254 106.083 592.789 105.631C592.323 105.18 591.722 104.954 590.986 104.954C590.257 104.954 589.649 105.183 589.163 105.642C588.676 106.1 588.364 106.788 588.225 107.705L586.349 107.371C586.578 106.114 587.099 105.142 587.912 104.454C588.725 103.759 589.736 103.412 590.944 103.412C591.778 103.412 592.546 103.592 593.247 103.954C593.949 104.308 594.484 104.794 594.852 105.412C595.227 106.031 595.415 106.687 595.415 107.382C595.415 108.042 595.237 108.643 594.883 109.185C594.529 109.726 594.004 110.157 593.31 110.477C594.213 110.685 594.914 111.119 595.415 111.779C595.915 112.432 596.165 113.252 596.165 114.238C596.165 115.572 595.679 116.704 594.706 117.635C593.734 118.559 592.504 119.021 591.017 119.021C589.677 119.021 588.562 118.621 587.673 117.823C586.79 117.024 586.287 115.989 586.162 114.717ZM598.03 111.216C598.03 109.41 598.214 107.958 598.582 106.861C598.957 105.756 599.51 104.905 600.239 104.308C600.975 103.711 601.899 103.412 603.011 103.412C603.83 103.412 604.549 103.579 605.168 103.912C605.786 104.239 606.296 104.714 606.699 105.34C607.102 105.958 607.418 106.715 607.648 107.611C607.877 108.5 607.991 109.702 607.991 111.216C607.991 113.009 607.807 114.457 607.439 115.561C607.071 116.659 606.519 117.51 605.782 118.114C605.053 118.712 604.129 119.01 603.011 119.01C601.538 119.01 600.381 118.483 599.541 117.427C598.534 116.155 598.03 114.085 598.03 111.216ZM599.958 111.216C599.958 113.724 600.249 115.395 600.833 116.228C601.423 117.055 602.149 117.468 603.011 117.468C603.872 117.468 604.595 117.052 605.178 116.218C605.769 115.384 606.064 113.717 606.064 111.216C606.064 108.702 605.769 107.031 605.178 106.204C604.595 105.378 603.865 104.964 602.99 104.964C602.128 104.964 601.441 105.329 600.927 106.059C600.281 106.989 599.958 108.709 599.958 111.216ZM620.131 117.083C619.38 116.617 618.807 116.166 618.411 115.728C617.807 115.061 617.342 114.28 617.015 113.384C616.689 112.481 616.525 111.484 616.525 110.393C616.525 109.032 616.8 107.781 617.349 106.642C617.904 105.496 618.707 104.617 619.756 104.006C620.811 103.395 622.02 103.089 623.382 103.089C625.716 103.089 627.508 103.971 628.758 105.736C629.668 107.028 630.123 108.584 630.123 110.404C630.123 111.571 629.936 112.606 629.561 113.509C629.186 114.405 628.696 115.176 628.091 115.822C627.723 116.225 627.206 116.645 626.539 117.083L630.332 117.02V118.75H624.34V116.906C624.896 116.628 625.327 116.357 625.632 116.093C626.133 115.669 626.556 115.166 626.904 114.582C627.251 113.999 627.511 113.377 627.685 112.717C627.866 112.057 627.956 111.369 627.956 110.654C627.956 109.695 627.782 108.733 627.435 107.767C627.095 106.795 626.574 106.055 625.872 105.548C625.177 105.041 624.333 104.787 623.34 104.787C622.013 104.787 620.985 105.204 620.256 106.038C619.241 107.212 618.734 108.74 618.734 110.622C618.734 112.13 619.05 113.425 619.683 114.509C620.315 115.586 621.187 116.374 622.298 116.874V118.75H616.286V116.999L620.131 117.083Z" fill="black"/>
<path d="M355.5 148.125H434.5" stroke="black" stroke-width="3.88" stroke-linecap="square"/>
<path d="M355.5 148.125V227.125" stroke="black" stroke-width="3.88" stroke-linecap="square"/>
<path d="M296.25 227.125H355.5" stroke="black" stroke-width="3.88" stroke-linecap="square"/>
<path d="M296.25 266.625H434.5" stroke="black" stroke-width="3.88" stroke-linecap="square"/>
<path d="M355.5 385.125H434.5" stroke="black" stroke-width="3.88" stroke-linecap="square"/>
<path d="M355.5 306.125V385.125" stroke="black" stroke-width="3.88" stroke-linecap="square"/>
<path d="M296.25 306.125H355.5" stroke="black" stroke-width="3.88" stroke-linecap="square"/>
<path d="M434.5 148.125H493.75" stroke="black" stroke-width="3.88" stroke-linecap="square"/>
<path d="M477.95 132.325V163.925V132.325ZM477.95 148.125L448.325 163.925V132.325L477.95 148.125Z" stroke="black" stroke-width="3.88" stroke-linecap="square"/>
<path d="M487.825 108.625L479.925 112.575L483.875 116.525L487.825 108.625ZM487.825 108.625L479.925 112.575M470.05 126.4L485.85 110.6L470.05 126.4Z" stroke="black" stroke-width="3.88" stroke-linecap="square"/>
<path d="M499.675 122.45L491.775 126.4L495.725 130.35L499.675 122.45ZM499.675 122.45L491.775 126.4M481.9 140.225L497.7 124.425L481.9 140.225Z" stroke="black" stroke-width="3.88" stroke-linecap="square"/>
<path d="M434.5 266.625H493.75" stroke="black" stroke-width="3.88" stroke-linecap="square"/>
<path d="M477.95 250.825V282.425V250.825ZM477.95 266.625L448.325 282.425V250.825L477.95 266.625Z" stroke="black" stroke-width="3.88" stroke-linecap="square"/>
<path d="M487.825 227.125L479.925 231.075L483.875 235.025L487.825 227.125ZM487.825 227.125L479.925 231.075M470.05 244.9L485.85 229.1L470.05 244.9Z" stroke="black" stroke-width="3.88" stroke-linecap="square"/>
<path d="M499.675 240.95L491.775 244.9L495.725 248.85L499.675 240.95ZM499.675 240.95L491.775 244.9M481.9 258.725L497.7 242.925L481.9 258.725Z" stroke="black" stroke-width="3.88" stroke-linecap="square"/>
<path d="M434.5 385.125H493.75" stroke="black" stroke-width="3.88" stroke-linecap="square"/>
<path d="M477.95 369.325V400.925V369.325ZM477.95 385.125L448.325 400.925V369.325L477.95 385.125Z" stroke="black" stroke-width="3.88" stroke-linecap="square"/>
<path d="M487.825 345.625L479.925 349.575L483.875 353.525L487.825 345.625ZM487.825 345.625L479.925 349.575M470.05 363.4L485.85 347.6L470.05 363.4Z" stroke="black" stroke-width="3.88" stroke-linecap="square"/>
<path d="M499.675 359.45L491.775 363.4L495.725 367.35L499.675 359.45ZM499.675 359.45L491.775 363.4M481.9 377.225L497.7 361.425L481.9 377.225Z" stroke="black" stroke-width="3.88" stroke-linecap="square"/>
<path d="M286.375 128.375H49.375V513.5H286.375V128.375Z" stroke="black" stroke-width="3.88"/>
<path d="M120.444 195.775L126.31 180.499H128.488L134.74 195.775H132.437L130.655 191.149H124.268L122.59 195.775H120.444ZM124.851 189.502H130.03L128.436 185.272C127.95 183.987 127.588 182.931 127.352 182.104C127.158 183.084 126.883 184.056 126.529 185.022L124.851 189.502ZM136.386 195.775V180.499H143.159C144.521 180.499 145.556 180.638 146.264 180.916C146.973 181.187 147.539 181.67 147.963 182.365C148.386 183.059 148.598 183.827 148.598 184.667C148.598 185.751 148.248 186.665 147.546 187.408C146.844 188.151 145.761 188.623 144.295 188.825C144.83 189.082 145.236 189.335 145.514 189.586C146.105 190.127 146.664 190.805 147.192 191.617L149.849 195.775H147.306L145.285 192.597C144.694 191.68 144.208 190.978 143.826 190.492C143.444 190.006 143.1 189.665 142.794 189.471C142.496 189.276 142.19 189.141 141.877 189.065C141.648 189.016 141.273 188.992 140.752 188.992H138.408V195.775H136.386ZM138.408 187.241H142.753C143.677 187.241 144.399 187.147 144.92 186.96C145.441 186.765 145.837 186.46 146.108 186.043C146.379 185.619 146.514 185.161 146.514 184.667C146.514 183.945 146.25 183.351 145.722 182.886C145.201 182.42 144.375 182.187 143.243 182.187H138.408V187.241ZM151.776 195.775V180.499H157.038C158.226 180.499 159.133 180.572 159.758 180.718C160.633 180.92 161.38 181.284 161.998 181.812C162.804 182.493 163.405 183.365 163.801 184.428C164.204 185.484 164.405 186.692 164.405 188.054C164.405 189.214 164.27 190.242 163.999 191.138C163.728 192.034 163.381 192.778 162.957 193.368C162.533 193.952 162.068 194.413 161.561 194.754C161.061 195.087 160.453 195.341 159.737 195.515C159.029 195.688 158.212 195.775 157.289 195.775H151.776ZM153.798 193.972H157.059C158.067 193.972 158.855 193.879 159.425 193.691C160.001 193.503 160.46 193.239 160.8 192.899C161.279 192.42 161.651 191.777 161.915 190.971C162.186 190.159 162.321 189.176 162.321 188.023C162.321 186.425 162.057 185.199 161.529 184.344C161.008 183.483 160.373 182.906 159.623 182.615C159.081 182.406 158.209 182.302 157.007 182.302H153.798V193.972ZM177.222 180.499H179.243V189.325C179.243 190.86 179.07 192.079 178.722 192.982C178.375 193.886 177.746 194.622 176.836 195.191C175.933 195.754 174.745 196.036 173.273 196.036C171.842 196.036 170.671 195.789 169.761 195.296C168.851 194.802 168.202 194.09 167.813 193.16C167.424 192.222 167.229 190.944 167.229 189.325V180.499H169.251V189.315C169.251 190.641 169.372 191.621 169.615 192.253C169.865 192.878 170.289 193.361 170.887 193.701C171.491 194.042 172.227 194.212 173.096 194.212C174.582 194.212 175.642 193.875 176.274 193.201C176.906 192.527 177.222 191.232 177.222 189.315V180.499ZM182.963 195.775V180.499H184.985V195.775H182.963ZM188.538 195.775V180.499H190.611L198.635 192.493V180.499H200.573V195.775H198.499L190.476 183.771V195.775H188.538ZM203.365 188.335C203.365 185.8 204.046 183.816 205.408 182.385C206.769 180.947 208.527 180.228 210.68 180.228C212.09 180.228 213.362 180.565 214.494 181.239C215.626 181.913 216.488 182.854 217.078 184.063C217.675 185.265 217.974 186.63 217.974 188.158C217.974 189.707 217.662 191.093 217.036 192.316C216.411 193.538 215.526 194.466 214.379 195.098C213.233 195.723 211.997 196.036 210.67 196.036C209.232 196.036 207.947 195.688 206.814 194.994C205.682 194.299 204.824 193.351 204.241 192.149C203.657 190.947 203.365 189.676 203.365 188.335ZM205.449 188.366C205.449 190.207 205.943 191.659 206.929 192.722C207.922 193.778 209.166 194.306 210.659 194.306C212.181 194.306 213.431 193.771 214.411 192.701C215.397 191.631 215.89 190.114 215.89 188.148C215.89 186.904 215.678 185.821 215.255 184.897C214.838 183.966 214.223 183.247 213.41 182.74C212.604 182.226 211.698 181.969 210.691 181.969C209.26 181.969 208.027 182.462 206.992 183.448C205.963 184.428 205.449 186.067 205.449 188.366Z" fill="black"/>
<path d="M145.97 200.249H147.992V209.075C147.992 210.61 147.818 211.829 147.471 212.732C147.123 213.636 146.495 214.372 145.585 214.941C144.682 215.504 143.494 215.785 142.021 215.785C140.59 215.785 139.42 215.539 138.51 215.046C137.6 214.552 136.95 213.84 136.561 212.91C136.172 211.972 135.978 210.694 135.978 209.075V200.249H137.999V209.065C137.999 210.391 138.121 211.371 138.364 212.003C138.614 212.628 139.038 213.111 139.635 213.451C140.239 213.792 140.976 213.962 141.844 213.962C143.331 213.962 144.39 213.625 145.022 212.951C145.654 212.277 145.97 210.982 145.97 209.065V200.249ZM151.347 215.525V200.249H153.421L161.444 212.243V200.249H163.382V215.525H161.308L153.285 203.521V215.525H151.347ZM166.175 208.085C166.175 205.55 166.855 203.566 168.217 202.135C169.578 200.697 171.336 199.978 173.489 199.978C174.899 199.978 176.171 200.315 177.303 200.989C178.435 201.663 179.297 202.604 179.887 203.813C180.485 205.015 180.783 206.38 180.783 207.908C180.783 209.457 180.471 210.843 179.845 212.066C179.22 213.288 178.335 214.216 177.188 214.848C176.042 215.473 174.806 215.785 173.479 215.785C172.041 215.785 170.756 215.438 169.624 214.743C168.491 214.049 167.633 213.101 167.05 211.899C166.466 210.697 166.175 209.426 166.175 208.085ZM168.259 208.116C168.259 209.957 168.752 211.409 169.738 212.472C170.732 213.528 171.975 214.056 173.468 214.056C174.99 214.056 176.24 213.521 177.22 212.451C178.206 211.381 178.699 209.864 178.699 207.898C178.699 206.654 178.487 205.57 178.064 204.647C177.647 203.716 177.032 202.997 176.219 202.49C175.414 201.976 174.507 201.719 173.5 201.719C172.069 201.719 170.836 202.212 169.801 203.198C168.773 204.178 168.259 205.817 168.259 208.116ZM189.078 215.525V204.459H190.766V206.137C191.196 205.352 191.592 204.834 191.953 204.584C192.322 204.334 192.724 204.209 193.162 204.209C193.794 204.209 194.437 204.41 195.09 204.813L194.444 206.553C193.985 206.283 193.527 206.147 193.068 206.147C192.658 206.147 192.29 206.272 191.964 206.522C191.637 206.765 191.405 207.106 191.266 207.543C191.057 208.21 190.953 208.94 190.953 209.732V215.525H189.078ZM195.694 211.492L197.57 211.242C197.785 212.305 198.15 213.073 198.664 213.545C199.185 214.011 199.817 214.243 200.56 214.243C201.442 214.243 202.186 213.938 202.79 213.326C203.401 212.715 203.707 211.958 203.707 211.055C203.707 210.193 203.426 209.485 202.863 208.929C202.3 208.367 201.585 208.085 200.717 208.085C200.362 208.085 199.921 208.155 199.393 208.294L199.602 206.647C199.727 206.661 199.827 206.668 199.904 206.668C200.703 206.668 201.422 206.46 202.061 206.043C202.7 205.626 203.019 204.984 203.019 204.115C203.019 203.427 202.787 202.858 202.321 202.406C201.856 201.955 201.255 201.729 200.519 201.729C199.789 201.729 199.181 201.958 198.695 202.417C198.209 202.875 197.896 203.563 197.757 204.48L195.882 204.146C196.111 202.889 196.632 201.917 197.445 201.229C198.257 200.534 199.268 200.187 200.477 200.187C201.311 200.187 202.078 200.367 202.78 200.729C203.481 201.083 204.016 201.569 204.384 202.187C204.76 202.806 204.947 203.462 204.947 204.157C204.947 204.817 204.77 205.418 204.416 205.96C204.061 206.501 203.537 206.932 202.842 207.252C203.745 207.46 204.447 207.894 204.947 208.554C205.447 209.207 205.697 210.027 205.697 211.013C205.697 212.347 205.211 213.479 204.239 214.41C203.266 215.334 202.036 215.796 200.55 215.796C199.209 215.796 198.094 215.396 197.205 214.598C196.323 213.799 195.819 212.764 195.694 211.492Z" fill="black"/>
<path d="M280.45 187.625H296.25" stroke="black" stroke-width="3.88" stroke-linecap="square"/>
<path d="M280.45 227.125H296.25" stroke="black" stroke-width="3.88" stroke-linecap="square"/>
<path d="M280.45 266.625H296.25" stroke="black" stroke-width="3.88" stroke-linecap="square"/>
<path d="M280.45 306.125H296.25" stroke="black" stroke-width="3.88" stroke-linecap="square"/>
<path d="M280.45 444.375H296.25" stroke="black" stroke-width="3.88" stroke-linecap="square"/>
<path d="M280.45 483.875H296.25" stroke="black" stroke-width="3.88" stroke-linecap="square"/>
<path d="M59.2652 235.275V219.999H61.2867V235.275H59.2652ZM64.246 227.835C64.246 225.3 64.9267 223.316 66.2883 221.885C67.6498 220.447 69.4073 219.728 71.5607 219.728C72.9709 219.728 74.2421 220.065 75.3744 220.739C76.5067 221.413 77.3681 222.354 77.9586 223.563C78.556 224.765 78.8547 226.13 78.8547 227.658C78.8547 229.207 78.5421 230.593 77.9169 231.816C77.2917 233.038 76.406 233.966 75.2598 234.598C74.1136 235.223 72.8771 235.535 71.5503 235.535C70.1124 235.535 68.8272 235.188 67.6949 234.493C66.5626 233.799 65.7047 232.851 65.1212 231.649C64.5377 230.447 64.246 229.176 64.246 227.835ZM66.3299 227.866C66.3299 229.707 66.8231 231.159 67.8096 232.222C68.8029 233.278 70.0464 233.806 71.5399 233.806C73.0612 233.806 74.3116 233.271 75.2911 232.201C76.2775 231.131 76.7707 229.614 76.7707 227.648C76.7707 226.404 76.5588 225.32 76.1351 224.397C75.7183 223.466 75.1035 222.747 74.2908 222.24C73.4849 221.726 72.5784 221.469 71.5712 221.469C70.1402 221.469 68.9071 221.962 67.8721 222.948C66.844 223.928 66.3299 225.567 66.3299 227.866ZM81.5013 235.275V219.999H88.2743C89.6358 219.999 90.6709 220.138 91.3794 220.416C92.088 220.687 92.6541 221.17 93.0779 221.865C93.5016 222.559 93.7135 223.327 93.7135 224.167C93.7135 225.251 93.3627 226.165 92.6611 226.908C91.9595 227.651 90.8758 228.123 89.4101 228.325C89.945 228.582 90.3513 228.835 90.6292 229.086C91.2197 229.627 91.7789 230.305 92.3068 231.117L94.9639 235.275H92.4214L90.4 232.097C89.8095 231.18 89.3232 230.478 88.9412 229.992C88.5591 229.506 88.2152 229.165 87.9096 228.971C87.6109 228.776 87.3052 228.641 86.9926 228.565C86.7634 228.516 86.3883 228.492 85.8673 228.492H83.5228V235.275H81.5013ZM83.5228 226.741H87.8679C88.7918 226.741 89.5143 226.647 90.0353 226.46C90.5563 226.265 90.9522 225.96 91.2231 225.543C91.494 225.119 91.6295 224.661 91.6295 224.167C91.6295 223.445 91.3655 222.851 90.8376 222.386C90.3166 221.92 89.49 221.687 88.3577 221.687H83.5228V226.741ZM96.9332 235.275V219.999H107.978V221.802H98.9547V226.481H107.405V228.273H98.9547V233.472H108.333V235.275H96.9332ZM111.229 235.275V219.999H121.535V221.802H113.251V226.533H120.42V228.335H113.251V235.275H111.229Z" fill="black"/>
<path d="M58.9526 255.025V239.749H65.7256C67.0871 239.749 68.1222 239.888 68.8307 240.166C69.5393 240.437 70.1054 240.92 70.5292 241.615C70.9529 242.309 71.1648 243.077 71.1648 243.917C71.1648 245.001 70.814 245.915 70.1124 246.658C69.4108 247.401 68.3271 247.873 66.8614 248.075C67.3962 248.332 67.8026 248.585 68.0805 248.836C68.6709 249.377 69.2301 250.055 69.7581 250.867L72.4152 255.025H69.8727L67.8512 251.847C67.2608 250.93 66.7745 250.228 66.3925 249.742C66.0104 249.256 65.6665 248.915 65.3609 248.721C65.0622 248.526 64.7565 248.391 64.4439 248.315C64.2147 248.266 63.8396 248.242 63.3186 248.242H60.9741V255.025H58.9526ZM60.9741 246.491H65.3192C66.2431 246.491 66.9656 246.397 67.4865 246.21C68.0075 246.015 68.4035 245.71 68.6744 245.293C68.9453 244.869 69.0808 244.411 69.0808 243.917C69.0808 243.195 68.8168 242.601 68.2889 242.136C67.7679 241.67 66.9412 241.437 65.8089 241.437H60.9741V246.491ZM74.3845 255.025V239.749H85.4297V241.552H76.406V246.231H84.8566V248.023H76.406V253.222H85.7839V255.025H74.3845ZM87.8888 250.117L89.7956 249.95C89.8859 250.715 90.0943 251.343 90.4208 251.836C90.7542 252.323 91.2683 252.719 91.9629 253.024C92.6576 253.323 93.4391 253.472 94.3074 253.472C95.0785 253.472 95.7593 253.358 96.3497 253.129C96.9402 252.899 97.3778 252.587 97.6626 252.191C97.9544 251.788 98.1003 251.35 98.1003 250.878C98.1003 250.399 97.9613 249.982 97.6835 249.627C97.4056 249.266 96.9471 248.964 96.3081 248.721C95.8982 248.561 94.9917 248.315 93.5885 247.981C92.1852 247.641 91.2023 247.321 90.6396 247.022C89.9102 246.64 89.3649 246.168 89.0037 245.605C88.6494 245.036 88.4723 244.4 88.4723 243.699C88.4723 242.927 88.6911 242.208 89.1287 241.542C89.5664 240.868 90.2055 240.357 91.046 240.01C91.8865 239.663 92.8209 239.489 93.849 239.489C94.9812 239.489 95.9781 239.673 96.8395 240.041C97.7078 240.402 98.3747 240.937 98.8401 241.646C99.3055 242.354 99.5556 243.157 99.5903 244.053L97.6522 244.199C97.548 243.233 97.1937 242.504 96.5894 242.011C95.992 241.517 95.1063 241.271 93.9323 241.271C92.7097 241.271 91.8171 241.496 91.2544 241.948C90.6987 242.393 90.4208 242.931 90.4208 243.563C90.4208 244.112 90.6188 244.563 91.0147 244.918C91.4037 245.272 92.4179 245.637 94.0573 246.012C95.7037 246.38 96.8325 246.703 97.4438 246.981C98.333 247.391 98.9894 247.912 99.4132 248.544C99.8369 249.169 100.049 249.891 100.049 250.711C100.049 251.524 99.8161 252.292 99.3507 253.014C98.8852 253.729 98.2149 254.289 97.3396 254.692C96.4713 255.088 95.4918 255.285 94.4012 255.285C93.0188 255.285 91.8587 255.084 90.921 254.681C89.9901 254.278 89.2572 253.674 88.7223 252.868C88.1944 252.055 87.9165 251.138 87.8888 250.117ZM102.852 255.025V239.749H113.897V241.552H104.873V246.231H113.324V248.023H104.873V253.222H114.251V255.025H102.852ZM120.93 255.025V241.552H115.898V239.749H128.005V241.552H122.952V255.025H120.93Z" fill="black"/>
<path d="M58.1711 270.742L60.0467 270.492C60.2621 271.555 60.6268 272.323 61.1408 272.795C61.6618 273.261 62.294 273.493 63.0372 273.493C63.9195 273.493 64.6627 273.188 65.2671 272.576C65.8784 271.965 66.1841 271.208 66.1841 270.305C66.1841 269.443 65.9027 268.735 65.34 268.179C64.7774 267.617 64.0619 267.335 63.1935 267.335C62.8393 267.335 62.3982 267.405 61.8702 267.544L62.0786 265.897C62.2036 265.911 62.3044 265.918 62.3808 265.918C63.1796 265.918 63.8986 265.71 64.5377 265.293C65.1768 264.876 65.4963 264.234 65.4963 263.365C65.4963 262.677 65.2636 262.108 64.7982 261.656C64.3328 261.205 63.7319 260.979 62.9956 260.979C62.2662 260.979 61.6583 261.208 61.1721 261.667C60.6858 262.125 60.3732 262.813 60.2343 263.73L58.3587 263.396C58.5879 262.139 59.1089 261.167 59.9217 260.479C60.7344 259.784 61.7452 259.437 62.9539 259.437C63.7875 259.437 64.5551 259.617 65.2567 259.979C65.9583 260.333 66.4932 260.819 66.8614 261.437C67.2365 262.056 67.424 262.712 67.424 263.407C67.424 264.067 67.2469 264.668 66.8926 265.21C66.5383 265.751 66.0139 266.182 65.3192 266.502C66.2223 266.71 66.9239 267.144 67.424 267.804C67.9242 268.457 68.1743 269.277 68.1743 270.263C68.1743 271.597 67.688 272.729 66.7155 273.66C65.7429 274.584 64.5134 275.046 63.0268 275.046C61.6861 275.046 60.5712 274.646 59.682 273.848C58.7998 273.049 58.2962 272.014 58.1711 270.742ZM71.0918 274.775V272.639H73.2279V274.775H71.0918ZM75.9892 270.742L77.8648 270.492C78.0801 271.555 78.4448 272.323 78.9589 272.795C79.4799 273.261 80.112 273.493 80.8553 273.493C81.7375 273.493 82.4808 273.188 83.0852 272.576C83.6965 271.965 84.0021 271.208 84.0021 270.305C84.0021 269.443 83.7208 268.735 83.1581 268.179C82.5954 267.617 81.8799 267.335 81.0116 267.335C80.6573 267.335 80.2162 267.405 79.6883 267.544L79.8967 265.897C80.0217 265.911 80.1224 265.918 80.1989 265.918C80.9977 265.918 81.7167 265.71 82.3558 265.293C82.9949 264.876 83.3144 264.234 83.3144 263.365C83.3144 262.677 83.0817 262.108 82.6163 261.656C82.1509 261.205 81.55 260.979 80.8136 260.979C80.0842 260.979 79.4764 261.208 78.9901 261.667C78.5039 262.125 78.1913 262.813 78.0523 263.73L76.1768 263.396C76.406 262.139 76.927 261.167 77.7398 260.479C78.5525 259.784 79.5632 259.437 80.7719 259.437C81.6055 259.437 82.3731 259.617 83.0748 259.979C83.7764 260.333 84.3112 260.819 84.6794 261.437C85.0545 262.056 85.2421 262.712 85.2421 263.407C85.2421 264.067 85.065 264.668 84.7107 265.21C84.3564 265.751 83.8319 266.182 83.1373 266.502C84.0403 266.71 84.7419 267.144 85.2421 267.804C85.7423 268.457 85.9923 269.277 85.9923 270.263C85.9923 271.597 85.5061 272.729 84.5335 273.66C83.561 274.584 82.3315 275.046 80.8449 275.046C79.5042 275.046 78.3893 274.646 77.5001 273.848C76.6179 273.049 76.1142 272.014 75.9892 270.742ZM92.9841 274.775L87.0656 259.499H89.2538L93.2238 270.597C93.5433 271.486 93.8107 272.319 94.0261 273.097C94.2623 272.264 94.5367 271.43 94.8493 270.597L98.9756 259.499H101.039L95.0577 274.775H92.9841Z" fill="black"/>
<path d="M58.1607 290.524L60.1301 290.357C60.276 291.316 60.6129 292.038 61.1408 292.524C61.6757 293.004 62.3183 293.243 63.0685 293.243C63.9716 293.243 64.7357 292.903 65.3609 292.222C65.9861 291.541 66.2987 290.638 66.2987 289.513C66.2987 288.443 65.9965 287.599 65.3921 286.981C64.7947 286.363 64.0098 286.054 63.0372 286.054C62.4329 286.054 61.8876 286.193 61.4013 286.47C60.9151 286.741 60.533 287.096 60.2551 287.533L58.4942 287.304L59.9738 279.458H67.5699V281.25H61.4743L60.6511 285.355C61.568 284.716 62.5301 284.397 63.5374 284.397C64.8711 284.397 65.9965 284.859 66.9135 285.783C67.8304 286.707 68.2889 287.894 68.2889 289.346C68.2889 290.729 67.886 291.923 67.0802 292.931C66.1007 294.167 64.7635 294.785 63.0685 294.785C61.6792 294.785 60.5434 294.396 59.6612 293.618C58.7859 292.84 58.2858 291.809 58.1607 290.524ZM75.166 294.525L69.2475 279.249H71.4357L75.4057 290.347C75.7252 291.236 75.9927 292.069 76.208 292.847C76.4442 292.014 76.7186 291.18 77.0312 290.347L81.1575 279.249H83.2206L77.2396 294.525H75.166Z" fill="black"/>
<path d="M66.0694 308.284V306.491L72.5402 306.481V312.149C71.5468 312.941 70.5222 313.539 69.4663 313.942C68.4104 314.337 67.3268 314.535 66.2153 314.535C64.7148 314.535 63.3498 314.216 62.1203 313.577C60.8977 312.931 59.9738 312 59.3486 310.784C58.7234 309.569 58.4108 308.211 58.4108 306.71C58.4108 305.224 58.7199 303.838 59.3382 302.553C59.9634 301.26 60.8595 300.302 62.0265 299.677C63.1935 299.051 64.5377 298.739 66.059 298.739C67.1635 298.739 68.1604 298.919 69.0495 299.281C69.9456 299.635 70.6473 300.132 71.1544 300.771C71.6615 301.41 72.047 302.243 72.311 303.272L70.4875 303.772C70.2582 302.994 69.9734 302.382 69.6331 301.938C69.2927 301.493 68.8064 301.139 68.1743 300.875C67.5421 300.604 66.8405 300.469 66.0694 300.469C65.1455 300.469 64.3467 300.611 63.6729 300.896C62.999 301.174 62.4537 301.542 62.0369 302C61.6271 302.459 61.3075 302.962 61.0783 303.511C60.6893 304.456 60.4948 305.481 60.4948 306.585C60.4948 307.947 60.7275 309.086 61.1929 310.003C61.6653 310.92 62.3495 311.601 63.2456 312.045C64.1418 312.49 65.0934 312.712 66.1007 312.712C66.976 312.712 67.8304 312.545 68.664 312.212C69.4976 311.871 70.1297 311.51 70.5604 311.128V308.284H66.0694ZM75.5099 314.275V298.999H77.5835L85.6068 310.993V298.999H87.5449V314.275H85.4713L77.448 302.271V314.275H75.5099ZM90.9522 314.275V298.999H96.2143C97.4021 298.999 98.3087 299.072 98.9339 299.218C99.8091 299.42 100.556 299.784 101.174 300.312C101.98 300.993 102.581 301.865 102.977 302.928C103.38 303.984 103.581 305.192 103.581 306.554C103.581 307.714 103.446 308.742 103.175 309.638C102.904 310.534 102.557 311.277 102.133 311.868C101.709 312.451 101.244 312.913 100.737 313.254C100.236 313.587 99.6285 313.841 98.913 314.014C98.2045 314.188 97.3883 314.275 96.4644 314.275H90.9522ZM92.9737 312.472H96.2351C97.2424 312.472 98.0308 312.379 98.6004 312.191C99.177 312.003 99.6355 311.739 99.9759 311.399C100.455 310.92 100.827 310.277 101.091 309.471C101.362 308.659 101.497 307.676 101.497 306.523C101.497 304.925 101.233 303.699 100.705 302.844C100.184 301.983 99.5486 301.406 98.7984 301.115C98.2566 300.906 97.3848 300.802 96.183 300.802H92.9737V312.472Z" fill="black"/>
<path d="M66.0694 328.034V326.241L72.5402 326.231V331.899C71.5468 332.691 70.5222 333.289 69.4663 333.692C68.4104 334.087 67.3268 334.285 66.2153 334.285C64.7148 334.285 63.3498 333.966 62.1203 333.327C60.8977 332.681 59.9738 331.75 59.3486 330.534C58.7234 329.319 58.4108 327.961 58.4108 326.46C58.4108 324.974 58.7199 323.588 59.3382 322.303C59.9634 321.01 60.8595 320.052 62.0265 319.427C63.1935 318.801 64.5377 318.489 66.059 318.489C67.1635 318.489 68.1604 318.669 69.0495 319.031C69.9456 319.385 70.6473 319.882 71.1544 320.521C71.6615 321.16 72.047 321.993 72.311 323.022L70.4875 323.522C70.2582 322.744 69.9734 322.132 69.6331 321.688C69.2927 321.243 68.8064 320.889 68.1743 320.625C67.5421 320.354 66.8405 320.219 66.0694 320.219C65.1455 320.219 64.3467 320.361 63.6729 320.646C62.999 320.924 62.4537 321.292 62.0369 321.75C61.6271 322.209 61.3075 322.712 61.0783 323.261C60.6893 324.206 60.4948 325.231 60.4948 326.335C60.4948 327.697 60.7275 328.836 61.1929 329.753C61.6653 330.67 62.3495 331.351 63.2456 331.795C64.1418 332.24 65.0934 332.462 66.1007 332.462C66.976 332.462 67.8304 332.295 68.664 331.962C69.4976 331.621 70.1297 331.26 70.5604 330.878V328.034H66.0694ZM75.5099 334.025V318.749H77.5835L85.6068 330.743V318.749H87.5449V334.025H85.4713L77.448 322.021V334.025H75.5099ZM90.9522 334.025V318.749H96.2143C97.4021 318.749 98.3087 318.822 98.9339 318.968C99.8091 319.17 100.556 319.534 101.174 320.062C101.98 320.743 102.581 321.615 102.977 322.678C103.38 323.734 103.581 324.942 103.581 326.304C103.581 327.464 103.446 328.492 103.175 329.388C102.904 330.284 102.557 331.027 102.133 331.618C101.709 332.201 101.244 332.663 100.737 333.004C100.236 333.337 99.6285 333.591 98.913 333.764C98.2045 333.938 97.3883 334.025 96.4644 334.025H90.9522ZM92.9737 332.222H96.2351C97.2424 332.222 98.0308 332.129 98.6004 331.941C99.177 331.753 99.6355 331.489 99.9759 331.149C100.455 330.67 100.827 330.027 101.091 329.221C101.362 328.409 101.497 327.426 101.497 326.273C101.497 324.675 101.233 323.449 100.705 322.594C100.184 321.733 99.5486 321.156 98.7984 320.865C98.2566 320.656 97.3848 320.552 96.183 320.552H92.9737V332.222Z" fill="black"/>
<path d="M63.2873 353.775L57.3688 338.499H59.557L63.527 349.597C63.8465 350.486 64.114 351.319 64.3293 352.097C64.5655 351.264 64.8399 350.43 65.1525 349.597L69.2788 338.499H71.3419L65.3609 353.775H63.2873ZM72.5298 340.656V338.499H74.4054V340.656H72.5298ZM72.5298 353.775V342.709H74.4054V353.775H72.5298ZM77.2709 353.775V342.709H78.9589V344.282C79.7716 343.067 80.9456 342.459 82.4808 342.459C83.1477 342.459 83.759 342.581 84.3147 342.824C84.8774 343.06 85.2977 343.372 85.5755 343.761C85.8534 344.15 86.0479 344.612 86.159 345.147C86.2285 345.495 86.2632 346.102 86.2632 346.971V353.775H84.3877V347.044C84.3877 346.28 84.3147 345.71 84.1688 345.335C84.023 344.953 83.7625 344.651 83.3873 344.428C83.0192 344.199 82.585 344.084 82.0849 344.084C81.286 344.084 80.5948 344.338 80.0113 344.845C79.4347 345.352 79.1464 346.314 79.1464 347.731V353.775H77.2709Z" fill="black"/>
<path d="M57.2438 393.275L63.1102 377.999H65.2879L71.5399 393.275H69.2371L67.4553 388.649H61.0679L59.3903 393.275H57.2438ZM61.6514 387.002H66.8301L65.2358 382.772C64.7496 381.487 64.3884 380.431 64.1522 379.604C63.9577 380.584 63.6833 381.556 63.329 382.522L61.6514 387.002ZM72.3943 385.741C72.3943 383.935 72.5784 382.483 72.9466 381.386C73.3217 380.281 73.874 379.43 74.6034 378.833C75.3397 378.236 76.2636 377.937 77.3751 377.937C78.1948 377.937 78.9137 378.104 79.532 378.437C80.1502 378.764 80.6608 379.239 81.0637 379.865C81.4666 380.483 81.7827 381.24 82.0119 382.136C82.2412 383.025 82.3558 384.227 82.3558 385.741C82.3558 387.534 82.1717 388.982 81.8035 390.086C81.4353 391.184 80.8831 392.035 80.1468 392.639C79.4174 393.237 78.4935 393.535 77.3751 393.535C75.9024 393.535 74.7458 393.008 73.9052 391.952C72.898 390.68 72.3943 388.61 72.3943 385.741ZM74.322 385.741C74.322 388.249 74.6138 389.92 75.1973 390.753C75.7878 391.58 76.5137 391.993 77.3751 391.993C78.2364 391.993 78.9589 391.577 79.5424 390.743C80.1329 389.909 80.4281 388.242 80.4281 385.741C80.4281 383.227 80.1329 381.556 79.5424 380.729C78.9589 379.903 78.2295 379.489 77.3542 379.489C76.4928 379.489 75.8051 379.854 75.2911 380.584C74.645 381.514 74.322 383.234 74.322 385.741Z" fill="black"/>
<path d="M57.2438 413.025L63.1102 397.749H65.2879L71.5399 413.025H69.2371L67.4553 408.399H61.0679L59.3903 413.025H57.2438ZM61.6514 406.752H66.8301L65.2358 402.522C64.7496 401.237 64.3884 400.181 64.1522 399.354C63.9577 400.334 63.6833 401.306 63.329 402.272L61.6514 406.752ZM79.459 413.025H77.5835V401.073C77.1319 401.504 76.538 401.935 75.8016 402.365C75.0723 402.796 74.4158 403.119 73.8323 403.334V401.521C74.8812 401.028 75.7982 400.431 76.5831 399.729C77.3681 399.028 77.9238 398.347 78.2503 397.687H79.459V413.025Z" fill="black"/>
<path d="M57.2438 432.775L63.1102 417.499H65.2879L71.5399 432.775H69.2371L67.4553 428.149H61.0679L59.3903 432.775H57.2438ZM61.6514 426.502H66.8301L65.2358 422.272C64.7496 420.987 64.3884 419.931 64.1522 419.104C63.9577 420.084 63.6833 421.056 63.329 422.022L61.6514 426.502ZM82.2516 430.972V432.775H72.1547C72.1408 432.323 72.2137 431.889 72.3735 431.473C72.6305 430.785 73.0404 430.107 73.603 429.441C74.1727 428.774 74.9924 428.003 76.0621 427.127C77.7224 425.766 78.8443 424.689 79.4278 423.897C80.0113 423.098 80.3031 422.345 80.3031 421.636C80.3031 420.893 80.0356 420.268 79.5007 419.761C78.9728 419.246 78.2816 418.989 77.4272 418.989C76.5241 418.989 75.8016 419.26 75.2598 419.802C74.718 420.344 74.4436 421.094 74.4366 422.053L72.5089 421.855C72.6409 420.417 73.1376 419.323 73.999 418.573C74.8604 417.815 76.017 417.437 77.4688 417.437C78.9346 417.437 80.0947 417.843 80.9491 418.656C81.8035 419.469 82.2307 420.476 82.2307 421.678C82.2307 422.289 82.1057 422.89 81.8556 423.48C81.6055 424.071 81.1887 424.693 80.6052 425.346C80.0287 425.999 79.0666 426.895 77.7189 428.034C76.5936 428.979 75.8711 429.621 75.5516 429.962C75.232 430.295 74.9681 430.632 74.7597 430.972H82.2516Z" fill="black"/>
<path d="M57.2438 452.525L63.1102 437.249H65.2879L71.5399 452.525H69.2371L67.4553 447.899H61.0679L59.3903 452.525H57.2438ZM61.6514 446.252H66.8301L65.2358 442.022C64.7496 440.737 64.3884 439.681 64.1522 438.854C63.9577 439.833 63.6833 440.806 63.329 441.772L61.6514 446.252ZM72.4048 448.492L74.2803 448.242C74.4957 449.305 74.8604 450.073 75.3744 450.545C75.8954 451.011 76.5276 451.243 77.2709 451.243C78.1531 451.243 78.8964 450.938 79.5007 450.326C80.112 449.715 80.4177 448.958 80.4177 448.055C80.4177 447.193 80.1363 446.485 79.5737 445.929C79.011 445.366 78.2955 445.085 77.4272 445.085C77.0729 445.085 76.6318 445.155 76.1038 445.294L76.3122 443.647C76.4373 443.661 76.538 443.668 76.6144 443.668C77.4133 443.668 78.1322 443.46 78.7713 443.043C79.4104 442.626 79.73 441.983 79.73 441.115C79.73 440.427 79.4972 439.858 79.0318 439.406C78.5664 438.955 77.9655 438.729 77.2292 438.729C76.4998 438.729 75.892 438.958 75.4057 439.417C74.9194 439.875 74.6068 440.563 74.4679 441.48L72.5923 441.146C72.8215 439.889 73.3425 438.917 74.1553 438.229C74.9681 437.534 75.9788 437.187 77.1875 437.187C78.0211 437.187 78.7887 437.367 79.4903 437.729C80.1919 438.083 80.7268 438.569 81.095 439.187C81.4701 439.806 81.6576 440.462 81.6576 441.157C81.6576 441.817 81.4805 442.418 81.1262 442.959C80.7719 443.501 80.2475 443.932 79.5528 444.252C80.4559 444.46 81.1575 444.894 81.6576 445.554C82.1578 446.207 82.4079 447.027 82.4079 448.013C82.4079 449.347 81.9216 450.479 80.9491 451.41C79.9766 452.334 78.747 452.796 77.2604 452.796C75.9197 452.796 74.8048 452.396 73.9156 451.598C73.0334 450.799 72.5298 449.764 72.4048 448.492Z" fill="black"/>
<path d="M57.2438 472.275L63.1102 456.999H65.2879L71.5399 472.275H69.2371L67.4553 467.649H61.0679L59.3903 472.275H57.2438ZM61.6514 466.002H66.8301L65.2358 461.772C64.7496 460.487 64.3884 459.431 64.1522 458.604C63.9577 459.584 63.6833 460.556 63.329 461.522L61.6514 466.002ZM78.4066 472.275V468.618H71.7796V466.898L78.7505 456.999H80.2822V466.898H82.3454V468.618H80.2822V472.275H78.4066ZM78.4066 466.898V460.011L73.6239 466.898H78.4066Z" fill="black"/>
<path d="M57.2438 492.025L63.1102 476.749H65.2879L71.5399 492.025H69.2371L67.4553 487.399H61.0679L59.3903 492.025H57.2438ZM61.6514 485.752H66.8301L65.2358 481.522C64.7496 480.237 64.3884 479.181 64.1522 478.354C63.9577 479.334 63.6833 480.306 63.329 481.272L61.6514 485.752ZM72.3943 488.024L74.3637 487.857C74.5096 488.816 74.8465 489.538 75.3744 490.024C75.9093 490.504 76.5519 490.743 77.3021 490.743C78.2052 490.743 78.9693 490.403 79.5945 489.722C80.2197 489.041 80.5323 488.138 80.5323 487.013C80.5323 485.943 80.2301 485.099 79.6258 484.481C79.0283 483.863 78.2434 483.554 77.2709 483.554C76.6665 483.554 76.1212 483.693 75.6349 483.97C75.1487 484.241 74.7666 484.596 74.4887 485.033L72.7278 484.804L74.2074 476.958H81.8035V478.75H75.7079L74.8847 482.855C75.8016 482.216 76.7638 481.897 77.771 481.897C79.1048 481.897 80.2301 482.359 81.1471 483.283C82.064 484.207 82.5225 485.394 82.5225 486.846C82.5225 488.229 82.1196 489.423 81.3138 490.431C80.3343 491.667 78.9971 492.285 77.3021 492.285C75.9128 492.285 74.777 491.896 73.8948 491.118C73.0195 490.34 72.5194 489.309 72.3943 488.024Z" fill="black"/>
<path d="M221.509 176.025L227.376 160.749H229.553L235.805 176.025H233.503L231.721 171.399H225.333L223.656 176.025H221.509ZM225.917 169.752H231.096L229.501 165.522C229.015 164.237 228.654 163.181 228.418 162.354C228.223 163.334 227.949 164.306 227.594 165.272L225.917 169.752ZM237.452 176.025V160.749H244.225C245.586 160.749 246.621 160.888 247.33 161.166C248.038 161.437 248.605 161.92 249.028 162.615C249.452 163.309 249.664 164.077 249.664 164.917C249.664 166.001 249.313 166.915 248.611 167.658C247.91 168.401 246.826 168.873 245.36 169.075C245.895 169.332 246.302 169.585 246.58 169.836C247.17 170.377 247.729 171.055 248.257 171.867L250.914 176.025H248.372L246.35 172.847C245.76 171.93 245.274 171.228 244.892 170.742C244.51 170.256 244.166 169.915 243.86 169.721C243.561 169.526 243.256 169.391 242.943 169.315C242.714 169.266 242.339 169.242 241.818 169.242H239.473V176.025H237.452ZM239.473 167.491H243.818C244.742 167.491 245.465 167.397 245.986 167.21C246.507 167.015 246.903 166.71 247.174 166.293C247.444 165.869 247.58 165.411 247.58 164.917C247.58 164.195 247.316 163.601 246.788 163.136C246.267 162.67 245.44 162.437 244.308 162.437H239.473V167.491ZM252.884 176.025V160.749H263.929V162.552H254.905V167.231H263.356V169.023H254.905V174.222H264.283V176.025H252.884ZM267.18 176.025V160.749H277.485V162.552H269.201V167.283H276.37V169.085H269.201V176.025H267.18Z" fill="black"/>
<path d="M239.817 189.784V187.991L246.288 187.981V193.649C245.294 194.441 244.27 195.039 243.214 195.442C242.158 195.838 241.074 196.036 239.963 196.036C238.462 196.036 237.097 195.716 235.868 195.077C234.645 194.431 233.721 193.5 233.096 192.284C232.471 191.069 232.158 189.711 232.158 188.21C232.158 186.724 232.468 185.338 233.086 184.053C233.711 182.761 234.607 181.802 235.774 181.177C236.941 180.552 238.285 180.239 239.807 180.239C240.911 180.239 241.908 180.42 242.797 180.781C243.693 181.135 244.395 181.632 244.902 182.271C245.409 182.91 245.795 183.743 246.059 184.772L244.235 185.272C244.006 184.494 243.721 183.882 243.381 183.438C243.04 182.993 242.554 182.639 241.922 182.375C241.29 182.104 240.588 181.969 239.817 181.969C238.893 181.969 238.094 182.111 237.42 182.396C236.747 182.674 236.201 183.042 235.785 183.5C235.375 183.959 235.055 184.462 234.826 185.011C234.437 185.956 234.242 186.981 234.242 188.085C234.242 189.447 234.475 190.586 234.941 191.503C235.413 192.42 236.097 193.101 236.993 193.545C237.889 193.99 238.841 194.212 239.848 194.212C240.724 194.212 241.578 194.045 242.412 193.712C243.245 193.371 243.877 193.01 244.308 192.628V189.784H239.817ZM249.258 195.775V180.499H251.331L259.354 192.493V180.499H261.293V195.775H259.219L251.196 183.771V195.775H249.258ZM264.7 195.775V180.499H269.962C271.15 180.499 272.056 180.572 272.681 180.718C273.557 180.92 274.304 181.284 274.922 181.812C275.728 182.493 276.328 183.365 276.724 184.428C277.127 185.484 277.329 186.692 277.329 188.054C277.329 189.214 277.193 190.242 276.922 191.138C276.651 192.034 276.304 192.778 275.88 193.368C275.457 193.952 274.991 194.413 274.484 194.754C273.984 195.087 273.376 195.341 272.661 195.515C271.952 195.688 271.136 195.775 270.212 195.775H264.7ZM266.721 193.972H269.983C270.99 193.972 271.778 193.879 272.348 193.691C272.925 193.503 273.383 193.239 273.723 192.899C274.203 192.42 274.574 191.777 274.838 190.971C275.109 190.159 275.245 189.176 275.245 188.023C275.245 186.425 274.981 185.199 274.453 184.344C273.932 183.483 273.296 182.906 272.546 182.615C272.004 182.406 271.132 182.302 269.931 182.302H266.721V193.972Z" fill="black"/>
<path d="M240.942 215.525V200.249H246.205C247.392 200.249 248.299 200.322 248.924 200.468C249.799 200.67 250.546 201.034 251.164 201.562C251.97 202.243 252.571 203.115 252.967 204.178C253.37 205.234 253.571 206.442 253.571 207.804C253.571 208.964 253.436 209.992 253.165 210.888C252.894 211.784 252.547 212.528 252.123 213.118C251.699 213.702 251.234 214.163 250.727 214.504C250.227 214.837 249.619 215.091 248.903 215.264C248.195 215.438 247.378 215.525 246.455 215.525H240.942ZM242.964 213.722H246.225C247.233 213.722 248.021 213.629 248.591 213.441C249.167 213.253 249.626 212.989 249.966 212.649C250.445 212.17 250.817 211.527 251.081 210.721C251.352 209.909 251.487 208.926 251.487 207.773C251.487 206.175 251.223 204.949 250.695 204.094C250.174 203.233 249.539 202.656 248.789 202.365C248.247 202.156 247.375 202.052 246.173 202.052H242.964V213.722ZM262.668 215.525H260.792V203.573C260.341 204.004 259.747 204.435 259.011 204.865C258.281 205.296 257.625 205.619 257.041 205.834V204.021C258.09 203.528 259.007 202.931 259.792 202.229C260.577 201.528 261.133 200.847 261.459 200.187H262.668V215.525ZM267.492 211.492L269.368 211.242C269.583 212.305 269.948 213.073 270.462 213.545C270.983 214.011 271.615 214.243 272.359 214.243C273.241 214.243 273.984 213.938 274.588 213.326C275.2 212.715 275.505 211.958 275.505 211.055C275.505 210.193 275.224 209.485 274.661 208.929C274.099 208.367 273.383 208.085 272.515 208.085C272.161 208.085 271.719 208.155 271.191 208.294L271.4 206.647C271.525 206.661 271.626 206.668 271.702 206.668C272.501 206.668 273.22 206.46 273.859 206.043C274.498 205.626 274.818 204.984 274.818 204.115C274.818 203.427 274.585 202.858 274.119 202.406C273.654 201.955 273.053 201.729 272.317 201.729C271.587 201.729 270.98 201.958 270.493 202.417C270.007 202.875 269.694 203.563 269.556 204.48L267.68 204.146C267.909 202.889 268.43 201.917 269.243 201.229C270.056 200.534 271.066 200.187 272.275 200.187C273.109 200.187 273.876 200.367 274.578 200.729C275.28 201.083 275.814 201.569 276.183 202.187C276.558 202.806 276.745 203.462 276.745 204.157C276.745 204.817 276.568 205.418 276.214 205.96C275.86 206.501 275.335 206.932 274.64 207.252C275.544 207.46 276.245 207.894 276.745 208.554C277.245 209.207 277.496 210.027 277.496 211.013C277.496 212.347 277.009 213.479 276.037 214.41C275.064 215.334 273.835 215.796 272.348 215.796C271.007 215.796 269.892 215.396 269.003 214.598C268.121 213.799 267.617 212.764 267.492 211.492Z" fill="black"/>
<path d="M240.942 235.275V219.999H246.205C247.392 219.999 248.299 220.072 248.924 220.218C249.799 220.42 250.546 220.784 251.164 221.312C251.97 221.993 252.571 222.865 252.967 223.928C253.37 224.984 253.571 226.192 253.571 227.554C253.571 228.714 253.436 229.742 253.165 230.638C252.894 231.534 252.547 232.278 252.123 232.868C251.699 233.452 251.234 233.913 250.727 234.254C250.227 234.587 249.619 234.841 248.903 235.014C248.195 235.188 247.378 235.275 246.455 235.275H240.942ZM242.964 233.472H246.225C247.233 233.472 248.021 233.379 248.591 233.191C249.167 233.003 249.626 232.739 249.966 232.399C250.445 231.92 250.817 231.277 251.081 230.471C251.352 229.659 251.487 228.676 251.487 227.523C251.487 225.925 251.223 224.699 250.695 223.844C250.174 222.983 249.539 222.406 248.789 222.115C248.247 221.906 247.375 221.802 246.173 221.802H242.964V233.472ZM262.668 235.275H260.792V223.323C260.341 223.754 259.747 224.185 259.011 224.615C258.281 225.046 257.625 225.369 257.041 225.584V223.771C258.09 223.278 259.007 222.681 259.792 221.979C260.577 221.278 261.133 220.597 261.459 219.937H262.668V235.275ZM277.339 233.472V235.275H267.242C267.228 234.823 267.301 234.389 267.461 233.973C267.718 233.285 268.128 232.607 268.691 231.941C269.26 231.274 270.08 230.503 271.15 229.627C272.81 228.266 273.932 227.189 274.515 226.397C275.099 225.598 275.391 224.845 275.391 224.136C275.391 223.393 275.123 222.768 274.588 222.261C274.06 221.746 273.369 221.489 272.515 221.489C271.612 221.489 270.889 221.76 270.347 222.302C269.806 222.844 269.531 223.594 269.524 224.553L267.597 224.355C267.729 222.917 268.225 221.823 269.087 221.073C269.948 220.315 271.105 219.937 272.556 219.937C274.022 219.937 275.182 220.343 276.037 221.156C276.891 221.969 277.318 222.976 277.318 224.178C277.318 224.789 277.193 225.39 276.943 225.98C276.693 226.571 276.276 227.193 275.693 227.846C275.116 228.499 274.154 229.395 272.807 230.534C271.681 231.479 270.959 232.121 270.639 232.462C270.32 232.795 270.056 233.132 269.847 233.472H277.339Z" fill="black"/>
<path d="M184.425 255.025V239.749H190.187C191.201 239.749 191.976 239.798 192.511 239.895C193.261 240.02 193.89 240.26 194.397 240.614C194.904 240.962 195.31 241.451 195.616 242.083C195.928 242.716 196.085 243.41 196.085 244.167C196.085 245.466 195.671 246.567 194.845 247.471C194.018 248.367 192.524 248.815 190.364 248.815H186.446V255.025H184.425ZM186.446 247.012H190.395C191.701 247.012 192.629 246.769 193.177 246.283C193.726 245.796 194.001 245.112 194.001 244.23C194.001 243.591 193.837 243.046 193.511 242.594C193.191 242.136 192.768 241.833 192.24 241.687C191.899 241.597 191.271 241.552 190.354 241.552H186.446V247.012ZM201.326 255.025L197.273 239.749H199.346L201.67 249.763C201.92 250.812 202.135 251.854 202.316 252.889C202.705 251.256 202.934 250.315 203.003 250.065L205.911 239.749H208.349L210.537 247.481C211.086 249.398 211.482 251.201 211.725 252.889C211.919 251.923 212.173 250.815 212.486 249.565L214.882 239.749H216.914L212.725 255.025H210.777L207.557 243.386C207.286 242.413 207.126 241.816 207.078 241.594C206.918 242.295 206.769 242.893 206.63 243.386L203.389 255.025H201.326ZM218.748 255.025V239.749H221.791L225.406 250.565C225.74 251.573 225.983 252.326 226.136 252.826C226.309 252.271 226.58 251.454 226.948 250.378L230.606 239.749H233.325V255.025H231.377V242.24L226.938 255.025H225.115L220.696 242.021V255.025H218.748ZM242.526 255.025V239.749H247.788C248.976 239.749 249.883 239.822 250.508 239.968C251.383 240.17 252.13 240.534 252.748 241.062C253.554 241.743 254.155 242.615 254.551 243.678C254.954 244.734 255.155 245.942 255.155 247.304C255.155 248.464 255.02 249.492 254.749 250.388C254.478 251.284 254.131 252.028 253.707 252.618C253.283 253.202 252.818 253.663 252.311 254.004C251.81 254.337 251.203 254.591 250.487 254.764C249.778 254.938 248.962 255.025 248.038 255.025H242.526ZM244.548 253.222H247.809C248.816 253.222 249.605 253.129 250.174 252.941C250.751 252.753 251.209 252.489 251.55 252.149C252.029 251.67 252.401 251.027 252.665 250.221C252.936 249.409 253.071 248.426 253.071 247.273C253.071 245.675 252.807 244.449 252.279 243.594C251.758 242.733 251.123 242.156 250.372 241.865C249.831 241.656 248.959 241.552 247.757 241.552H244.548V253.222ZM264.252 255.025H262.376V243.073C261.925 243.504 261.331 243.935 260.594 244.365C259.865 244.796 259.209 245.119 258.625 245.334V243.521C259.674 243.028 260.591 242.431 261.376 241.729C262.161 241.028 262.717 240.347 263.043 239.687H264.252V255.025ZM274.547 255.025H272.671V243.073C272.22 243.504 271.626 243.935 270.889 244.365C270.16 244.796 269.503 245.119 268.92 245.334V243.521C269.969 243.028 270.886 242.431 271.671 241.729C272.456 241.028 273.011 240.347 273.338 239.687H274.547V255.025Z" fill="black"/>
<path d="M182.841 274.775V259.499H188.603C189.617 259.499 190.392 259.548 190.927 259.645C191.677 259.77 192.306 260.01 192.813 260.364C193.32 260.712 193.726 261.201 194.032 261.833C194.345 262.466 194.501 263.16 194.501 263.917C194.501 265.216 194.088 266.317 193.261 267.221C192.434 268.117 190.941 268.565 188.78 268.565H184.862V274.775H182.841ZM184.862 266.762H188.812C190.118 266.762 191.045 266.519 191.594 266.033C192.142 265.546 192.417 264.862 192.417 263.98C192.417 263.341 192.254 262.796 191.927 262.344C191.608 261.886 191.184 261.583 190.656 261.437C190.316 261.347 189.687 261.302 188.77 261.302H184.862V266.762ZM199.742 274.775L195.689 259.499H197.762L200.086 269.513C200.336 270.562 200.551 271.604 200.732 272.639C201.121 271.006 201.35 270.065 201.42 269.815L204.327 259.499H206.765L208.953 267.231C209.502 269.148 209.898 270.951 210.141 272.639C210.336 271.673 210.589 270.565 210.902 269.315L213.298 259.499H215.33L211.141 274.775H209.193L205.973 263.136C205.702 262.163 205.543 261.566 205.494 261.344C205.334 262.045 205.185 262.643 205.046 263.136L201.805 274.775H199.742ZM217.164 274.775V259.499H220.207L223.823 270.315C224.156 271.323 224.399 272.076 224.552 272.576C224.726 272.021 224.996 271.204 225.365 270.128L229.022 259.499H231.742V274.775H229.793V261.99L225.354 274.775H223.531L219.113 261.771V274.775H217.164ZM240.942 274.775V259.499H246.205C247.392 259.499 248.299 259.572 248.924 259.718C249.799 259.92 250.546 260.284 251.164 260.812C251.97 261.493 252.571 262.365 252.967 263.428C253.37 264.484 253.571 265.692 253.571 267.054C253.571 268.214 253.436 269.242 253.165 270.138C252.894 271.034 252.547 271.778 252.123 272.368C251.699 272.952 251.234 273.413 250.727 273.754C250.227 274.087 249.619 274.341 248.903 274.514C248.195 274.688 247.378 274.775 246.455 274.775H240.942ZM242.964 272.972H246.225C247.233 272.972 248.021 272.879 248.591 272.691C249.167 272.503 249.626 272.239 249.966 271.899C250.445 271.42 250.817 270.777 251.081 269.971C251.352 269.159 251.487 268.176 251.487 267.023C251.487 265.425 251.223 264.199 250.695 263.344C250.174 262.483 249.539 261.906 248.789 261.615C248.247 261.406 247.375 261.302 246.173 261.302H242.964V272.972ZM262.668 274.775H260.792V262.823C260.341 263.254 259.747 263.685 259.011 264.115C258.281 264.546 257.625 264.869 257.041 265.084V263.271C258.09 262.778 259.007 262.181 259.792 261.479C260.577 260.778 261.133 260.097 261.459 259.437H262.668V274.775ZM267.482 267.241C267.482 265.435 267.666 263.983 268.034 262.886C268.409 261.781 268.962 260.93 269.691 260.333C270.427 259.736 271.351 259.437 272.463 259.437C273.282 259.437 274.001 259.604 274.62 259.937C275.238 260.264 275.748 260.739 276.151 261.365C276.554 261.983 276.87 262.74 277.1 263.636C277.329 264.525 277.443 265.727 277.443 267.241C277.443 269.034 277.259 270.482 276.891 271.586C276.523 272.684 275.971 273.535 275.234 274.139C274.505 274.737 273.581 275.035 272.463 275.035C270.99 275.035 269.833 274.508 268.993 273.452C267.986 272.18 267.482 270.11 267.482 267.241ZM269.41 267.241C269.41 269.749 269.701 271.42 270.285 272.253C270.875 273.08 271.601 273.493 272.463 273.493C273.324 273.493 274.047 273.077 274.63 272.243C275.221 271.409 275.516 269.742 275.516 267.241C275.516 264.727 275.221 263.056 274.63 262.229C274.047 261.403 273.317 260.989 272.442 260.989C271.58 260.989 270.893 261.354 270.379 262.084C269.733 263.014 269.41 264.734 269.41 267.241Z" fill="black"/>
<path d="M182.841 294.525V279.249H188.603C189.617 279.249 190.392 279.298 190.927 279.395C191.677 279.52 192.306 279.76 192.813 280.114C193.32 280.462 193.726 280.951 194.032 281.583C194.345 282.216 194.501 282.91 194.501 283.667C194.501 284.966 194.088 286.067 193.261 286.971C192.434 287.867 190.941 288.315 188.78 288.315H184.862V294.525H182.841ZM184.862 286.512H188.812C190.118 286.512 191.045 286.269 191.594 285.783C192.142 285.296 192.417 284.612 192.417 283.73C192.417 283.091 192.254 282.546 191.927 282.094C191.608 281.636 191.184 281.333 190.656 281.187C190.316 281.097 189.687 281.052 188.77 281.052H184.862V286.512ZM199.742 294.525L195.689 279.249H197.762L200.086 289.263C200.336 290.312 200.551 291.354 200.732 292.389C201.121 290.756 201.35 289.815 201.42 289.565L204.327 279.249H206.765L208.953 286.981C209.502 288.898 209.898 290.701 210.141 292.389C210.336 291.423 210.589 290.315 210.902 289.065L213.298 279.249H215.33L211.141 294.525H209.193L205.973 282.886C205.702 281.913 205.543 281.316 205.494 281.094C205.334 281.795 205.185 282.393 205.046 282.886L201.805 294.525H199.742ZM217.164 294.525V279.249H220.207L223.823 290.065C224.156 291.073 224.399 291.826 224.552 292.326C224.726 291.771 224.996 290.954 225.365 289.878L229.022 279.249H231.742V294.525H229.793V281.74L225.354 294.525H223.531L219.113 281.521V294.525H217.164ZM252.821 294.525V279.249H258.083C259.271 279.249 260.178 279.322 260.803 279.468C261.678 279.67 262.425 280.034 263.043 280.562C263.849 281.243 264.45 282.115 264.846 283.178C265.249 284.234 265.45 285.442 265.45 286.804C265.45 287.964 265.315 288.992 265.044 289.888C264.773 290.784 264.425 291.528 264.002 292.118C263.578 292.702 263.113 293.163 262.605 293.504C262.105 293.837 261.497 294.091 260.782 294.264C260.073 294.438 259.257 294.525 258.333 294.525H252.821ZM254.843 292.722H258.104C259.111 292.722 259.9 292.629 260.469 292.441C261.046 292.253 261.504 291.989 261.845 291.649C262.324 291.17 262.696 290.527 262.96 289.721C263.231 288.909 263.366 287.926 263.366 286.773C263.366 285.175 263.102 283.949 262.574 283.094C262.053 282.233 261.418 281.656 260.667 281.365C260.126 281.156 259.254 281.052 258.052 281.052H254.843V292.722ZM267.763 290.993L269.566 290.826C269.719 291.673 270.011 292.288 270.441 292.67C270.872 293.052 271.424 293.243 272.098 293.243C272.675 293.243 273.178 293.111 273.609 292.847C274.047 292.583 274.404 292.233 274.682 291.795C274.96 291.35 275.193 290.753 275.38 290.003C275.568 289.253 275.662 288.488 275.662 287.71C275.662 287.627 275.658 287.502 275.651 287.335C275.276 287.933 274.762 288.419 274.109 288.794C273.463 289.162 272.761 289.346 272.004 289.346C270.74 289.346 269.67 288.888 268.795 287.971C267.92 287.054 267.482 285.845 267.482 284.345C267.482 282.796 267.937 281.549 268.847 280.604C269.764 279.659 270.91 279.187 272.286 279.187C273.279 279.187 274.185 279.454 275.005 279.989C275.832 280.524 276.457 281.288 276.881 282.282C277.311 283.268 277.527 284.699 277.527 286.575C277.527 288.527 277.315 290.083 276.891 291.243C276.467 292.396 275.835 293.275 274.995 293.879C274.161 294.483 273.182 294.785 272.056 294.785C270.862 294.785 269.886 294.456 269.128 293.796C268.371 293.129 267.916 292.194 267.763 290.993ZM275.443 284.251C275.443 283.174 275.155 282.32 274.578 281.688C274.008 281.056 273.321 280.739 272.515 280.739C271.681 280.739 270.955 281.08 270.337 281.761C269.719 282.441 269.41 283.324 269.41 284.407C269.41 285.38 269.701 286.172 270.285 286.783C270.875 287.387 271.601 287.69 272.463 287.69C273.331 287.69 274.043 287.387 274.599 286.783C275.161 286.172 275.443 285.328 275.443 284.251Z" fill="black"/>
<path d="M252.821 314.275V298.999H258.083C259.271 298.999 260.178 299.072 260.803 299.218C261.678 299.42 262.425 299.784 263.043 300.312C263.849 300.993 264.45 301.865 264.846 302.928C265.249 303.984 265.45 305.192 265.45 306.554C265.45 307.714 265.315 308.742 265.044 309.638C264.773 310.534 264.425 311.277 264.002 311.868C263.578 312.451 263.113 312.913 262.605 313.254C262.105 313.587 261.497 313.841 260.782 314.014C260.073 314.188 259.257 314.275 258.333 314.275H252.821ZM254.843 312.472H258.104C259.111 312.472 259.9 312.379 260.469 312.191C261.046 312.003 261.504 311.739 261.845 311.399C262.324 310.92 262.696 310.277 262.96 309.471C263.231 308.659 263.366 307.676 263.366 306.523C263.366 304.925 263.102 303.699 262.574 302.844C262.053 301.983 261.418 301.406 260.667 301.115C260.126 300.906 259.254 300.802 258.052 300.802H254.843V312.472ZM270.368 305.991C269.59 305.706 269.014 305.3 268.639 304.772C268.263 304.244 268.076 303.612 268.076 302.876C268.076 301.764 268.475 300.83 269.274 300.073C270.073 299.315 271.136 298.937 272.463 298.937C273.796 298.937 274.87 299.326 275.682 300.104C276.495 300.875 276.902 301.816 276.902 302.928C276.902 303.636 276.714 304.254 276.339 304.782C275.971 305.303 275.408 305.706 274.651 305.991C275.589 306.297 276.301 306.79 276.787 307.471C277.28 308.152 277.527 308.964 277.527 309.909C277.527 311.215 277.065 312.313 276.141 313.202C275.217 314.091 274.001 314.535 272.494 314.535C270.987 314.535 269.771 314.091 268.847 313.202C267.923 312.306 267.461 311.191 267.461 309.857C267.461 308.864 267.711 308.033 268.211 307.367C268.718 306.693 269.437 306.234 270.368 305.991ZM269.993 302.813C269.993 303.535 270.226 304.126 270.691 304.584C271.157 305.043 271.761 305.272 272.504 305.272C273.227 305.272 273.817 305.046 274.276 304.595C274.741 304.136 274.974 303.577 274.974 302.917C274.974 302.23 274.734 301.653 274.255 301.188C273.783 300.715 273.192 300.479 272.484 300.479C271.768 300.479 271.174 300.708 270.702 301.167C270.229 301.625 269.993 302.174 269.993 302.813ZM269.389 309.867C269.389 310.402 269.514 310.92 269.764 311.42C270.021 311.92 270.4 312.309 270.9 312.587C271.4 312.858 271.938 312.993 272.515 312.993C273.411 312.993 274.151 312.705 274.734 312.128C275.318 311.552 275.61 310.819 275.61 309.93C275.61 309.027 275.307 308.28 274.703 307.69C274.106 307.099 273.355 306.804 272.452 306.804C271.57 306.804 270.837 307.096 270.254 307.679C269.677 308.263 269.389 308.992 269.389 309.867Z" fill="black"/>
<path d="M252.821 353.775V338.499H258.083C259.271 338.499 260.178 338.572 260.803 338.718C261.678 338.92 262.425 339.284 263.043 339.812C263.849 340.493 264.45 341.365 264.846 342.428C265.249 343.484 265.45 344.692 265.45 346.054C265.45 347.214 265.315 348.242 265.044 349.138C264.773 350.034 264.425 350.778 264.002 351.368C263.578 351.952 263.113 352.413 262.605 352.754C262.105 353.087 261.497 353.341 260.782 353.514C260.073 353.688 259.257 353.775 258.333 353.775H252.821ZM254.843 351.972H258.104C259.111 351.972 259.9 351.879 260.469 351.691C261.046 351.503 261.504 351.239 261.845 350.899C262.324 350.42 262.696 349.777 262.96 348.971C263.231 348.159 263.366 347.176 263.366 346.023C263.366 344.425 263.102 343.199 262.574 342.344C262.053 341.483 261.418 340.906 260.667 340.615C260.126 340.406 259.254 340.302 258.052 340.302H254.843V351.972ZM267.607 340.5V338.697H277.496V340.156C276.523 341.191 275.557 342.567 274.599 344.282C273.647 345.998 272.911 347.763 272.39 349.576C272.015 350.854 271.775 352.254 271.671 353.775H269.743C269.764 352.573 270 351.121 270.452 349.419C270.903 347.718 271.549 346.078 272.39 344.501C273.237 342.917 274.137 341.584 275.089 340.5H267.607Z" fill="black"/>
<path d="M182.841 373.525V358.249H188.603C189.617 358.249 190.392 358.298 190.927 358.395C191.677 358.52 192.306 358.76 192.813 359.114C193.32 359.462 193.726 359.951 194.032 360.583C194.345 361.216 194.501 361.91 194.501 362.667C194.501 363.966 194.088 365.068 193.261 365.971C192.434 366.867 190.941 367.315 188.78 367.315H184.862V373.525H182.841ZM184.862 365.512H188.812C190.118 365.512 191.045 365.269 191.594 364.783C192.142 364.296 192.417 363.612 192.417 362.73C192.417 362.091 192.254 361.546 191.927 361.094C191.608 360.636 191.184 360.333 190.656 360.188C190.316 360.097 189.687 360.052 188.77 360.052H184.862V365.512ZM199.742 373.525L195.689 358.249H197.762L200.086 368.263C200.336 369.312 200.551 370.354 200.732 371.389C201.121 369.756 201.35 368.815 201.42 368.565L204.327 358.249H206.765L208.953 365.981C209.502 367.898 209.898 369.701 210.141 371.389C210.336 370.423 210.589 369.315 210.902 368.065L213.298 358.249H215.33L211.141 373.525H209.193L205.973 361.886C205.702 360.913 205.543 360.316 205.494 360.094C205.334 360.795 205.185 361.393 205.046 361.886L201.805 373.525H199.742ZM217.164 373.525V358.249H220.207L223.823 369.065C224.156 370.073 224.399 370.826 224.552 371.326C224.726 370.771 224.996 369.954 225.365 368.878L229.022 358.249H231.742V373.525H229.793V360.74L225.354 373.525H223.531L219.113 360.521V373.525H217.164ZM252.821 373.525V358.249H258.083C259.271 358.249 260.178 358.322 260.803 358.468C261.678 358.67 262.425 359.034 263.043 359.562C263.849 360.243 264.45 361.115 264.846 362.178C265.249 363.234 265.45 364.442 265.45 365.804C265.45 366.964 265.315 367.992 265.044 368.888C264.773 369.784 264.425 370.528 264.002 371.118C263.578 371.702 263.113 372.163 262.605 372.504C262.105 372.837 261.497 373.091 260.782 373.265C260.073 373.438 259.257 373.525 258.333 373.525H252.821ZM254.843 371.722H258.104C259.111 371.722 259.9 371.629 260.469 371.441C261.046 371.253 261.504 370.99 261.845 370.649C262.324 370.17 262.696 369.527 262.96 368.721C263.231 367.909 263.366 366.926 263.366 365.773C263.366 364.175 263.102 362.949 262.574 362.094C262.053 361.233 261.418 360.656 260.667 360.365C260.126 360.156 259.254 360.052 258.052 360.052H254.843V371.722ZM277.214 361.99L275.349 362.136C275.182 361.4 274.946 360.865 274.64 360.531C274.133 359.996 273.508 359.729 272.765 359.729C272.167 359.729 271.643 359.896 271.191 360.229C270.601 360.66 270.136 361.289 269.795 362.115C269.455 362.942 269.278 364.119 269.264 365.648C269.715 364.96 270.268 364.449 270.921 364.116C271.574 363.782 272.258 363.616 272.973 363.616C274.224 363.616 275.287 364.078 276.162 365.002C277.044 365.918 277.485 367.106 277.485 368.565C277.485 369.524 277.277 370.416 276.86 371.243C276.45 372.063 275.884 372.691 275.161 373.129C274.439 373.567 273.619 373.786 272.702 373.786C271.139 373.786 269.865 373.212 268.878 372.066C267.892 370.913 267.399 369.017 267.399 366.377C267.399 363.425 267.944 361.278 269.035 359.937C269.986 358.77 271.268 358.187 272.88 358.187C274.081 358.187 275.064 358.524 275.828 359.198C276.599 359.871 277.061 360.802 277.214 361.99ZM269.556 368.576C269.556 369.222 269.691 369.84 269.962 370.43C270.24 371.021 270.625 371.472 271.119 371.785C271.612 372.091 272.129 372.243 272.671 372.243C273.463 372.243 274.144 371.924 274.713 371.285C275.283 370.646 275.568 369.777 275.568 368.68C275.568 367.624 275.287 366.794 274.724 366.189C274.161 365.578 273.453 365.272 272.598 365.272C271.751 365.272 271.032 365.578 270.441 366.189C269.851 366.794 269.556 367.589 269.556 368.576Z" fill="black"/>
<path d="M182.841 393.275V377.999H188.603C189.617 377.999 190.392 378.048 190.927 378.145C191.677 378.27 192.306 378.51 192.813 378.864C193.32 379.212 193.726 379.701 194.032 380.333C194.345 380.966 194.501 381.66 194.501 382.417C194.501 383.716 194.088 384.817 193.261 385.721C192.434 386.617 190.941 387.065 188.78 387.065H184.862V393.275H182.841ZM184.862 385.262H188.812C190.118 385.262 191.045 385.019 191.594 384.533C192.142 384.046 192.417 383.362 192.417 382.48C192.417 381.841 192.254 381.296 191.927 380.844C191.608 380.386 191.184 380.083 190.656 379.937C190.316 379.847 189.687 379.802 188.77 379.802H184.862V385.262ZM199.742 393.275L195.689 377.999H197.762L200.086 388.013C200.336 389.062 200.551 390.104 200.732 391.139C201.121 389.506 201.35 388.565 201.42 388.315L204.327 377.999H206.765L208.953 385.731C209.502 387.648 209.898 389.451 210.141 391.139C210.336 390.173 210.589 389.065 210.902 387.815L213.298 377.999H215.33L211.141 393.275H209.193L205.973 381.636C205.702 380.663 205.543 380.066 205.494 379.844C205.334 380.545 205.185 381.143 205.046 381.636L201.805 393.275H199.742ZM217.164 393.275V377.999H220.207L223.823 388.815C224.156 389.823 224.399 390.576 224.552 391.076C224.726 390.521 224.996 389.704 225.365 388.628L229.022 377.999H231.742V393.275H229.793V380.49L225.354 393.275H223.531L219.113 380.271V393.275H217.164ZM252.821 393.275V377.999H258.083C259.271 377.999 260.178 378.072 260.803 378.218C261.678 378.42 262.425 378.784 263.043 379.312C263.849 379.993 264.45 380.865 264.846 381.928C265.249 382.984 265.45 384.192 265.45 385.554C265.45 386.714 265.315 387.742 265.044 388.638C264.773 389.534 264.425 390.278 264.002 390.868C263.578 391.452 263.113 391.913 262.605 392.254C262.105 392.587 261.497 392.841 260.782 393.014C260.073 393.188 259.257 393.275 258.333 393.275H252.821ZM254.843 391.472H258.104C259.111 391.472 259.9 391.379 260.469 391.191C261.046 391.003 261.504 390.739 261.845 390.399C262.324 389.92 262.696 389.277 262.96 388.471C263.231 387.659 263.366 386.676 263.366 385.523C263.366 383.925 263.102 382.699 262.574 381.844C262.053 380.983 261.418 380.406 260.667 380.115C260.126 379.906 259.254 379.802 258.052 379.802H254.843V391.472ZM267.482 389.274L269.451 389.107C269.597 390.066 269.934 390.788 270.462 391.274C270.997 391.754 271.64 391.993 272.39 391.993C273.293 391.993 274.057 391.653 274.682 390.972C275.307 390.291 275.62 389.388 275.62 388.263C275.62 387.193 275.318 386.349 274.713 385.731C274.116 385.113 273.331 384.804 272.359 384.804C271.754 384.804 271.209 384.943 270.723 385.22C270.236 385.491 269.854 385.846 269.576 386.283L267.815 386.054L269.295 378.208H276.891V380H270.796L269.972 384.105C270.889 383.466 271.851 383.147 272.859 383.147C274.192 383.147 275.318 383.609 276.235 384.533C277.152 385.457 277.61 386.644 277.61 388.096C277.61 389.479 277.207 390.673 276.401 391.681C275.422 392.917 274.085 393.535 272.39 393.535C271 393.535 269.865 393.146 268.982 392.368C268.107 391.59 267.607 390.559 267.482 389.274Z" fill="black"/>
<path d="M252.821 413.025V397.749H258.083C259.271 397.749 260.178 397.822 260.803 397.968C261.678 398.17 262.425 398.534 263.043 399.062C263.849 399.743 264.45 400.615 264.846 401.678C265.249 402.734 265.45 403.942 265.45 405.304C265.45 406.464 265.315 407.492 265.044 408.388C264.773 409.284 264.425 410.028 264.002 410.618C263.578 411.202 263.113 411.663 262.605 412.004C262.105 412.337 261.497 412.591 260.782 412.764C260.073 412.938 259.257 413.025 258.333 413.025H252.821ZM254.843 411.222H258.104C259.111 411.222 259.9 411.129 260.469 410.941C261.046 410.753 261.504 410.489 261.845 410.149C262.324 409.67 262.696 409.027 262.96 408.221C263.231 407.409 263.366 406.426 263.366 405.273C263.366 403.675 263.102 402.449 262.574 401.594C262.053 400.733 261.418 400.156 260.667 399.865C260.126 399.656 259.254 399.552 258.052 399.552H254.843V411.222ZM273.494 413.025V409.368H266.867V407.648L273.838 397.749H275.37V407.648H277.433V409.368H275.37V413.025H273.494ZM273.494 407.648V400.761L268.712 407.648H273.494Z" fill="black"/>
<path d="M182.841 432.775V417.499H188.603C189.617 417.499 190.392 417.548 190.927 417.645C191.677 417.77 192.306 418.01 192.813 418.364C193.32 418.712 193.726 419.201 194.032 419.833C194.345 420.466 194.501 421.16 194.501 421.917C194.501 423.216 194.088 424.317 193.261 425.221C192.434 426.117 190.941 426.565 188.78 426.565H184.862V432.775H182.841ZM184.862 424.762H188.812C190.118 424.762 191.045 424.519 191.594 424.033C192.142 423.546 192.417 422.862 192.417 421.98C192.417 421.341 192.254 420.796 191.927 420.344C191.608 419.886 191.184 419.583 190.656 419.437C190.316 419.347 189.687 419.302 188.77 419.302H184.862V424.762ZM199.742 432.775L195.689 417.499H197.762L200.086 427.513C200.336 428.562 200.551 429.604 200.732 430.639C201.121 429.006 201.35 428.065 201.42 427.815L204.327 417.499H206.765L208.953 425.231C209.502 427.148 209.898 428.951 210.141 430.639C210.336 429.673 210.589 428.565 210.902 427.315L213.298 417.499H215.33L211.141 432.775H209.193L205.973 421.136C205.702 420.163 205.543 419.566 205.494 419.344C205.334 420.045 205.185 420.643 205.046 421.136L201.805 432.775H199.742ZM217.164 432.775V417.499H220.207L223.823 428.315C224.156 429.323 224.399 430.076 224.552 430.576C224.726 430.021 224.996 429.204 225.365 428.128L229.022 417.499H231.742V432.775H229.793V419.99L225.354 432.775H223.531L219.113 419.771V432.775H217.164ZM252.821 432.775V417.499H258.083C259.271 417.499 260.178 417.572 260.803 417.718C261.678 417.92 262.425 418.284 263.043 418.812C263.849 419.493 264.45 420.365 264.846 421.428C265.249 422.484 265.45 423.692 265.45 425.054C265.45 426.214 265.315 427.242 265.044 428.138C264.773 429.034 264.425 429.778 264.002 430.368C263.578 430.952 263.113 431.413 262.605 431.754C262.105 432.087 261.497 432.341 260.782 432.514C260.073 432.688 259.257 432.775 258.333 432.775H252.821ZM254.843 430.972H258.104C259.111 430.972 259.9 430.879 260.469 430.691C261.046 430.503 261.504 430.239 261.845 429.899C262.324 429.42 262.696 428.777 262.96 427.971C263.231 427.159 263.366 426.176 263.366 425.023C263.366 423.425 263.102 422.199 262.574 421.344C262.053 420.483 261.418 419.906 260.667 419.615C260.126 419.406 259.254 419.302 258.052 419.302H254.843V430.972ZM267.492 428.742L269.368 428.492C269.583 429.555 269.948 430.323 270.462 430.795C270.983 431.261 271.615 431.493 272.359 431.493C273.241 431.493 273.984 431.188 274.588 430.576C275.2 429.965 275.505 429.208 275.505 428.305C275.505 427.443 275.224 426.735 274.661 426.179C274.099 425.617 273.383 425.335 272.515 425.335C272.161 425.335 271.719 425.405 271.191 425.544L271.4 423.897C271.525 423.911 271.626 423.918 271.702 423.918C272.501 423.918 273.22 423.71 273.859 423.293C274.498 422.876 274.818 422.234 274.818 421.365C274.818 420.677 274.585 420.108 274.119 419.656C273.654 419.205 273.053 418.979 272.317 418.979C271.587 418.979 270.98 419.208 270.493 419.667C270.007 420.125 269.694 420.813 269.556 421.73L267.68 421.396C267.909 420.139 268.43 419.167 269.243 418.479C270.056 417.784 271.066 417.437 272.275 417.437C273.109 417.437 273.876 417.617 274.578 417.979C275.28 418.333 275.814 418.819 276.183 419.437C276.558 420.056 276.745 420.712 276.745 421.407C276.745 422.067 276.568 422.668 276.214 423.21C275.86 423.751 275.335 424.182 274.64 424.502C275.544 424.71 276.245 425.144 276.745 425.804C277.245 426.457 277.496 427.277 277.496 428.263C277.496 429.597 277.009 430.729 276.037 431.66C275.064 432.584 273.835 433.046 272.348 433.046C271.007 433.046 269.892 432.646 269.003 431.848C268.121 431.049 267.617 430.014 267.492 428.742Z" fill="black"/>
<path d="M252.821 452.525V437.249H258.083C259.271 437.249 260.178 437.322 260.803 437.468C261.678 437.67 262.425 438.034 263.043 438.562C263.849 439.243 264.45 440.115 264.846 441.178C265.249 442.234 265.45 443.442 265.45 444.804C265.45 445.964 265.315 446.992 265.044 447.888C264.773 448.784 264.425 449.527 264.002 450.118C263.578 450.701 263.113 451.163 262.605 451.504C262.105 451.837 261.497 452.091 260.782 452.264C260.073 452.438 259.257 452.525 258.333 452.525H252.821ZM254.843 450.722H258.104C259.111 450.722 259.9 450.629 260.469 450.441C261.046 450.253 261.504 449.989 261.845 449.649C262.324 449.17 262.696 448.527 262.96 447.721C263.231 446.909 263.366 445.926 263.366 444.773C263.366 443.175 263.102 441.949 262.574 441.094C262.053 440.233 261.418 439.656 260.667 439.365C260.126 439.156 259.254 439.052 258.052 439.052H254.843V450.722ZM277.339 450.722V452.525H267.242C267.228 452.073 267.301 451.639 267.461 451.222C267.718 450.535 268.128 449.857 268.691 449.191C269.26 448.524 270.08 447.753 271.15 446.877C272.81 445.516 273.932 444.439 274.515 443.647C275.099 442.848 275.391 442.095 275.391 441.386C275.391 440.643 275.123 440.018 274.588 439.51C274.06 438.996 273.369 438.739 272.515 438.739C271.612 438.739 270.889 439.01 270.347 439.552C269.806 440.094 269.531 440.844 269.524 441.803L267.597 441.605C267.729 440.167 268.225 439.073 269.087 438.323C269.948 437.565 271.105 437.187 272.556 437.187C274.022 437.187 275.182 437.593 276.037 438.406C276.891 439.219 277.318 440.226 277.318 441.428C277.318 442.039 277.193 442.64 276.943 443.23C276.693 443.821 276.276 444.443 275.693 445.096C275.116 445.749 274.154 446.645 272.807 447.784C271.681 448.729 270.959 449.371 270.639 449.712C270.32 450.045 270.056 450.382 269.847 450.722H277.339Z" fill="black"/>
<path d="M211.61 472.275V458.802H206.578V456.999H218.685V458.802H213.632V472.275H211.61ZM219.217 472.275L225.125 464.314L219.915 456.999H222.322L225.094 460.917C225.67 461.73 226.08 462.355 226.323 462.793C226.664 462.237 227.067 461.657 227.532 461.053L230.606 456.999H232.804L227.438 464.2L233.221 472.275H230.72L226.876 466.825C226.66 466.513 226.438 466.172 226.209 465.804C225.868 466.36 225.625 466.742 225.479 466.95L221.645 472.275H219.217ZM252.821 472.275V456.999H258.083C259.271 456.999 260.178 457.072 260.803 457.218C261.678 457.42 262.425 457.784 263.043 458.312C263.849 458.993 264.45 459.865 264.846 460.928C265.249 461.984 265.45 463.192 265.45 464.554C265.45 465.714 265.315 466.742 265.044 467.638C264.773 468.534 264.425 469.278 264.002 469.868C263.578 470.452 263.113 470.913 262.605 471.254C262.105 471.587 261.497 471.841 260.782 472.014C260.073 472.188 259.257 472.275 258.333 472.275H252.821ZM254.843 470.472H258.104C259.111 470.472 259.9 470.379 260.469 470.191C261.046 470.003 261.504 469.739 261.845 469.399C262.324 468.92 262.696 468.277 262.96 467.471C263.231 466.659 263.366 465.676 263.366 464.523C263.366 462.925 263.102 461.699 262.574 460.844C262.053 459.983 261.418 459.406 260.667 459.115C260.126 458.906 259.254 458.802 258.052 458.802H254.843V470.472ZM274.547 472.275H272.671V460.323C272.22 460.754 271.626 461.185 270.889 461.615C270.16 462.046 269.503 462.369 268.92 462.584V460.771C269.969 460.278 270.886 459.681 271.671 458.979C272.456 458.278 273.011 457.597 273.338 456.937H274.547V472.275Z" fill="black"/>
<path d="M205.379 492.025V476.749H212.152C213.514 476.749 214.549 476.888 215.257 477.166C215.966 477.437 216.532 477.92 216.956 478.615C217.38 479.309 217.591 480.077 217.591 480.917C217.591 482.001 217.241 482.915 216.539 483.658C215.837 484.401 214.754 484.873 213.288 485.075C213.823 485.332 214.229 485.585 214.507 485.836C215.098 486.377 215.657 487.055 216.185 487.867L218.842 492.025H216.299L214.278 488.847C213.687 487.93 213.201 487.228 212.819 486.742C212.437 486.256 212.093 485.915 211.788 485.721C211.489 485.526 211.183 485.391 210.871 485.315C210.641 485.266 210.266 485.242 209.745 485.242H207.401V492.025H205.379ZM207.401 483.491H211.746C212.67 483.491 213.392 483.397 213.913 483.21C214.434 483.015 214.83 482.71 215.101 482.293C215.372 481.869 215.507 481.411 215.507 480.917C215.507 480.195 215.243 479.601 214.716 479.136C214.195 478.67 213.368 478.437 212.236 478.437H207.401V483.491ZM219.217 492.025L225.125 484.064L219.915 476.749H222.322L225.094 480.667C225.67 481.48 226.08 482.105 226.323 482.543C226.664 481.987 227.067 481.407 227.532 480.803L230.606 476.749H232.804L227.438 483.95L233.221 492.025H230.721L226.876 486.575C226.66 486.263 226.438 485.922 226.209 485.554C225.868 486.11 225.625 486.492 225.479 486.7L221.645 492.025H219.217ZM252.821 492.025V476.749H258.083C259.271 476.749 260.178 476.822 260.803 476.968C261.678 477.17 262.425 477.534 263.043 478.062C263.849 478.743 264.45 479.615 264.846 480.678C265.249 481.734 265.45 482.942 265.45 484.304C265.45 485.464 265.315 486.492 265.044 487.388C264.773 488.284 264.425 489.028 264.002 489.618C263.578 490.202 263.113 490.663 262.605 491.004C262.105 491.337 261.497 491.591 260.782 491.764C260.073 491.938 259.257 492.025 258.333 492.025H252.821ZM254.843 490.222H258.104C259.111 490.222 259.9 490.129 260.469 489.941C261.046 489.753 261.504 489.489 261.845 489.149C262.324 488.67 262.696 488.027 262.96 487.221C263.231 486.409 263.366 485.426 263.366 484.273C263.366 482.675 263.102 481.449 262.574 480.594C262.053 479.733 261.418 479.156 260.667 478.865C260.126 478.656 259.254 478.552 258.052 478.552H254.843V490.222ZM267.482 484.491C267.482 482.685 267.666 481.233 268.034 480.136C268.409 479.031 268.962 478.18 269.691 477.583C270.427 476.986 271.351 476.687 272.463 476.687C273.282 476.687 274.001 476.854 274.62 477.187C275.238 477.514 275.748 477.989 276.151 478.615C276.554 479.233 276.87 479.99 277.1 480.886C277.329 481.775 277.443 482.977 277.443 484.491C277.443 486.284 277.259 487.732 276.891 488.836C276.523 489.934 275.971 490.785 275.234 491.389C274.505 491.987 273.581 492.285 272.463 492.285C270.99 492.285 269.833 491.758 268.993 490.702C267.986 489.43 267.482 487.36 267.482 484.491ZM269.41 484.491C269.41 486.999 269.701 488.67 270.285 489.503C270.875 490.33 271.601 490.743 272.463 490.743C273.324 490.743 274.047 490.327 274.63 489.493C275.221 488.659 275.516 486.992 275.516 484.491C275.516 481.977 275.221 480.306 274.63 479.479C274.047 478.653 273.317 478.239 272.442 478.239C271.58 478.239 270.893 478.604 270.379 479.334C269.733 480.264 269.41 481.984 269.41 484.491Z" fill="black"/>
<path d="M167.875 158C171.825 175.775 197.5 175.775 197.5 158C197.5 140.225 171.825 140.225 167.875 158Z" stroke="black" stroke-width="3.88" stroke-linecap="square"/>
<path d="M167.875 158C163.925 140.225 138.25 140.225 138.25 158C138.25 175.775 163.925 175.775 167.875 158Z" stroke="black" stroke-width="3.88" stroke-linecap="square"/>
<path d="M179.725 158H187.625" stroke="black" stroke-width="3.88" stroke-linecap="square"/>
<path d="M183.675 161.95V154.05" stroke="black" stroke-width="3.88" stroke-linecap="square"/>
<path d="M156.025 158H148.125" stroke="black" stroke-width="3.88" stroke-linecap="square"/>
<path d="M474 487.825C476.182 487.825 477.95 486.057 477.95 483.875C477.95 481.693 476.182 479.925 474 479.925C471.819 479.925 470.05 481.693 470.05 483.875C470.05 486.057 471.819 487.825 474 487.825Z" fill="black" stroke="black" stroke-width="3.88"/>
<path d="M711 389.075C713.182 389.075 714.95 387.307 714.95 385.125C714.95 382.943 713.182 381.175 711 381.175C708.819 381.175 707.05 382.943 707.05 385.125C707.05 387.307 708.819 389.075 711 389.075Z" fill="black" stroke="black" stroke-width="3.88"/>
<path d="M711 152.075C713.182 152.075 714.95 150.307 714.95 148.125C714.95 145.943 713.182 144.175 711 144.175C708.819 144.175 707.05 145.943 707.05 148.125C707.05 150.307 708.819 152.075 711 152.075Z" fill="black" stroke="black" stroke-width="3.88"/>
<path d="M711 270.575C713.182 270.575 714.95 268.807 714.95 266.625C714.95 264.443 713.182 262.675 711 262.675C708.819 262.675 707.05 264.443 707.05 266.625C707.05 268.807 708.819 270.575 711 270.575Z" fill="black" stroke="black" stroke-width="3.88"/>
</svg>
