<svg width="790" height="553" viewBox="0 0 790 553" fill="none" xmlns="http://www.w3.org/2000/svg">
<rect width="790" height="553" fill="white"/>
<path d="M434.5 493.75H493.75" stroke="black" stroke-width="3.95" stroke-linecap="square"/>
<path d="M474 454.25V493.75" stroke="black" stroke-width="3.95" stroke-linecap="square"/>
<path d="M296.25 454.25H474" stroke="black" stroke-width="3.95" stroke-linecap="square"/>
<path d="M711 395V493.75" stroke="black" stroke-width="3.95" stroke-linecap="square"/>
<path d="M651.75 493.75H711" stroke="black" stroke-width="3.95" stroke-linecap="square"/>
<path d="M493.75 493.75H553" stroke="black" stroke-width="3.95" stroke-linecap="square"/>
<path d="M553 493.75H562.875" stroke="black" stroke-width="3.95" stroke-linecap="square"/>
<path d="M641.875 493.75H651.75" stroke="black" stroke-width="3.95" stroke-linecap="square"/>
<path d="M562.875 493.75H566.825L572.75 479.925L584.6 507.575L596.45 479.925L608.3 507.575L620.15 479.925L632 507.575L637.925 493.75H641.875" stroke="black" stroke-width="3.95" stroke-linecap="square"/>
<path d="M581.573 464.375H579.663V452.208C579.204 452.646 578.599 453.085 577.85 453.523C577.107 453.962 576.439 454.29 575.845 454.51V452.664C576.912 452.162 577.846 451.554 578.645 450.839C579.444 450.125 580.01 449.432 580.342 448.76H581.573V464.375ZM586.474 456.705C586.474 454.867 586.661 453.389 587.036 452.271C587.418 451.147 587.98 450.281 588.723 449.672C589.472 449.064 590.413 448.76 591.544 448.76C592.379 448.76 593.111 448.93 593.74 449.269C594.37 449.602 594.889 450.086 595.3 450.723C595.71 451.352 596.031 452.123 596.265 453.035C596.498 453.94 596.615 455.164 596.615 456.705C596.615 458.53 596.427 460.005 596.053 461.129C595.678 462.246 595.116 463.113 594.366 463.728C593.623 464.336 592.683 464.64 591.544 464.64C590.045 464.64 588.868 464.103 588.012 463.028C586.986 461.734 586.474 459.626 586.474 456.705ZM588.436 456.705C588.436 459.258 588.733 460.959 589.327 461.808C589.928 462.649 590.667 463.07 591.544 463.07C592.421 463.07 593.157 462.646 593.751 461.797C594.352 460.949 594.652 459.251 594.652 456.705C594.652 454.145 594.352 452.445 593.751 451.603C593.157 450.762 592.414 450.341 591.523 450.341C590.646 450.341 589.946 450.712 589.423 451.455C588.765 452.402 588.436 454.153 588.436 456.705ZM605.154 464.375V448.824H607.064V457.692L611.583 453.109H614.054L609.747 457.289L614.489 464.375H612.134L608.411 458.615L607.064 459.909V464.375H605.154ZM619.836 462.678C619.072 462.204 618.488 461.744 618.085 461.299C617.47 460.62 616.996 459.824 616.664 458.912C616.331 457.993 616.165 456.978 616.165 455.867C616.165 454.481 616.445 453.208 617.003 452.049C617.569 450.882 618.386 449.987 619.454 449.365C620.529 448.742 621.759 448.431 623.145 448.431C625.521 448.431 627.346 449.329 628.619 451.126C629.545 452.441 630.009 454.025 630.009 455.878C630.009 457.066 629.818 458.12 629.436 459.039C629.054 459.952 628.555 460.736 627.94 461.394C627.565 461.804 627.038 462.232 626.359 462.678L630.221 462.614V464.375H624.121V462.497C624.687 462.215 625.125 461.939 625.437 461.67C625.946 461.239 626.377 460.726 626.731 460.132C627.084 459.538 627.35 458.905 627.526 458.233C627.71 457.561 627.802 456.861 627.802 456.133C627.802 455.157 627.625 454.177 627.272 453.194C626.925 452.204 626.395 451.451 625.681 450.935C624.973 450.419 624.114 450.16 623.103 450.16C621.752 450.16 620.705 450.585 619.963 451.433C618.93 452.629 618.414 454.184 618.414 456.101C618.414 457.635 618.736 458.954 619.379 460.058C620.023 461.154 620.911 461.956 622.042 462.466V464.375H615.921V462.593L619.836 462.678Z" fill="black"/>
<path d="M296.25 493.75H375.25" stroke="black" stroke-width="3.95" stroke-linecap="square"/>
<path d="M375.25 493.75H377.225" stroke="black" stroke-width="3.95" stroke-linecap="square"/>
<path d="M432.525 493.75H434.5" stroke="black" stroke-width="3.95" stroke-linecap="square"/>
<path d="M383.15 499.675C386.422 499.675 389.075 497.022 389.075 493.75C389.075 490.478 386.422 487.825 383.15 487.825C379.878 487.825 377.225 490.478 377.225 493.75C377.225 497.022 379.878 499.675 383.15 499.675Z" stroke="black" stroke-width="3.95"/>
<path d="M426.6 499.675C429.872 499.675 432.525 497.022 432.525 493.75C432.525 490.478 429.872 487.825 426.6 487.825C423.328 487.825 420.675 490.478 420.675 493.75C420.675 497.022 423.328 499.675 426.6 499.675Z" stroke="black" stroke-width="3.95"/>
<path d="M389.075 489.8L422.65 477.95" stroke="black" stroke-width="3.95" stroke-linecap="square"/>
<path d="M711 59.25V158" stroke="black" stroke-width="3.95" stroke-linecap="square"/>
<path d="M316 59.25H711" stroke="black" stroke-width="3.95" stroke-linecap="square"/>
<path d="M316 59.25V197.5" stroke="black" stroke-width="3.95" stroke-linecap="square"/>
<path d="M296.25 197.5H316" stroke="black" stroke-width="3.95" stroke-linecap="square"/>
<path d="M651.75 158H711" stroke="black" stroke-width="3.95" stroke-linecap="square"/>
<path d="M651.75 276.5H711" stroke="black" stroke-width="3.95" stroke-linecap="square"/>
<path d="M651.75 395H711" stroke="black" stroke-width="3.95" stroke-linecap="square"/>
<path d="M711 158V395" stroke="black" stroke-width="3.95" stroke-linecap="square"/>
<path d="M493.75 276.5H553" stroke="black" stroke-width="3.95" stroke-linecap="square"/>
<path d="M493.75 395H553" stroke="black" stroke-width="3.95" stroke-linecap="square"/>
<path d="M493.75 158H553" stroke="black" stroke-width="3.95" stroke-linecap="square"/>
<path d="M553 395H562.875" stroke="black" stroke-width="3.95" stroke-linecap="square"/>
<path d="M641.875 395H651.75" stroke="black" stroke-width="3.95" stroke-linecap="square"/>
<path d="M562.875 395H566.825L572.75 381.175L584.6 408.825L596.45 381.175L608.3 408.825L620.15 381.175L632 408.825L637.925 395H641.875" stroke="black" stroke-width="3.95" stroke-linecap="square"/>
<path d="M572.356 361.52L574.265 361.265C574.484 362.347 574.856 363.129 575.379 363.609C575.909 364.083 576.553 364.32 577.309 364.32C578.208 364.32 578.964 364.009 579.58 363.387C580.202 362.764 580.513 361.994 580.513 361.074C580.513 360.197 580.227 359.476 579.654 358.91C579.081 358.337 578.353 358.051 577.469 358.051C577.108 358.051 576.659 358.122 576.121 358.263L576.334 356.587C576.461 356.601 576.563 356.608 576.641 356.608C577.454 356.608 578.186 356.396 578.837 355.972C579.488 355.547 579.813 354.893 579.813 354.009C579.813 353.309 579.576 352.729 579.102 352.27C578.628 351.81 578.017 351.58 577.267 351.58C576.525 351.58 575.906 351.814 575.411 352.28C574.916 352.747 574.597 353.447 574.456 354.381L572.547 354.041C572.78 352.761 573.31 351.771 574.138 351.071C574.965 350.364 575.994 350.01 577.225 350.01C578.073 350.01 578.855 350.194 579.569 350.562C580.283 350.922 580.828 351.417 581.203 352.047C581.584 352.676 581.775 353.345 581.775 354.052C581.775 354.724 581.595 355.335 581.234 355.887C580.874 356.439 580.34 356.877 579.633 357.202C580.552 357.414 581.266 357.856 581.775 358.528C582.285 359.193 582.539 360.028 582.539 361.032C582.539 362.39 582.044 363.542 581.054 364.49C580.064 365.431 578.812 365.901 577.299 365.901C575.934 365.901 574.799 365.494 573.894 364.681C572.996 363.868 572.483 362.814 572.356 361.52ZM585.509 365.625V363.45H587.684V365.625H585.509ZM590.495 361.52L592.405 361.265C592.624 362.347 592.995 363.129 593.518 363.609C594.049 364.083 594.692 364.32 595.449 364.32C596.347 364.32 597.104 364.009 597.719 363.387C598.341 362.764 598.653 361.994 598.653 361.074C598.653 360.197 598.366 359.476 597.793 358.91C597.221 358.337 596.492 358.051 595.608 358.051C595.247 358.051 594.798 358.122 594.261 358.263L594.473 356.587C594.6 356.601 594.703 356.608 594.781 356.608C595.594 356.608 596.326 356.396 596.977 355.972C597.627 355.547 597.952 354.893 597.952 354.009C597.952 353.309 597.716 352.729 597.242 352.27C596.768 351.81 596.156 351.58 595.407 351.58C594.664 351.58 594.045 351.814 593.55 352.28C593.055 352.747 592.737 353.447 592.595 354.381L590.686 354.041C590.919 352.761 591.45 351.771 592.277 351.071C593.105 350.364 594.134 350.01 595.364 350.01C596.213 350.01 596.994 350.194 597.709 350.562C598.423 350.922 598.967 351.417 599.342 352.047C599.724 352.676 599.915 353.345 599.915 354.052C599.915 354.724 599.735 355.335 599.374 355.887C599.013 356.439 598.479 356.877 597.772 357.202C598.692 357.414 599.406 357.856 599.915 358.528C600.424 359.193 600.679 360.028 600.679 361.032C600.679 362.39 600.184 363.542 599.194 364.49C598.204 365.431 596.952 365.901 595.438 365.901C594.074 365.901 592.938 365.494 592.033 364.681C591.135 363.868 590.622 362.814 590.495 361.52ZM609.165 365.625V350.074H611.074V358.942L615.593 354.359H618.065L613.758 358.539L618.5 365.625H616.145L612.422 359.865L611.074 361.159V365.625H609.165ZM623.846 363.928C623.083 363.454 622.499 362.994 622.096 362.549C621.481 361.87 621.007 361.074 620.675 360.162C620.342 359.243 620.176 358.228 620.176 357.117C620.176 355.731 620.455 354.458 621.014 353.299C621.58 352.132 622.397 351.237 623.465 350.615C624.539 349.992 625.77 349.681 627.156 349.681C629.532 349.681 631.357 350.579 632.63 352.376C633.556 353.691 634.019 355.275 634.019 357.128C634.019 358.316 633.828 359.37 633.447 360.289C633.065 361.202 632.566 361.986 631.951 362.644C631.576 363.054 631.049 363.482 630.37 363.928L634.232 363.864V365.625H628.132V363.747C628.698 363.465 629.136 363.189 629.447 362.92C629.957 362.489 630.388 361.976 630.742 361.382C631.095 360.788 631.36 360.155 631.537 359.483C631.721 358.811 631.813 358.111 631.813 357.383C631.813 356.407 631.636 355.427 631.283 354.444C630.936 353.454 630.406 352.701 629.691 352.185C628.984 351.669 628.125 351.41 627.114 351.41C625.763 351.41 624.716 351.835 623.974 352.683C622.941 353.879 622.425 355.434 622.425 357.351C622.425 358.885 622.747 360.204 623.39 361.308C624.034 362.404 624.921 363.206 626.053 363.716V365.625H619.932V363.843L623.846 363.928Z" fill="black"/>
<path d="M553 276.5H562.875" stroke="black" stroke-width="3.95" stroke-linecap="square"/>
<path d="M641.875 276.5H651.75" stroke="black" stroke-width="3.95" stroke-linecap="square"/>
<path d="M562.875 276.5H566.825L572.75 262.675L584.6 290.325L596.45 262.675L608.3 290.325L620.15 262.675L632 290.325L637.925 276.5H641.875" stroke="black" stroke-width="3.95" stroke-linecap="square"/>
<path d="M572.356 243.02L574.265 242.765C574.484 243.847 574.856 244.629 575.379 245.109C575.909 245.583 576.553 245.82 577.309 245.82C578.208 245.82 578.964 245.509 579.58 244.887C580.202 244.264 580.513 243.494 580.513 242.574C580.513 241.697 580.227 240.976 579.654 240.41C579.081 239.837 578.353 239.551 577.469 239.551C577.108 239.551 576.659 239.622 576.121 239.763L576.334 238.087C576.461 238.101 576.563 238.108 576.641 238.108C577.454 238.108 578.186 237.896 578.837 237.472C579.488 237.047 579.813 236.393 579.813 235.509C579.813 234.809 579.576 234.229 579.102 233.77C578.628 233.31 578.017 233.08 577.267 233.08C576.525 233.08 575.906 233.314 575.411 233.78C574.916 234.247 574.597 234.947 574.456 235.881L572.547 235.541C572.78 234.261 573.31 233.271 574.138 232.571C574.965 231.864 575.994 231.51 577.225 231.51C578.073 231.51 578.855 231.694 579.569 232.062C580.283 232.422 580.828 232.917 581.203 233.547C581.584 234.176 581.775 234.845 581.775 235.552C581.775 236.224 581.595 236.835 581.234 237.387C580.874 237.939 580.34 238.377 579.633 238.702C580.552 238.914 581.266 239.356 581.775 240.028C582.285 240.693 582.539 241.528 582.539 242.532C582.539 243.89 582.044 245.042 581.054 245.99C580.064 246.931 578.812 247.401 577.299 247.401C575.934 247.401 574.799 246.994 573.894 246.181C572.996 245.368 572.483 244.314 572.356 243.02ZM585.509 247.125V244.95H587.684V247.125H585.509ZM590.495 243.02L592.405 242.765C592.624 243.847 592.995 244.629 593.518 245.109C594.049 245.583 594.692 245.82 595.449 245.82C596.347 245.82 597.104 245.509 597.719 244.887C598.341 244.264 598.653 243.494 598.653 242.574C598.653 241.697 598.366 240.976 597.793 240.41C597.221 239.837 596.492 239.551 595.608 239.551C595.247 239.551 594.798 239.622 594.261 239.763L594.473 238.087C594.6 238.101 594.703 238.108 594.781 238.108C595.594 238.108 596.326 237.896 596.977 237.472C597.627 237.047 597.952 236.393 597.952 235.509C597.952 234.809 597.716 234.229 597.242 233.77C596.768 233.31 596.156 233.08 595.407 233.08C594.664 233.08 594.045 233.314 593.55 233.78C593.055 234.247 592.737 234.947 592.595 235.881L590.686 235.541C590.919 234.261 591.45 233.271 592.277 232.571C593.105 231.864 594.134 231.51 595.364 231.51C596.213 231.51 596.994 231.694 597.709 232.062C598.423 232.422 598.967 232.917 599.342 233.547C599.724 234.176 599.915 234.845 599.915 235.552C599.915 236.224 599.735 236.835 599.374 237.387C599.013 237.939 598.479 238.377 597.772 238.702C598.692 238.914 599.406 239.356 599.915 240.028C600.424 240.693 600.679 241.528 600.679 242.532C600.679 243.89 600.184 245.042 599.194 245.99C598.204 246.931 596.952 247.401 595.438 247.401C594.074 247.401 592.938 246.994 592.033 246.181C591.135 245.368 590.622 244.314 590.495 243.02ZM609.165 247.125V231.574H611.074V240.442L615.593 235.859H618.065L613.758 240.039L618.5 247.125H616.145L612.422 241.365L611.074 242.659V247.125H609.165ZM623.846 245.428C623.083 244.954 622.499 244.494 622.096 244.049C621.481 243.37 621.007 242.574 620.675 241.662C620.342 240.743 620.176 239.728 620.176 238.617C620.176 237.231 620.455 235.958 621.014 234.799C621.58 233.632 622.397 232.737 623.465 232.115C624.539 231.492 625.77 231.181 627.156 231.181C629.532 231.181 631.357 232.079 632.63 233.876C633.556 235.191 634.019 236.775 634.019 238.628C634.019 239.816 633.828 240.87 633.447 241.789C633.065 242.702 632.566 243.486 631.951 244.144C631.576 244.554 631.049 244.982 630.37 245.428L634.232 245.364V247.125H628.132V245.247C628.698 244.965 629.136 244.689 629.447 244.42C629.957 243.989 630.388 243.476 630.742 242.882C631.095 242.288 631.36 241.655 631.537 240.983C631.721 240.311 631.813 239.611 631.813 238.883C631.813 237.907 631.636 236.927 631.283 235.944C630.936 234.954 630.406 234.201 629.691 233.685C628.984 233.169 628.125 232.91 627.114 232.91C625.763 232.91 624.716 233.335 623.974 234.183C622.941 235.379 622.425 236.934 622.425 238.851C622.425 240.385 622.747 241.704 623.39 242.808C624.034 243.904 624.921 244.706 626.053 245.216V247.125H619.932V245.343L623.846 245.428Z" fill="black"/>
<path d="M553 158H562.875" stroke="black" stroke-width="3.95" stroke-linecap="square"/>
<path d="M641.875 158H651.75" stroke="black" stroke-width="3.95" stroke-linecap="square"/>
<path d="M562.875 158H566.825L572.75 144.175L584.6 171.825L596.45 144.175L608.3 171.825L620.15 144.175L632 171.825L637.925 158H641.875" stroke="black" stroke-width="3.95" stroke-linecap="square"/>
<path d="M572.356 124.52L574.265 124.265C574.484 125.347 574.856 126.129 575.379 126.609C575.909 127.083 576.553 127.32 577.309 127.32C578.208 127.32 578.964 127.009 579.58 126.387C580.202 125.764 580.513 124.994 580.513 124.074C580.513 123.197 580.227 122.476 579.654 121.91C579.081 121.337 578.353 121.051 577.469 121.051C577.108 121.051 576.659 121.122 576.121 121.263L576.334 119.587C576.461 119.601 576.563 119.608 576.641 119.608C577.454 119.608 578.186 119.396 578.837 118.972C579.488 118.547 579.813 117.893 579.813 117.009C579.813 116.309 579.576 115.729 579.102 115.27C578.628 114.81 578.017 114.58 577.267 114.58C576.525 114.58 575.906 114.814 575.411 115.28C574.916 115.747 574.597 116.447 574.456 117.381L572.547 117.041C572.78 115.761 573.31 114.771 574.138 114.071C574.965 113.364 575.994 113.01 577.225 113.01C578.073 113.01 578.855 113.194 579.569 113.562C580.283 113.922 580.828 114.417 581.203 115.047C581.584 115.676 581.775 116.345 581.775 117.052C581.775 117.724 581.595 118.335 581.234 118.887C580.874 119.439 580.34 119.877 579.633 120.202C580.552 120.414 581.266 120.856 581.775 121.528C582.285 122.193 582.539 123.028 582.539 124.032C582.539 125.39 582.044 126.542 581.054 127.49C580.064 128.431 578.812 128.901 577.299 128.901C575.934 128.901 574.799 128.494 573.894 127.681C572.996 126.868 572.483 125.814 572.356 124.52ZM585.509 128.625V126.45H587.684V128.625H585.509ZM590.495 124.52L592.405 124.265C592.624 125.347 592.995 126.129 593.518 126.609C594.049 127.083 594.692 127.32 595.449 127.32C596.347 127.32 597.104 127.009 597.719 126.387C598.341 125.764 598.653 124.994 598.653 124.074C598.653 123.197 598.366 122.476 597.793 121.91C597.221 121.337 596.492 121.051 595.608 121.051C595.247 121.051 594.798 121.122 594.261 121.263L594.473 119.587C594.6 119.601 594.703 119.608 594.781 119.608C595.594 119.608 596.326 119.396 596.977 118.972C597.627 118.547 597.952 117.893 597.952 117.009C597.952 116.309 597.716 115.729 597.242 115.27C596.768 114.81 596.156 114.58 595.407 114.58C594.664 114.58 594.045 114.814 593.55 115.28C593.055 115.747 592.737 116.447 592.595 117.381L590.686 117.041C590.919 115.761 591.45 114.771 592.277 114.071C593.105 113.364 594.134 113.01 595.364 113.01C596.213 113.01 596.994 113.194 597.709 113.562C598.423 113.922 598.967 114.417 599.342 115.047C599.724 115.676 599.915 116.345 599.915 117.052C599.915 117.724 599.735 118.335 599.374 118.887C599.013 119.439 598.479 119.877 597.772 120.202C598.692 120.414 599.406 120.856 599.915 121.528C600.424 122.193 600.679 123.028 600.679 124.032C600.679 125.39 600.184 126.542 599.194 127.49C598.204 128.431 596.952 128.901 595.438 128.901C594.074 128.901 592.938 128.494 592.033 127.681C591.135 126.868 590.622 125.814 590.495 124.52ZM609.165 128.625V113.074H611.074V121.942L615.593 117.359H618.065L613.758 121.539L618.5 128.625H616.145L612.422 122.865L611.074 124.159V128.625H609.165ZM623.846 126.928C623.083 126.454 622.499 125.994 622.096 125.549C621.481 124.87 621.007 124.074 620.675 123.162C620.342 122.243 620.176 121.228 620.176 120.117C620.176 118.731 620.455 117.458 621.014 116.299C621.58 115.132 622.397 114.237 623.465 113.615C624.539 112.992 625.77 112.681 627.156 112.681C629.532 112.681 631.357 113.579 632.63 115.376C633.556 116.691 634.019 118.275 634.019 120.128C634.019 121.316 633.828 122.37 633.447 123.289C633.065 124.202 632.566 124.986 631.951 125.644C631.576 126.054 631.049 126.482 630.37 126.928L634.232 126.864V128.625H628.132V126.747C628.698 126.465 629.136 126.189 629.447 125.92C629.957 125.489 630.388 124.976 630.742 124.382C631.095 123.788 631.36 123.155 631.537 122.483C631.721 121.811 631.813 121.111 631.813 120.383C631.813 119.407 631.636 118.427 631.283 117.444C630.936 116.454 630.406 115.701 629.691 115.185C628.984 114.669 628.125 114.41 627.114 114.41C625.763 114.41 624.716 114.835 623.974 115.683C622.941 116.879 622.425 118.434 622.425 120.351C622.425 121.885 622.747 123.204 623.39 124.308C624.034 125.404 624.921 126.206 626.053 126.716V128.625H619.932V126.843L623.846 126.928Z" fill="black"/>
<path d="M355.5 158H434.5" stroke="black" stroke-width="3.95" stroke-linecap="square"/>
<path d="M355.5 158V237" stroke="black" stroke-width="3.95" stroke-linecap="square"/>
<path d="M296.25 237H355.5" stroke="black" stroke-width="3.95" stroke-linecap="square"/>
<path d="M296.25 276.5H434.5" stroke="black" stroke-width="3.95" stroke-linecap="square"/>
<path d="M355.5 395H434.5" stroke="black" stroke-width="3.95" stroke-linecap="square"/>
<path d="M355.5 316V395" stroke="black" stroke-width="3.95" stroke-linecap="square"/>
<path d="M296.25 316H355.5" stroke="black" stroke-width="3.95" stroke-linecap="square"/>
<path d="M434.5 158H493.75" stroke="black" stroke-width="3.95" stroke-linecap="square"/>
<path d="M477.95 142.2V173.8V142.2ZM477.95 158L448.325 173.8V142.2L477.95 158Z" stroke="black" stroke-width="3.95" stroke-linecap="square"/>
<path d="M487.825 118.5L479.925 122.45L483.875 126.4L487.825 118.5ZM487.825 118.5L479.925 122.45M470.05 136.275L485.85 120.475L470.05 136.275Z" stroke="black" stroke-width="3.95" stroke-linecap="square"/>
<path d="M499.675 132.325L491.775 136.275L495.725 140.225L499.675 132.325ZM499.675 132.325L491.775 136.275M481.9 150.1L497.7 134.3L481.9 150.1Z" stroke="black" stroke-width="3.95" stroke-linecap="square"/>
<path d="M434.5 276.5H493.75" stroke="black" stroke-width="3.95" stroke-linecap="square"/>
<path d="M477.95 260.7V292.3V260.7ZM477.95 276.5L448.325 292.3V260.7L477.95 276.5Z" stroke="black" stroke-width="3.95" stroke-linecap="square"/>
<path d="M487.825 237L479.925 240.95L483.875 244.9L487.825 237ZM487.825 237L479.925 240.95M470.05 254.775L485.85 238.975L470.05 254.775Z" stroke="black" stroke-width="3.95" stroke-linecap="square"/>
<path d="M499.675 250.825L491.775 254.775L495.725 258.725L499.675 250.825ZM499.675 250.825L491.775 254.775M481.9 268.6L497.7 252.8L481.9 268.6Z" stroke="black" stroke-width="3.95" stroke-linecap="square"/>
<path d="M434.5 395H493.75" stroke="black" stroke-width="3.95" stroke-linecap="square"/>
<path d="M477.95 379.2V410.8V379.2ZM477.95 395L448.325 410.8V379.2L477.95 395Z" stroke="black" stroke-width="3.95" stroke-linecap="square"/>
<path d="M487.825 355.5L479.925 359.45L483.875 363.4L487.825 355.5ZM487.825 355.5L479.925 359.45M470.05 373.275L485.85 357.475L470.05 373.275Z" stroke="black" stroke-width="3.95" stroke-linecap="square"/>
<path d="M499.675 369.325L491.775 373.275L495.725 377.225L499.675 369.325ZM499.675 369.325L491.775 373.275M481.9 387.1L497.7 371.3L481.9 387.1Z" stroke="black" stroke-width="3.95" stroke-linecap="square"/>
<path d="M286.375 128.375H49.375V513.5H286.375V128.375Z" stroke="black" stroke-width="3.95"/>
<path d="M120.443 185.9L126.415 170.349H128.632L134.997 185.9H132.653L130.839 181.19H124.336L122.628 185.9H120.443ZM124.93 179.514H130.202L128.579 175.207C128.084 173.899 127.717 172.824 127.476 171.982C127.278 172.98 126.999 173.97 126.638 174.953L124.93 179.514ZM136.673 185.9V170.349H143.568C144.955 170.349 146.008 170.49 146.73 170.773C147.451 171.049 148.027 171.54 148.459 172.248C148.89 172.955 149.106 173.736 149.106 174.592C149.106 175.695 148.749 176.625 148.034 177.382C147.32 178.139 146.217 178.619 144.725 178.825C145.269 179.086 145.683 179.344 145.966 179.599C146.567 180.151 147.136 180.84 147.674 181.667L150.379 185.9H147.79L145.732 182.665C145.131 181.731 144.636 181.017 144.247 180.522C143.858 180.027 143.508 179.68 143.197 179.482C142.893 179.284 142.582 179.146 142.264 179.068C142.03 179.019 141.648 178.994 141.118 178.994H138.731V185.9H136.673ZM138.731 177.212H143.155C144.095 177.212 144.831 177.117 145.361 176.926C145.892 176.728 146.295 176.417 146.57 175.992C146.846 175.561 146.984 175.094 146.984 174.592C146.984 173.856 146.715 173.252 146.178 172.778C145.648 172.304 144.806 172.067 143.653 172.067H138.731V177.212ZM152.341 185.9V170.349H157.698C158.907 170.349 159.83 170.423 160.467 170.572C161.358 170.777 162.118 171.148 162.748 171.685C163.568 172.378 164.18 173.266 164.583 174.348C164.993 175.423 165.198 176.653 165.198 178.04C165.198 179.221 165.06 180.267 164.784 181.179C164.508 182.092 164.155 182.848 163.723 183.45C163.292 184.044 162.818 184.514 162.302 184.86C161.793 185.2 161.174 185.458 160.446 185.635C159.724 185.812 158.893 185.9 157.953 185.9H152.341ZM154.399 184.065H157.719C158.745 184.065 159.547 183.969 160.127 183.778C160.714 183.587 161.181 183.319 161.528 182.972C162.016 182.484 162.394 181.83 162.663 181.01C162.938 180.182 163.076 179.182 163.076 178.008C163.076 176.381 162.808 175.133 162.27 174.263C161.74 173.386 161.093 172.799 160.329 172.502C159.777 172.29 158.89 172.184 157.666 172.184H154.399V184.065ZM178.246 170.349H180.304V179.334C180.304 180.897 180.127 182.138 179.773 183.057C179.42 183.976 178.78 184.726 177.853 185.306C176.934 185.879 175.725 186.165 174.225 186.165C172.768 186.165 171.577 185.914 170.65 185.412C169.724 184.91 169.063 184.185 168.667 183.237C168.271 182.283 168.073 180.981 168.073 179.334V170.349H170.131V179.323C170.131 180.674 170.254 181.671 170.502 182.315C170.756 182.951 171.188 183.442 171.796 183.789C172.411 184.136 173.161 184.309 174.045 184.309C175.558 184.309 176.637 183.966 177.28 183.28C177.924 182.594 178.246 181.275 178.246 179.323V170.349ZM184.091 185.9V170.349H186.149V185.9H184.091ZM189.766 185.9V170.349H191.877L200.045 182.559V170.349H202.018V185.9H199.907L191.739 173.68V185.9H189.766ZM204.861 178.326C204.861 175.745 205.554 173.726 206.94 172.269C208.326 170.805 210.115 170.073 212.308 170.073C213.743 170.073 215.037 170.416 216.19 171.102C217.343 171.788 218.22 172.746 218.821 173.977C219.429 175.2 219.733 176.59 219.733 178.146C219.733 179.723 219.415 181.134 218.778 182.378C218.142 183.623 217.24 184.567 216.073 185.21C214.907 185.847 213.648 186.165 212.297 186.165C210.833 186.165 209.525 185.812 208.372 185.104C207.219 184.397 206.346 183.432 205.752 182.208C205.158 180.985 204.861 179.691 204.861 178.326ZM206.983 178.358C206.983 180.232 207.485 181.71 208.489 182.792C209.5 183.867 210.766 184.404 212.286 184.404C213.835 184.404 215.108 183.86 216.105 182.771C217.11 181.682 217.612 180.136 217.612 178.135C217.612 176.869 217.396 175.766 216.965 174.825C216.54 173.878 215.914 173.146 215.087 172.629C214.267 172.106 213.344 171.845 212.318 171.845C210.861 171.845 209.606 172.347 208.552 173.351C207.506 174.348 206.983 176.017 206.983 178.358Z" fill="black"/>
<path d="M146.181 190.099H148.239V199.084C148.239 200.647 148.062 201.888 147.708 202.807C147.355 203.726 146.715 204.476 145.788 205.056C144.869 205.629 143.66 205.915 142.16 205.915C140.704 205.915 139.512 205.664 138.586 205.162C137.659 204.66 136.998 203.935 136.602 202.987C136.206 202.033 136.008 200.731 136.008 199.084V190.099H138.066V199.073C138.066 200.424 138.19 201.421 138.437 202.065C138.692 202.701 139.123 203.192 139.731 203.539C140.347 203.886 141.096 204.059 141.98 204.059C143.494 204.059 144.572 203.716 145.216 203.03C145.859 202.344 146.181 201.025 146.181 199.073V190.099ZM151.655 205.65V190.099H153.766L161.934 202.309V190.099H163.907V205.65H161.796L153.628 193.43V205.65H151.655ZM166.75 198.076C166.75 195.495 167.443 193.476 168.829 192.019C170.215 190.555 172.004 189.823 174.196 189.823C175.632 189.823 176.926 190.166 178.079 190.852C179.232 191.538 180.108 192.496 180.71 193.727C181.318 194.95 181.622 196.34 181.622 197.896C181.622 199.473 181.304 200.884 180.667 202.128C180.031 203.373 179.129 204.317 177.962 204.96C176.795 205.597 175.536 205.915 174.186 205.915C172.722 205.915 171.414 205.562 170.261 204.854C169.108 204.147 168.235 203.182 167.641 201.958C167.047 200.735 166.75 199.441 166.75 198.076ZM168.871 198.108C168.871 199.982 169.373 201.46 170.378 202.542C171.389 203.617 172.655 204.154 174.175 204.154C175.724 204.154 176.997 203.61 177.994 202.521C178.998 201.432 179.5 199.886 179.5 197.885C179.5 196.619 179.285 195.516 178.853 194.575C178.429 193.628 177.803 192.896 176.976 192.379C176.155 191.856 175.232 191.595 174.207 191.595C172.75 191.595 171.495 192.097 170.441 193.101C169.395 194.098 168.871 195.767 168.871 198.108ZM190.066 205.65V194.384H191.784V196.092C192.223 195.293 192.626 194.766 192.994 194.512C193.368 194.257 193.779 194.13 194.224 194.13C194.868 194.13 195.522 194.335 196.187 194.745L195.529 196.517C195.062 196.241 194.595 196.103 194.129 196.103C193.711 196.103 193.337 196.23 193.004 196.485C192.672 196.732 192.435 197.079 192.293 197.524C192.081 198.203 191.975 198.946 191.975 199.752V205.65H190.066ZM196.802 201.545L198.711 201.29C198.93 202.372 199.302 203.154 199.825 203.634C200.355 204.108 200.999 204.345 201.756 204.345C202.654 204.345 203.411 204.034 204.026 203.412C204.648 202.789 204.959 202.019 204.959 201.099C204.959 200.222 204.673 199.501 204.1 198.935C203.527 198.362 202.799 198.076 201.915 198.076C201.554 198.076 201.105 198.147 200.568 198.288L200.78 196.612C200.907 196.626 201.01 196.633 201.087 196.633C201.901 196.633 202.633 196.421 203.283 195.997C203.934 195.572 204.259 194.918 204.259 194.034C204.259 193.334 204.022 192.754 203.548 192.295C203.075 191.835 202.463 191.605 201.713 191.605C200.971 191.605 200.352 191.838 199.857 192.305C199.362 192.772 199.044 193.472 198.902 194.406L196.993 194.066C197.226 192.786 197.757 191.796 198.584 191.096C199.411 190.389 200.44 190.035 201.671 190.035C202.519 190.035 203.301 190.219 204.015 190.587C204.729 190.947 205.274 191.442 205.649 192.072C206.031 192.701 206.222 193.37 206.222 194.077C206.222 194.749 206.041 195.36 205.681 195.912C205.32 196.464 204.786 196.902 204.079 197.227C204.998 197.439 205.712 197.881 206.222 198.553C206.731 199.218 206.985 200.053 206.985 201.057C206.985 202.415 206.49 203.567 205.5 204.515C204.51 205.456 203.258 205.926 201.745 205.926C200.38 205.926 199.245 205.519 198.34 204.706C197.442 203.893 196.929 202.839 196.802 201.545Z" fill="black"/>
<path d="M39.5 237H49.375" stroke="black" stroke-width="3.95" stroke-linecap="square"/>
<path d="M39.5 256.75H49.375" stroke="black" stroke-width="3.95" stroke-linecap="square"/>
<path d="M39.5 276.5H49.375" stroke="black" stroke-width="3.95" stroke-linecap="square"/>
<path d="M39.5 296.25H49.375" stroke="black" stroke-width="3.95" stroke-linecap="square"/>
<path d="M39.5 316H49.375" stroke="black" stroke-width="3.95" stroke-linecap="square"/>
<path d="M39.5 335.75H49.375" stroke="black" stroke-width="3.95" stroke-linecap="square"/>
<path d="M39.5 355.5H49.375" stroke="black" stroke-width="3.95" stroke-linecap="square"/>
<path d="M39.5 395H49.375" stroke="black" stroke-width="3.95" stroke-linecap="square"/>
<path d="M39.5 414.75H49.375" stroke="black" stroke-width="3.95" stroke-linecap="square"/>
<path d="M39.5 434.5H49.375" stroke="black" stroke-width="3.95" stroke-linecap="square"/>
<path d="M39.5 454.25H49.375" stroke="black" stroke-width="3.95" stroke-linecap="square"/>
<path d="M39.5 474H49.375" stroke="black" stroke-width="3.95" stroke-linecap="square"/>
<path d="M39.5 493.75H49.375" stroke="black" stroke-width="3.95" stroke-linecap="square"/>
<path d="M286.375 177.75H296.25" stroke="black" stroke-width="3.95" stroke-linecap="square"/>
<path d="M286.375 197.5H296.25" stroke="black" stroke-width="3.95" stroke-linecap="square"/>
<path d="M286.375 217.25H296.25" stroke="black" stroke-width="3.95" stroke-linecap="square"/>
<path d="M286.375 237H296.25" stroke="black" stroke-width="3.95" stroke-linecap="square"/>
<path d="M286.375 256.75H296.25" stroke="black" stroke-width="3.95" stroke-linecap="square"/>
<path d="M286.375 276.5H296.25" stroke="black" stroke-width="3.95" stroke-linecap="square"/>
<path d="M286.375 296.25H296.25" stroke="black" stroke-width="3.95" stroke-linecap="square"/>
<path d="M286.375 316H296.25" stroke="black" stroke-width="3.95" stroke-linecap="square"/>
<path d="M286.375 355.5H296.25" stroke="black" stroke-width="3.95" stroke-linecap="square"/>
<path d="M286.375 375.25H296.25" stroke="black" stroke-width="3.95" stroke-linecap="square"/>
<path d="M286.375 395H296.25" stroke="black" stroke-width="3.95" stroke-linecap="square"/>
<path d="M286.375 414.75H296.25" stroke="black" stroke-width="3.95" stroke-linecap="square"/>
<path d="M286.375 434.5H296.25" stroke="black" stroke-width="3.95" stroke-linecap="square"/>
<path d="M286.375 454.25H296.25" stroke="black" stroke-width="3.95" stroke-linecap="square"/>
<path d="M286.375 474H296.25" stroke="black" stroke-width="3.95" stroke-linecap="square"/>
<path d="M286.375 493.75H296.25" stroke="black" stroke-width="3.95" stroke-linecap="square"/>
<path d="M59.3011 235.275V219.724H61.359V235.275H59.3011ZM64.3717 227.701C64.3717 225.12 65.0647 223.101 66.4508 221.644C67.8369 220.18 69.6261 219.448 71.8184 219.448C73.254 219.448 74.5482 219.791 75.7009 220.477C76.8537 221.163 77.7306 222.121 78.3317 223.352C78.9399 224.575 79.244 225.965 79.244 227.521C79.244 229.098 78.9257 230.509 78.2893 231.753C77.6528 232.998 76.7511 233.942 75.5842 234.585C74.4174 235.222 73.1586 235.54 71.8078 235.54C70.3439 235.54 69.0356 235.187 67.8829 234.479C66.7302 233.772 65.8568 232.807 65.2628 231.583C64.6687 230.36 64.3717 229.066 64.3717 227.701ZM66.4933 227.733C66.4933 229.607 66.9954 231.085 67.9996 232.167C69.0109 233.242 70.2768 233.779 71.7972 233.779C73.346 233.779 74.6189 233.235 75.6161 232.146C76.6203 231.057 77.1224 229.511 77.1224 227.51C77.1224 226.244 76.9067 225.141 76.4753 224.2C76.051 223.253 75.4251 222.521 74.5977 222.004C73.7774 221.481 72.8545 221.22 71.829 221.22C70.3722 221.22 69.117 221.722 68.0632 222.726C67.0166 223.723 66.4933 225.392 66.4933 227.733ZM81.9384 235.275V219.724H88.8335C90.2196 219.724 91.2733 219.865 91.9947 220.148C92.716 220.424 93.2924 220.915 93.7238 221.623C94.1552 222.33 94.3709 223.111 94.3709 223.967C94.3709 225.07 94.0137 226 93.2995 226.757C92.5852 227.514 91.482 227.994 89.9898 228.2C90.5343 228.461 90.948 228.719 91.2309 228.974C91.832 229.526 92.4013 230.215 92.9388 231.042L95.6438 235.275H93.0555L90.9975 232.04C90.3964 231.106 89.9014 230.392 89.5124 229.897C89.1235 229.402 88.7734 229.055 88.4623 228.857C88.1582 228.659 87.847 228.521 87.5288 228.443C87.2954 228.394 86.9135 228.369 86.3831 228.369H83.9963V235.275H81.9384ZM83.9963 226.587H88.4198C89.3604 226.587 90.0959 226.492 90.6263 226.301C91.1567 226.103 91.5598 225.792 91.8356 225.367C92.1114 224.936 92.2493 224.469 92.2493 223.967C92.2493 223.231 91.9805 222.627 91.4431 222.153C90.9127 221.679 90.0711 221.442 88.9184 221.442H83.9963V226.587ZM97.6487 235.275V219.724H108.893V221.559H99.7066V226.322H108.31V228.146H99.7066V233.44H109.254V235.275H97.6487ZM112.203 235.275V219.724H122.694V221.559H114.261V226.375H121.559V228.21H114.261V235.275H112.203Z" fill="black"/>
<path d="M58.9829 255.025V239.474H65.878C67.2641 239.474 68.3178 239.615 69.0392 239.898C69.7605 240.174 70.3369 240.665 70.7683 241.373C71.1996 242.08 71.4153 242.861 71.4153 243.717C71.4153 244.82 71.0582 245.75 70.3439 246.507C69.6297 247.264 68.5265 247.744 67.0343 247.95C67.5788 248.211 67.9925 248.469 68.2754 248.724C68.8765 249.276 69.4458 249.965 69.9833 250.792L72.6883 255.025H70.1L68.042 251.79C67.4409 250.856 66.9459 250.142 66.5569 249.647C66.168 249.152 65.8179 248.805 65.5067 248.607C65.2026 248.409 64.8915 248.271 64.5732 248.193C64.3399 248.144 63.958 248.119 63.4276 248.119H61.0408V255.025H58.9829ZM61.0408 246.337H65.4643C66.4049 246.337 67.1404 246.242 67.6707 246.051C68.2011 245.853 68.6042 245.542 68.88 245.117C69.1559 244.686 69.2938 244.219 69.2938 243.717C69.2938 242.981 69.025 242.377 68.4876 241.903C67.9572 241.429 67.1156 241.192 65.9629 241.192H61.0408V246.337ZM74.6932 255.025V239.474H85.9376V241.309H76.7511V246.072H85.3541V247.896H76.7511V253.19H86.2982V255.025H74.6932ZM88.441 250.029L90.3823 249.859C90.4742 250.637 90.6864 251.277 91.0188 251.779C91.3582 252.274 91.8815 252.677 92.5887 252.988C93.2959 253.292 94.0915 253.444 94.9755 253.444C95.7605 253.444 96.4535 253.328 97.0547 253.094C97.6558 252.861 98.1013 252.543 98.3913 252.14C98.6883 251.729 98.8368 251.284 98.8368 250.803C98.8368 250.315 98.6953 249.891 98.4125 249.53C98.1296 249.162 97.6628 248.855 97.0122 248.607C96.595 248.445 95.6721 248.193 94.2436 247.854C92.815 247.508 91.8144 247.182 91.2415 246.878C90.499 246.489 89.9438 246.008 89.5761 245.435C89.2154 244.856 89.0351 244.208 89.0351 243.494C89.0351 242.709 89.2578 241.977 89.7034 241.298C90.1489 240.612 90.7995 240.093 91.6552 239.739C92.5109 239.385 93.4621 239.209 94.5088 239.209C95.6615 239.209 96.6763 239.396 97.5532 239.771C98.4372 240.139 99.1161 240.683 99.5899 241.404C100.064 242.126 100.318 242.943 100.354 243.855L98.3806 244.003C98.2746 243.02 97.9139 242.278 97.2986 241.776C96.6905 241.274 95.7888 241.023 94.5936 241.023C93.349 241.023 92.4402 241.252 91.8674 241.712C91.3016 242.165 91.0188 242.713 91.0188 243.356C91.0188 243.915 91.2203 244.375 91.6234 244.735C92.0194 245.096 93.0519 245.467 94.7209 245.849C96.397 246.224 97.5462 246.553 98.1685 246.836C99.0737 247.253 99.742 247.783 100.173 248.427C100.605 249.063 100.82 249.799 100.82 250.633C100.82 251.461 100.584 252.242 100.11 252.978C99.6359 253.706 98.9535 254.275 98.0624 254.686C97.1784 255.089 96.1813 255.29 95.071 255.29C93.6637 255.29 92.4826 255.085 91.5279 254.675C90.5803 254.265 89.8342 253.65 89.2897 252.829C88.7522 252.002 88.4693 251.068 88.441 250.029ZM103.674 255.025V239.474H114.918V241.309H105.732V246.072H114.335V247.896H105.732V253.19H115.279V255.025H103.674ZM122.079 255.025V241.309H116.955V239.474H129.281V241.309H124.137V255.025H122.079Z" fill="black"/>
<path d="M58.1873 270.67L60.0967 270.415C60.3159 271.497 60.6872 272.279 61.2105 272.759C61.7409 273.233 62.3845 273.47 63.1412 273.47C64.0393 273.47 64.796 273.159 65.4113 272.537C66.0336 271.914 66.3448 271.144 66.3448 270.224C66.3448 269.347 66.0583 268.626 65.4855 268.06C64.9127 267.487 64.1843 267.201 63.3003 267.201C62.9396 267.201 62.4905 267.272 61.9531 267.413L62.1652 265.737C62.2925 265.751 62.3951 265.758 62.4729 265.758C63.2861 265.758 64.0181 265.546 64.6687 265.122C65.3193 264.697 65.6446 264.043 65.6446 263.159C65.6446 262.459 65.4077 261.879 64.9339 261.42C64.4601 260.96 63.8484 260.73 63.0987 260.73C62.3562 260.73 61.7374 260.963 61.2424 261.43C60.7473 261.897 60.4291 262.597 60.2876 263.531L58.3782 263.191C58.6116 261.911 59.142 260.921 59.9694 260.221C60.7968 259.514 61.8258 259.16 63.0563 259.16C63.9049 259.16 64.6864 259.344 65.4007 259.712C66.1149 260.072 66.6595 260.567 67.0343 261.197C67.4162 261.826 67.6071 262.495 67.6071 263.202C67.6071 263.874 67.4268 264.485 67.0661 265.037C66.7054 265.589 66.1715 266.027 65.4643 266.352C66.3837 266.564 67.0979 267.006 67.6071 267.678C68.1163 268.343 68.3709 269.178 68.3709 270.182C68.3709 271.54 67.8758 272.692 66.8858 273.64C65.8957 274.581 64.644 275.051 63.1306 275.051C61.7657 275.051 60.6306 274.644 59.7254 273.831C58.8273 273.018 58.3146 271.964 58.1873 270.67ZM71.3411 274.775V272.6H73.5157V274.775H71.3411ZM76.3268 270.67L78.2362 270.415C78.4555 271.497 78.8267 272.279 79.3501 272.759C79.8805 273.233 80.524 273.47 81.2807 273.47C82.1788 273.47 82.9355 273.159 83.5508 272.537C84.1731 271.914 84.4843 271.144 84.4843 270.224C84.4843 269.347 84.1979 268.626 83.625 268.06C83.0522 267.487 82.3238 267.201 81.4398 267.201C81.0791 267.201 80.6301 267.272 80.0926 267.413L80.3048 265.737C80.4321 265.751 80.5346 265.758 80.6124 265.758C81.4257 265.758 82.1576 265.546 82.8082 265.122C83.4589 264.697 83.7842 264.043 83.7842 263.159C83.7842 262.459 83.5473 261.879 83.0734 261.42C82.5996 260.96 81.9879 260.73 81.2383 260.73C80.4957 260.73 79.8769 260.963 79.3819 261.43C78.8868 261.897 78.5686 262.597 78.4272 263.531L76.5177 263.191C76.7511 261.911 77.2815 260.921 78.1089 260.221C78.9363 259.514 79.9653 259.16 81.1958 259.16C82.0445 259.16 82.8259 259.344 83.5402 259.712C84.2544 260.072 84.799 260.567 85.1738 261.197C85.5557 261.826 85.7466 262.495 85.7466 263.202C85.7466 263.874 85.5663 264.485 85.2056 265.037C84.845 265.589 84.311 266.027 83.6038 266.352C84.5232 266.564 85.2374 267.006 85.7466 267.678C86.2558 268.343 86.5104 269.178 86.5104 270.182C86.5104 271.54 86.0154 272.692 85.0253 273.64C84.0352 274.581 82.7835 275.051 81.2701 275.051C79.9052 275.051 78.7702 274.644 77.8649 273.831C76.9668 273.018 76.4541 271.964 76.3268 270.67ZM93.6283 274.775L87.603 259.224H89.8307L93.8723 270.521C94.1976 271.426 94.4699 272.275 94.6891 273.067C94.9295 272.218 95.2089 271.37 95.5271 270.521L99.7279 259.224H101.828L95.7393 274.775H93.6283Z" fill="black"/>
<path d="M58.1767 290.452L60.1816 290.282C60.3301 291.258 60.6731 291.993 61.2105 292.488C61.7551 292.976 62.4092 293.22 63.173 293.22C64.0923 293.22 64.8703 292.874 65.5067 292.181C66.1432 291.488 66.4614 290.568 66.4614 289.423C66.4614 288.334 66.1538 287.474 65.5386 286.845C64.9304 286.215 64.1312 285.901 63.1412 285.901C62.5259 285.901 61.9708 286.042 61.4757 286.325C60.9807 286.601 60.5917 286.962 60.3089 287.407L58.5161 287.174L60.0224 279.186H67.7556V281.011H61.55L60.712 285.19C61.6455 284.539 62.6249 284.214 63.6503 284.214C65.0082 284.214 66.1538 284.684 67.0873 285.625C68.0208 286.566 68.4876 287.775 68.4876 289.253C68.4876 290.66 68.0774 291.877 67.257 292.902C66.2599 294.161 64.8985 294.79 63.173 294.79C61.7586 294.79 60.6023 294.394 59.7042 293.602C58.8131 292.81 58.304 291.76 58.1767 290.452ZM75.4888 294.525L69.4635 278.974H71.6911L75.7328 290.271C76.0581 291.176 76.3303 292.025 76.5496 292.817C76.79 291.968 77.0694 291.12 77.3876 290.271L81.5883 278.974H83.6887L77.5997 294.525H75.4888Z" fill="black"/>
<path d="M66.2281 308.175V306.351L72.8156 306.34V312.111C71.8043 312.917 70.7612 313.525 69.6862 313.936C68.6113 314.339 67.5081 314.54 66.3766 314.54C64.849 314.54 63.4594 314.215 62.2077 313.564C60.963 312.907 60.0224 311.959 59.386 310.721C58.7495 309.484 58.4313 308.101 58.4313 306.574C58.4313 305.06 58.746 303.649 59.3754 302.341C60.0118 301.026 60.9241 300.05 62.1122 299.413C63.3003 298.777 64.6687 298.459 66.2175 298.459C67.3419 298.459 68.3567 298.642 69.2619 299.01C70.1742 299.371 70.8885 299.877 71.4047 300.527C71.921 301.178 72.3135 302.026 72.5822 303.073L70.7258 303.582C70.4925 302.79 70.2025 302.168 69.856 301.715C69.5095 301.263 69.0144 300.902 68.3709 300.633C67.7273 300.357 67.0131 300.22 66.2281 300.22C65.2875 300.22 64.4742 300.364 63.7883 300.654C63.1023 300.937 62.5471 301.312 62.1228 301.779C61.7056 302.246 61.3803 302.758 61.1469 303.317C60.7509 304.279 60.5528 305.322 60.5528 306.446C60.5528 307.832 60.7897 308.992 61.2636 309.926C61.7445 310.859 62.441 311.552 63.3533 312.005C64.2656 312.458 65.2345 312.684 66.2599 312.684C67.151 312.684 68.0208 312.514 68.8694 312.175C69.7181 311.828 70.3616 311.46 70.8001 311.071V308.175H66.2281ZM75.8388 314.275V298.724H77.9498L86.1179 310.934V298.724H88.091V314.275H85.98L77.8119 302.055V314.275H75.8388ZM91.5598 314.275V298.724H96.9168C98.1261 298.724 99.0489 298.798 99.6854 298.947C100.576 299.152 101.337 299.523 101.966 300.06C102.786 300.753 103.398 301.641 103.801 302.723C104.211 303.798 104.417 305.028 104.417 306.415C104.417 307.596 104.279 308.642 104.003 309.554C103.727 310.467 103.373 311.223 102.942 311.825C102.511 312.419 102.037 312.889 101.521 313.235C101.011 313.575 100.393 313.833 99.6642 314.01C98.9429 314.187 98.1119 314.275 97.1713 314.275H91.5598ZM93.6177 312.44H96.938C97.9634 312.44 98.7661 312.344 99.346 312.153C99.9329 311.962 100.4 311.694 100.746 311.347C101.234 310.859 101.613 310.205 101.881 309.385C102.157 308.557 102.295 307.557 102.295 306.383C102.295 304.756 102.026 303.508 101.489 302.638C100.958 301.761 100.311 301.174 99.5475 300.877C98.9959 300.665 98.1084 300.559 96.8849 300.559H93.6177V312.44Z" fill="black"/>
<path d="M66.2281 327.925V326.101L72.8156 326.09V331.861C71.8043 332.667 70.7612 333.275 69.6862 333.686C68.6113 334.089 67.5081 334.29 66.3766 334.29C64.849 334.29 63.4594 333.965 62.2077 333.314C60.963 332.657 60.0224 331.709 59.386 330.471C58.7495 329.234 58.4313 327.851 58.4313 326.324C58.4313 324.81 58.746 323.399 59.3754 322.091C60.0118 320.776 60.9241 319.8 62.1122 319.163C63.3003 318.527 64.6687 318.209 66.2175 318.209C67.3419 318.209 68.3567 318.392 69.2619 318.76C70.1742 319.121 70.8885 319.627 71.4047 320.277C71.921 320.928 72.3135 321.776 72.5822 322.823L70.7258 323.332C70.4925 322.54 70.2025 321.918 69.856 321.465C69.5095 321.013 69.0144 320.652 68.3709 320.383C67.7273 320.107 67.0131 319.97 66.2281 319.97C65.2875 319.97 64.4742 320.114 63.7883 320.404C63.1023 320.687 62.5471 321.062 62.1228 321.529C61.7056 321.996 61.3803 322.508 61.1469 323.067C60.7509 324.029 60.5528 325.072 60.5528 326.196C60.5528 327.582 60.7897 328.742 61.2636 329.676C61.7445 330.609 62.441 331.302 63.3533 331.755C64.2656 332.208 65.2345 332.434 66.2599 332.434C67.151 332.434 68.0208 332.264 68.8694 331.925C69.7181 331.578 70.3616 331.21 70.8001 330.821V327.925H66.2281ZM75.8388 334.025V318.474H77.9498L86.1179 330.684V318.474H88.091V334.025H85.98L77.8119 321.805V334.025H75.8388ZM91.5598 334.025V318.474H96.9168C98.1261 318.474 99.0489 318.548 99.6854 318.697C100.576 318.902 101.337 319.273 101.966 319.81C102.786 320.503 103.398 321.391 103.801 322.473C104.211 323.548 104.417 324.778 104.417 326.165C104.417 327.346 104.279 328.392 104.003 329.304C103.727 330.217 103.373 330.973 102.942 331.575C102.511 332.169 102.037 332.639 101.521 332.985C101.011 333.325 100.393 333.583 99.6642 333.76C98.9429 333.937 98.1119 334.025 97.1713 334.025H91.5598ZM93.6177 332.19H96.938C97.9634 332.19 98.7661 332.094 99.346 331.903C99.9329 331.712 100.4 331.444 100.746 331.097C101.234 330.609 101.613 329.955 101.881 329.135C102.157 328.307 102.295 327.307 102.295 326.133C102.295 324.506 102.026 323.258 101.489 322.388C100.958 321.511 100.311 320.924 99.5475 320.627C98.9959 320.415 98.1084 320.309 96.8849 320.309H93.6177V332.19Z" fill="black"/>
<path d="M63.3958 353.775L57.3705 338.224H59.5981L63.6397 349.521C63.965 350.426 64.2373 351.275 64.4565 352.067C64.697 351.218 64.9763 350.37 65.2946 349.521L69.4953 338.224H71.5957L65.5067 353.775H63.3958ZM72.805 340.42V338.224H74.7144V340.42H72.805ZM72.805 353.775V342.509H74.7144V353.775H72.805ZM77.6316 353.775V342.509H79.3501V344.111C80.1775 342.874 81.3726 342.255 82.9355 342.255C83.6144 342.255 84.2368 342.379 84.8025 342.626C85.3753 342.867 85.8032 343.185 86.0861 343.581C86.369 343.977 86.567 344.447 86.6801 344.992C86.7508 345.345 86.7862 345.964 86.7862 346.848V353.775H84.8768V346.922C84.8768 346.144 84.8025 345.564 84.654 345.183C84.5055 344.794 84.2403 344.486 83.8584 344.26C83.4836 344.026 83.0416 343.91 82.5324 343.91C81.7192 343.91 81.0155 344.168 80.4215 344.684C79.8345 345.2 79.541 346.18 79.541 347.622V353.775H77.6316Z" fill="black"/>
<path d="M57.2432 393.275L63.2154 377.724H65.4325L71.7972 393.275H69.4529L67.6389 388.565H61.1363L59.4284 393.275H57.2432ZM61.7303 386.889H67.0024L65.3794 382.582C64.8844 381.274 64.5167 380.199 64.2762 379.357C64.0782 380.355 63.7989 381.345 63.4382 382.328L61.7303 386.889ZM72.6671 385.605C72.6671 383.767 72.8545 382.289 73.2293 381.171C73.6112 380.047 74.1734 379.181 74.9159 378.572C75.6656 377.964 76.6061 377.66 77.7377 377.66C78.5721 377.66 79.3041 377.83 79.9335 378.169C80.5629 378.502 81.0827 378.986 81.4929 379.623C81.903 380.252 82.2248 381.023 82.4582 381.935C82.6915 382.84 82.8082 384.064 82.8082 385.605C82.8082 387.43 82.6208 388.905 82.246 390.029C81.8712 391.146 81.309 392.013 80.5594 392.628C79.8168 393.236 78.8762 393.54 77.7377 393.54C76.2384 393.54 75.0609 393.003 74.2052 391.928C73.1798 390.634 72.6671 388.526 72.6671 385.605ZM74.6295 385.605C74.6295 388.158 74.9266 389.859 75.5206 390.708C76.1217 391.549 76.8607 391.97 77.7377 391.97C78.6146 391.97 79.3501 391.546 79.9441 390.697C80.5452 389.849 80.8458 388.151 80.8458 385.605C80.8458 383.045 80.5452 381.345 79.9441 380.503C79.3501 379.662 78.6075 379.241 77.7164 379.241C76.8395 379.241 76.1394 379.612 75.6161 380.355C74.9584 381.302 74.6295 383.053 74.6295 385.605Z" fill="black"/>
<path d="M57.2432 413.025L63.2154 397.474H65.4325L71.7972 413.025H69.4529L67.6389 408.315H61.1363L59.4284 413.025H57.2432ZM61.7303 406.639H67.0024L65.3794 402.332C64.8844 401.024 64.5167 399.949 64.2762 399.107C64.0782 400.105 63.7989 401.095 63.4382 402.078L61.7303 406.639ZM79.8592 413.025H77.9498V400.858C77.4901 401.296 76.8855 401.735 76.1359 402.173C75.3933 402.612 74.725 402.94 74.131 403.16V401.314C75.1988 400.812 76.1323 400.204 76.9315 399.489C77.7306 398.775 78.2963 398.082 78.6287 397.41H79.8592V413.025Z" fill="black"/>
<path d="M57.2432 432.775L63.2154 417.224H65.4325L71.7972 432.775H69.4529L67.6389 428.065H61.1363L59.4284 432.775H57.2432ZM61.7303 426.389H67.0024L65.3794 422.082C64.8844 420.774 64.5167 419.699 64.2762 418.857C64.0782 419.855 63.7989 420.845 63.4382 421.828L61.7303 426.389ZM82.7022 430.94V432.775H72.4231C72.4089 432.315 72.4832 431.873 72.6459 431.449C72.9075 430.749 73.3248 430.059 73.8976 429.38C74.4775 428.702 75.312 427.917 76.4011 427.026C78.0912 425.639 79.2334 424.543 79.8274 423.737C80.4215 422.924 80.7185 422.156 80.7185 421.435C80.7185 420.678 80.4462 420.042 79.9017 419.526C79.3642 419.002 78.6605 418.741 77.7907 418.741C76.8713 418.741 76.1359 419.017 75.5842 419.568C75.0326 420.12 74.7533 420.884 74.7462 421.859L72.7838 421.658C72.9181 420.194 73.4238 419.08 74.3007 418.316C75.1776 417.546 76.3551 417.16 77.8331 417.16C79.3253 417.16 80.5063 417.574 81.3762 418.401C82.246 419.229 82.6809 420.254 82.6809 421.478C82.6809 422.1 82.5536 422.712 82.2991 423.313C82.0445 423.914 81.6201 424.547 81.0261 425.212C80.4391 425.876 79.4597 426.789 78.0877 427.948C76.9421 428.91 76.2066 429.564 75.8813 429.911C75.556 430.25 75.2872 430.593 75.0751 430.94H82.7022Z" fill="black"/>
<path d="M57.2432 452.525L63.2154 436.974H65.4325L71.7972 452.525H69.4529L67.6389 447.815H61.1363L59.4284 452.525H57.2432ZM61.7303 446.139H67.0024L65.3794 441.832C64.8844 440.524 64.5167 439.449 64.2762 438.607C64.0782 439.605 63.7989 440.595 63.4382 441.578L61.7303 446.139ZM72.6777 448.42L74.5871 448.165C74.8063 449.247 75.1776 450.029 75.7009 450.509C76.2313 450.983 76.8749 451.22 77.6316 451.22C78.5297 451.22 79.2864 450.909 79.9017 450.287C80.524 449.664 80.8352 448.894 80.8352 447.974C80.8352 447.097 80.5487 446.376 79.9759 445.81C79.4031 445.237 78.6747 444.951 77.7907 444.951C77.43 444.951 76.981 445.022 76.4435 445.163L76.6556 443.487C76.7829 443.501 76.8855 443.508 76.9633 443.508C77.7765 443.508 78.5085 443.296 79.1591 442.872C79.8097 442.447 80.135 441.793 80.135 440.909C80.135 440.209 79.8981 439.629 79.4243 439.17C78.9505 438.71 78.3388 438.48 77.5891 438.48C76.8466 438.48 76.2278 438.713 75.7328 439.18C75.2377 439.647 74.9195 440.347 74.778 441.281L72.8686 440.941C73.102 439.661 73.6324 438.671 74.4598 437.971C75.2872 437.264 76.3162 436.91 77.5467 436.91C78.3953 436.91 79.1768 437.094 79.8911 437.462C80.6053 437.822 81.1499 438.317 81.5247 438.947C81.9066 439.576 82.0975 440.245 82.0975 440.952C82.0975 441.624 81.9172 442.235 81.5565 442.787C81.1958 443.339 80.6619 443.777 79.9547 444.102C80.8741 444.314 81.5883 444.756 82.0975 445.428C82.6067 446.093 82.8613 446.928 82.8613 447.932C82.8613 449.29 82.3662 450.442 81.3762 451.39C80.3861 452.331 79.1344 452.801 77.621 452.801C76.2561 452.801 75.121 452.394 74.2158 451.581C73.3177 450.768 72.805 449.714 72.6777 448.42Z" fill="black"/>
<path d="M57.2432 472.275L63.2154 456.724H65.4325L71.7972 472.275H69.4529L67.6389 467.565H61.1363L59.4284 472.275H57.2432ZM61.7303 465.889H67.0024L65.3794 461.582C64.8844 460.274 64.5167 459.199 64.2762 458.357C64.0782 459.355 63.7989 460.345 63.4382 461.328L61.7303 465.889ZM78.7878 472.275V468.552H72.0412V466.801L79.1379 456.724H80.6973V466.801H82.7976V468.552H80.6973V472.275H78.7878ZM78.7878 466.801V459.789L73.9188 466.801H78.7878Z" fill="black"/>
<path d="M57.2432 492.025L63.2154 476.474H65.4325L71.7972 492.025H69.4529L67.6389 487.315H61.1363L59.4284 492.025H57.2432ZM61.7303 485.639H67.0024L65.3794 481.332C64.8844 480.024 64.5167 478.949 64.2762 478.107C64.0782 479.105 63.7989 480.095 63.4382 481.078L61.7303 485.639ZM72.6671 487.952L74.672 487.782C74.8205 488.758 75.1635 489.493 75.7009 489.988C76.2455 490.476 76.8996 490.72 77.6634 490.72C78.5827 490.72 79.3607 490.374 79.9971 489.681C80.6336 488.988 80.9518 488.068 80.9518 486.923C80.9518 485.834 80.6442 484.974 80.029 484.345C79.4208 483.715 78.6216 483.401 77.6316 483.401C77.0163 483.401 76.4612 483.542 75.9661 483.825C75.4711 484.101 75.0821 484.462 74.7993 484.907L73.0065 484.674L74.5128 476.686H82.246V478.511H76.0404L75.2024 482.69C76.1359 482.039 77.1153 481.714 78.1408 481.714C79.4986 481.714 80.6442 482.184 81.5777 483.125C82.5112 484.066 82.978 485.275 82.978 486.753C82.978 488.16 82.5678 489.377 81.7474 490.402C80.7503 491.661 79.389 492.29 77.6634 492.29C76.249 492.29 75.0927 491.894 74.1946 491.102C73.3035 490.31 72.7944 489.26 72.6671 487.952Z" fill="black"/>
<path d="M220.482 176.025L226.454 160.474H228.671L235.036 176.025H232.691L230.877 171.315H224.375L222.667 176.025H220.482ZM224.969 169.639H230.241L228.618 165.332C228.123 164.024 227.755 162.949 227.515 162.107C227.317 163.105 227.037 164.095 226.677 165.078L224.969 169.639ZM236.712 176.025V160.474H243.607C244.993 160.474 246.047 160.615 246.768 160.898C247.489 161.174 248.066 161.665 248.497 162.373C248.928 163.08 249.144 163.861 249.144 164.717C249.144 165.82 248.787 166.75 248.073 167.507C247.358 168.264 246.255 168.744 244.763 168.95C245.308 169.211 245.721 169.469 246.004 169.724C246.605 170.276 247.175 170.965 247.712 171.792L250.417 176.025H247.829L245.771 172.79C245.17 171.856 244.675 171.142 244.286 170.647C243.897 170.152 243.547 169.805 243.236 169.607C242.931 169.409 242.62 169.271 242.302 169.193C242.069 169.144 241.687 169.119 241.156 169.119H238.77V176.025H236.712ZM238.77 167.337H243.193C244.134 167.337 244.869 167.242 245.4 167.051C245.93 166.853 246.333 166.542 246.609 166.117C246.885 165.686 247.023 165.219 247.023 164.717C247.023 163.981 246.754 163.377 246.216 162.903C245.686 162.429 244.844 162.192 243.692 162.192H238.77V167.337ZM252.422 176.025V160.474H263.666V162.309H254.48V167.072H263.083V168.896H254.48V174.19H264.027V176.025H252.422ZM266.976 176.025V160.474H277.467V162.309H269.034V167.125H276.332V168.96H269.034V176.025H266.976Z" fill="black"/>
<path d="M239.12 189.675V187.851L245.707 187.84V193.611C244.696 194.417 243.653 195.025 242.578 195.436C241.503 195.839 240.4 196.04 239.268 196.04C237.741 196.04 236.351 195.715 235.099 195.064C233.855 194.407 232.914 193.459 232.278 192.221C231.641 190.984 231.323 189.601 231.323 188.074C231.323 186.56 231.638 185.149 232.267 183.841C232.903 182.526 233.816 181.55 235.004 180.913C236.192 180.277 237.56 179.959 239.109 179.959C240.233 179.959 241.248 180.142 242.154 180.51C243.066 180.871 243.78 181.377 244.296 182.027C244.813 182.678 245.205 183.526 245.474 184.573L243.617 185.082C243.384 184.29 243.094 183.668 242.748 183.215C242.401 182.763 241.906 182.402 241.262 182.133C240.619 181.857 239.905 181.72 239.12 181.72C238.179 181.72 237.366 181.864 236.68 182.154C235.994 182.437 235.439 182.812 235.014 183.279C234.597 183.746 234.272 184.258 234.038 184.817C233.642 185.779 233.444 186.822 233.444 187.946C233.444 189.332 233.681 190.492 234.155 191.426C234.636 192.359 235.333 193.052 236.245 193.505C237.157 193.958 238.126 194.184 239.151 194.184C240.043 194.184 240.912 194.014 241.761 193.675C242.61 193.328 243.253 192.96 243.692 192.571V189.675H239.12ZM248.73 195.775V180.224H250.841L259.009 192.434V180.224H260.983V195.775H258.872L250.703 183.555V195.775H248.73ZM264.451 195.775V180.224H269.808C271.018 180.224 271.941 180.298 272.577 180.447C273.468 180.652 274.228 181.023 274.858 181.56C275.678 182.253 276.29 183.141 276.693 184.223C277.103 185.298 277.308 186.528 277.308 187.915C277.308 189.096 277.17 190.142 276.894 191.054C276.619 191.967 276.265 192.723 275.834 193.325C275.402 193.919 274.928 194.389 274.412 194.735C273.903 195.075 273.284 195.333 272.556 195.51C271.834 195.687 271.004 195.775 270.063 195.775H264.451ZM266.509 193.94H269.83C270.855 193.94 271.658 193.844 272.238 193.653C272.825 193.462 273.291 193.194 273.638 192.847C274.126 192.359 274.504 191.705 274.773 190.885C275.049 190.057 275.187 189.057 275.187 187.883C275.187 186.256 274.918 185.008 274.38 184.138C273.85 183.261 273.203 182.674 272.439 182.377C271.887 182.165 271 182.059 269.777 182.059H266.509V193.94Z" fill="black"/>
<path d="M240.265 215.525V199.974H245.622C246.832 199.974 247.754 200.048 248.391 200.197C249.282 200.402 250.042 200.773 250.672 201.31C251.492 202.003 252.104 202.891 252.507 203.973C252.917 205.048 253.122 206.278 253.122 207.665C253.122 208.846 252.984 209.892 252.708 210.804C252.433 211.717 252.079 212.473 251.648 213.075C251.216 213.669 250.742 214.139 250.226 214.485C249.717 214.825 249.098 215.083 248.37 215.26C247.648 215.437 246.817 215.525 245.877 215.525H240.265ZM242.323 213.69H245.644C246.669 213.69 247.472 213.594 248.052 213.403C248.638 213.212 249.105 212.944 249.452 212.597C249.94 212.109 250.318 211.455 250.587 210.635C250.863 209.807 251.001 208.807 251.001 207.633C251.001 206.006 250.732 204.758 250.194 203.888C249.664 203.011 249.017 202.424 248.253 202.127C247.701 201.915 246.814 201.809 245.59 201.809H242.323V213.69ZM262.383 215.525H260.473V203.358C260.014 203.796 259.409 204.235 258.659 204.673C257.917 205.112 257.249 205.44 256.655 205.66V203.814C257.722 203.312 258.656 202.704 259.455 201.989C260.254 201.275 260.82 200.582 261.152 199.91H262.383V215.525ZM267.294 211.42L269.204 211.165C269.423 212.247 269.794 213.029 270.318 213.509C270.848 213.983 271.491 214.22 272.248 214.22C273.146 214.22 273.903 213.909 274.518 213.287C275.141 212.664 275.452 211.894 275.452 210.974C275.452 210.097 275.165 209.376 274.593 208.81C274.02 208.237 273.291 207.951 272.407 207.951C272.047 207.951 271.598 208.022 271.06 208.163L271.272 206.487C271.4 206.501 271.502 206.508 271.58 206.508C272.393 206.508 273.125 206.296 273.776 205.872C274.426 205.447 274.752 204.793 274.752 203.909C274.752 203.209 274.515 202.629 274.041 202.17C273.567 201.71 272.955 201.48 272.206 201.48C271.463 201.48 270.844 201.713 270.349 202.18C269.854 202.647 269.536 203.347 269.395 204.281L267.485 203.941C267.719 202.661 268.249 201.671 269.076 200.971C269.904 200.264 270.933 199.91 272.163 199.91C273.012 199.91 273.793 200.094 274.508 200.462C275.222 200.822 275.766 201.317 276.141 201.947C276.523 202.576 276.714 203.245 276.714 203.952C276.714 204.624 276.534 205.235 276.173 205.787C275.812 206.339 275.278 206.777 274.571 207.102C275.491 207.314 276.205 207.756 276.714 208.428C277.223 209.093 277.478 209.928 277.478 210.932C277.478 212.29 276.983 213.442 275.993 214.39C275.003 215.331 273.751 215.801 272.238 215.801C270.873 215.801 269.738 215.394 268.832 214.581C267.934 213.768 267.422 212.714 267.294 211.42Z" fill="black"/>
<path d="M240.265 235.275V219.724H245.622C246.832 219.724 247.754 219.798 248.391 219.947C249.282 220.152 250.042 220.523 250.672 221.06C251.492 221.753 252.104 222.641 252.507 223.723C252.917 224.798 253.122 226.028 253.122 227.415C253.122 228.596 252.984 229.642 252.708 230.554C252.433 231.467 252.079 232.223 251.648 232.825C251.216 233.419 250.742 233.889 250.226 234.235C249.717 234.575 249.098 234.833 248.37 235.01C247.648 235.187 246.817 235.275 245.877 235.275H240.265ZM242.323 233.44H245.644C246.669 233.44 247.472 233.344 248.052 233.153C248.638 232.962 249.105 232.694 249.452 232.347C249.94 231.859 250.318 231.205 250.587 230.385C250.863 229.557 251.001 228.557 251.001 227.383C251.001 225.756 250.732 224.508 250.194 223.638C249.664 222.761 249.017 222.174 248.253 221.877C247.701 221.665 246.814 221.559 245.59 221.559H242.323V233.44ZM262.383 235.275H260.473V223.108C260.014 223.546 259.409 223.985 258.659 224.423C257.917 224.862 257.249 225.19 256.655 225.41V223.564C257.722 223.062 258.656 222.454 259.455 221.739C260.254 221.025 260.82 220.332 261.152 219.66H262.383V235.275ZM277.319 233.44V235.275H267.04C267.026 234.815 267.1 234.373 267.262 233.949C267.524 233.249 267.941 232.559 268.514 231.88C269.094 231.202 269.929 230.417 271.018 229.526C272.708 228.139 273.85 227.043 274.444 226.237C275.038 225.424 275.335 224.656 275.335 223.935C275.335 223.178 275.063 222.542 274.518 222.026C273.981 221.502 273.277 221.241 272.407 221.241C271.488 221.241 270.752 221.517 270.201 222.068C269.649 222.62 269.37 223.384 269.363 224.359L267.4 224.158C267.535 222.694 268.04 221.58 268.917 220.816C269.794 220.046 270.972 219.66 272.45 219.66C273.942 219.66 275.123 220.074 275.993 220.901C276.863 221.729 277.298 222.754 277.298 223.978C277.298 224.6 277.17 225.212 276.916 225.813C276.661 226.414 276.237 227.047 275.643 227.712C275.056 228.376 274.076 229.289 272.704 230.448C271.559 231.41 270.823 232.064 270.498 232.411C270.173 232.75 269.904 233.093 269.692 233.44H277.319Z" fill="black"/>
<path d="M182.728 255.025V239.474H188.594C189.627 239.474 190.415 239.523 190.96 239.622C191.724 239.75 192.364 239.994 192.88 240.354C193.396 240.708 193.81 241.206 194.121 241.85C194.439 242.494 194.598 243.201 194.598 243.972C194.598 245.294 194.177 246.415 193.336 247.334C192.494 248.247 190.974 248.703 188.775 248.703H184.786V255.025H182.728ZM184.786 246.868H188.806C190.136 246.868 191.08 246.62 191.639 246.125C192.197 245.63 192.477 244.933 192.477 244.035C192.477 243.385 192.31 242.829 191.978 242.37C191.653 241.903 191.221 241.595 190.684 241.447C190.337 241.355 189.697 241.309 188.764 241.309H184.786V246.868ZM199.934 255.025L195.808 239.474H197.919L200.284 249.668C200.539 250.736 200.758 251.797 200.942 252.85C201.338 251.188 201.571 250.23 201.642 249.976L204.602 239.474H207.084L209.311 247.345C209.87 249.297 210.273 251.132 210.521 252.85C210.719 251.867 210.977 250.739 211.295 249.466L213.735 239.474H215.803L211.539 255.025H209.555L206.278 243.176C206.002 242.186 205.839 241.578 205.79 241.351C205.627 242.066 205.475 242.674 205.333 243.176L202.034 255.025H199.934ZM217.67 255.025V239.474H220.768L224.449 250.485C224.788 251.51 225.036 252.278 225.191 252.787C225.368 252.221 225.644 251.39 226.019 250.294L229.742 239.474H232.511V255.025H230.527V242.009L226.008 255.025H224.152L219.654 241.786V255.025H217.67ZM241.878 255.025V239.474H247.235C248.444 239.474 249.367 239.548 250.003 239.697C250.894 239.902 251.655 240.273 252.284 240.81C253.104 241.503 253.716 242.391 254.119 243.473C254.529 244.548 254.735 245.778 254.735 247.165C254.735 248.346 254.597 249.392 254.321 250.304C254.045 251.217 253.691 251.973 253.26 252.575C252.829 253.169 252.355 253.639 251.839 253.985C251.329 254.325 250.711 254.583 249.982 254.76C249.261 254.937 248.43 255.025 247.489 255.025H241.878ZM243.936 253.19H247.256C248.281 253.19 249.084 253.094 249.664 252.903C250.251 252.712 250.718 252.444 251.064 252.097C251.552 251.609 251.93 250.955 252.199 250.135C252.475 249.307 252.613 248.307 252.613 247.133C252.613 245.506 252.344 244.258 251.807 243.388C251.276 242.511 250.629 241.924 249.865 241.627C249.314 241.415 248.426 241.309 247.203 241.309H243.936V253.19ZM263.995 255.025H262.086V242.858C261.626 243.296 261.021 243.735 260.272 244.173C259.529 244.612 258.861 244.94 258.267 245.16V243.314C259.335 242.812 260.268 242.204 261.067 241.489C261.867 240.775 262.432 240.082 262.765 239.41H263.995V255.025ZM274.476 255.025H272.566V242.858C272.107 243.296 271.502 243.735 270.752 244.173C270.01 244.612 269.342 244.94 268.748 245.16V243.314C269.815 242.812 270.749 242.204 271.548 241.489C272.347 240.775 272.913 240.082 273.245 239.41H274.476V255.025Z" fill="black"/>
<path d="M181.116 274.775V259.224H186.982C188.014 259.224 188.803 259.273 189.347 259.372C190.111 259.5 190.751 259.744 191.267 260.104C191.784 260.458 192.197 260.956 192.508 261.6C192.827 262.244 192.986 262.951 192.986 263.722C192.986 265.044 192.565 266.165 191.724 267.084C190.882 267.997 189.361 268.453 187.162 268.453H183.174V274.775H181.116ZM183.174 266.618H187.194C188.523 266.618 189.468 266.37 190.026 265.875C190.585 265.38 190.864 264.683 190.864 263.785C190.864 263.135 190.698 262.579 190.366 262.12C190.04 261.653 189.609 261.345 189.072 261.197C188.725 261.105 188.085 261.059 187.151 261.059H183.174V266.618ZM198.322 274.775L194.195 259.224H196.306L198.672 269.418C198.926 270.486 199.146 271.547 199.329 272.6C199.725 270.938 199.959 269.98 200.029 269.726L202.989 259.224H205.471L207.699 267.095C208.258 269.047 208.661 270.882 208.908 272.6C209.106 271.617 209.364 270.489 209.683 269.216L212.123 259.224H214.191L209.927 274.775H207.943L204.665 262.926C204.389 261.936 204.227 261.328 204.177 261.101C204.015 261.816 203.862 262.424 203.721 262.926L200.422 274.775H198.322ZM216.058 274.775V259.224H219.156L222.837 270.235C223.176 271.26 223.423 272.028 223.579 272.537C223.756 271.971 224.032 271.14 224.406 270.044L228.13 259.224H230.899V274.775H228.915V261.759L224.396 274.775H222.539L218.042 261.536V274.775H216.058ZM240.265 274.775V259.224H245.622C246.832 259.224 247.754 259.298 248.391 259.447C249.282 259.652 250.042 260.023 250.672 260.56C251.492 261.253 252.104 262.141 252.507 263.223C252.917 264.298 253.122 265.528 253.122 266.915C253.122 268.096 252.984 269.142 252.708 270.054C252.433 270.967 252.079 271.723 251.648 272.325C251.216 272.919 250.742 273.389 250.226 273.735C249.717 274.075 249.098 274.333 248.37 274.51C247.648 274.687 246.817 274.775 245.877 274.775H240.265ZM242.323 272.94H245.644C246.669 272.94 247.472 272.844 248.052 272.653C248.638 272.462 249.105 272.194 249.452 271.847C249.94 271.359 250.318 270.705 250.587 269.885C250.863 269.057 251.001 268.057 251.001 266.883C251.001 265.256 250.732 264.008 250.194 263.138C249.664 262.261 249.017 261.674 248.253 261.377C247.701 261.165 246.814 261.059 245.59 261.059H242.323V272.94ZM262.383 274.775H260.473V262.608C260.014 263.046 259.409 263.485 258.659 263.923C257.917 264.362 257.249 264.69 256.655 264.91V263.064C257.722 262.562 258.656 261.954 259.455 261.239C260.254 260.525 260.82 259.832 261.152 259.16H262.383V274.775ZM267.284 267.105C267.284 265.267 267.471 263.789 267.846 262.671C268.228 261.547 268.79 260.681 269.533 260.072C270.282 259.464 271.223 259.16 272.354 259.16C273.189 259.16 273.921 259.33 274.55 259.669C275.179 260.002 275.699 260.486 276.109 261.123C276.52 261.752 276.841 262.523 277.075 263.435C277.308 264.34 277.425 265.564 277.425 267.105C277.425 268.93 277.237 270.405 276.863 271.529C276.488 272.646 275.926 273.513 275.176 274.128C274.433 274.736 273.493 275.04 272.354 275.04C270.855 275.04 269.678 274.503 268.822 273.428C267.796 272.134 267.284 270.026 267.284 267.105ZM269.246 267.105C269.246 269.658 269.543 271.359 270.137 272.208C270.738 273.049 271.477 273.47 272.354 273.47C273.231 273.47 273.967 273.046 274.561 272.197C275.162 271.349 275.462 269.651 275.462 267.105C275.462 264.545 275.162 262.845 274.561 262.003C273.967 261.162 273.224 260.741 272.333 260.741C271.456 260.741 270.756 261.112 270.233 261.855C269.575 262.802 269.246 264.553 269.246 267.105Z" fill="black"/>
<path d="M181.116 294.525V278.974H186.982C188.014 278.974 188.803 279.023 189.347 279.122C190.111 279.25 190.751 279.494 191.267 279.854C191.784 280.208 192.197 280.706 192.508 281.35C192.827 281.994 192.986 282.701 192.986 283.472C192.986 284.794 192.565 285.915 191.724 286.834C190.882 287.747 189.361 288.203 187.162 288.203H183.174V294.525H181.116ZM183.174 286.368H187.194C188.523 286.368 189.468 286.12 190.026 285.625C190.585 285.13 190.864 284.433 190.864 283.535C190.864 282.885 190.698 282.329 190.366 281.87C190.04 281.403 189.609 281.095 189.072 280.947C188.725 280.855 188.085 280.809 187.151 280.809H183.174V286.368ZM198.322 294.525L194.195 278.974H196.306L198.672 289.168C198.926 290.236 199.146 291.297 199.329 292.35C199.725 290.688 199.959 289.73 200.029 289.476L202.989 278.974H205.471L207.699 286.845C208.258 288.797 208.661 290.632 208.908 292.35C209.106 291.367 209.364 290.239 209.683 288.966L212.123 278.974H214.191L209.927 294.525H207.943L204.665 282.676C204.389 281.686 204.227 281.078 204.177 280.851C204.015 281.566 203.862 282.174 203.721 282.676L200.422 294.525H198.322ZM216.058 294.525V278.974H219.156L222.837 289.985C223.176 291.01 223.423 291.778 223.579 292.287C223.756 291.721 224.032 290.89 224.406 289.794L228.13 278.974H230.899V294.525H228.915V281.509L224.396 294.525H222.539L218.042 281.286V294.525H216.058ZM252.358 294.525V278.974H257.715C258.925 278.974 259.848 279.048 260.484 279.197C261.375 279.402 262.135 279.773 262.765 280.31C263.585 281.003 264.197 281.891 264.6 282.973C265.01 284.048 265.215 285.278 265.215 286.665C265.215 287.846 265.077 288.892 264.801 289.804C264.526 290.717 264.172 291.473 263.741 292.075C263.309 292.669 262.835 293.139 262.319 293.485C261.81 293.825 261.191 294.083 260.463 294.26C259.741 294.437 258.91 294.525 257.97 294.525H252.358ZM254.416 292.69H257.737C258.762 292.69 259.565 292.594 260.145 292.403C260.732 292.212 261.198 291.944 261.545 291.597C262.033 291.109 262.411 290.455 262.68 289.635C262.956 288.807 263.094 287.807 263.094 286.633C263.094 285.006 262.825 283.758 262.287 282.888C261.757 282.011 261.11 281.424 260.346 281.127C259.794 280.915 258.907 280.809 257.683 280.809H254.416V292.69ZM267.57 290.929L269.405 290.759C269.561 291.622 269.858 292.248 270.296 292.637C270.735 293.026 271.297 293.22 271.983 293.22C272.57 293.22 273.083 293.086 273.521 292.817C273.967 292.548 274.331 292.191 274.614 291.746C274.897 291.293 275.134 290.685 275.324 289.921C275.515 289.157 275.611 288.379 275.611 287.587C275.611 287.503 275.607 287.375 275.6 287.206C275.218 287.814 274.695 288.309 274.03 288.691C273.373 289.065 272.658 289.253 271.887 289.253C270.6 289.253 269.511 288.786 268.62 287.853C267.729 286.919 267.284 285.689 267.284 284.161C267.284 282.584 267.747 281.315 268.673 280.353C269.607 279.391 270.774 278.91 272.174 278.91C273.185 278.91 274.108 279.182 274.943 279.727C275.784 280.271 276.421 281.049 276.852 282.061C277.29 283.065 277.51 284.522 277.51 286.431C277.51 288.418 277.294 290.002 276.863 291.184C276.431 292.357 275.788 293.252 274.932 293.867C274.083 294.483 273.086 294.79 271.941 294.79C270.724 294.79 269.731 294.454 268.96 293.782C268.189 293.104 267.726 292.152 267.57 290.929ZM275.388 284.066C275.388 282.969 275.095 282.1 274.508 281.456C273.928 280.813 273.228 280.491 272.407 280.491C271.559 280.491 270.82 280.837 270.19 281.53C269.561 282.223 269.246 283.121 269.246 284.225C269.246 285.215 269.543 286.021 270.137 286.643C270.738 287.259 271.477 287.566 272.354 287.566C273.238 287.566 273.963 287.259 274.529 286.643C275.102 286.021 275.388 285.162 275.388 284.066Z" fill="black"/>
<path d="M252.358 314.275V298.724H257.715C258.925 298.724 259.848 298.798 260.484 298.947C261.375 299.152 262.135 299.523 262.765 300.06C263.585 300.753 264.197 301.641 264.6 302.723C265.01 303.798 265.215 305.028 265.215 306.415C265.215 307.596 265.077 308.642 264.801 309.554C264.526 310.467 264.172 311.223 263.741 311.825C263.309 312.419 262.835 312.889 262.319 313.235C261.81 313.575 261.191 313.833 260.463 314.01C259.741 314.187 258.91 314.275 257.97 314.275H252.358ZM254.416 312.44H257.737C258.762 312.44 259.565 312.344 260.145 312.153C260.732 311.962 261.198 311.694 261.545 311.347C262.033 310.859 262.411 310.205 262.68 309.385C262.956 308.557 263.094 307.557 263.094 306.383C263.094 304.756 262.825 303.508 262.287 302.638C261.757 301.761 261.11 301.174 260.346 300.877C259.794 300.665 258.907 300.559 257.684 300.559H254.416V312.44ZM270.222 305.842C269.43 305.552 268.843 305.138 268.461 304.601C268.079 304.063 267.888 303.42 267.888 302.67C267.888 301.538 268.295 300.587 269.108 299.816C269.921 299.046 271.004 298.66 272.354 298.66C273.712 298.66 274.805 299.056 275.632 299.848C276.46 300.633 276.873 301.591 276.873 302.723C276.873 303.444 276.682 304.074 276.3 304.611C275.926 305.142 275.353 305.552 274.582 305.842C275.537 306.153 276.261 306.655 276.757 307.348C277.259 308.041 277.51 308.868 277.51 309.83C277.51 311.16 277.039 312.277 276.099 313.182C275.158 314.088 273.921 314.54 272.386 314.54C270.851 314.54 269.614 314.088 268.673 313.182C267.733 312.27 267.262 311.135 267.262 309.777C267.262 308.766 267.517 307.921 268.026 307.242C268.542 306.556 269.274 306.089 270.222 305.842ZM269.84 302.606C269.84 303.342 270.077 303.943 270.551 304.41C271.025 304.876 271.64 305.11 272.397 305.11C273.132 305.11 273.733 304.88 274.2 304.42C274.674 303.953 274.911 303.384 274.911 302.712C274.911 302.012 274.667 301.425 274.179 300.951C273.698 300.471 273.097 300.23 272.375 300.23C271.647 300.23 271.042 300.463 270.562 300.93C270.081 301.397 269.84 301.956 269.84 302.606ZM269.225 309.788C269.225 310.332 269.352 310.859 269.607 311.368C269.868 311.878 270.254 312.274 270.763 312.557C271.272 312.832 271.82 312.97 272.407 312.97C273.32 312.97 274.073 312.677 274.667 312.09C275.261 311.503 275.558 310.757 275.558 309.851C275.558 308.932 275.25 308.172 274.635 307.571C274.027 306.97 273.263 306.669 272.344 306.669C271.445 306.669 270.699 306.966 270.105 307.56C269.518 308.154 269.225 308.897 269.225 309.788Z" fill="black"/>
<path d="M252.358 353.775V338.224H257.715C258.925 338.224 259.848 338.298 260.484 338.447C261.375 338.652 262.135 339.023 262.765 339.56C263.585 340.253 264.197 341.141 264.6 342.223C265.01 343.298 265.215 344.528 265.215 345.915C265.215 347.096 265.077 348.142 264.801 349.054C264.526 349.967 264.172 350.723 263.741 351.325C263.309 351.919 262.835 352.389 262.319 352.735C261.81 353.075 261.191 353.333 260.463 353.51C259.741 353.687 258.91 353.775 257.97 353.775H252.358ZM254.416 351.94H257.737C258.762 351.94 259.565 351.844 260.145 351.653C260.732 351.462 261.198 351.194 261.545 350.847C262.033 350.359 262.411 349.705 262.68 348.885C262.956 348.057 263.094 347.057 263.094 345.883C263.094 344.256 262.825 343.008 262.287 342.138C261.757 341.261 261.11 340.674 260.346 340.377C259.794 340.165 258.907 340.059 257.684 340.059H254.416V351.94ZM267.411 340.261V338.425H277.478V339.91C276.488 340.964 275.505 342.364 274.529 344.111C273.56 345.858 272.81 347.654 272.28 349.5C271.898 350.801 271.654 352.226 271.548 353.775H269.586C269.607 352.552 269.847 351.074 270.307 349.341C270.767 347.608 271.424 345.939 272.28 344.334C273.143 342.722 274.059 341.364 275.027 340.261H267.411Z" fill="black"/>
<path d="M181.116 373.525V357.974H186.982C188.014 357.974 188.803 358.023 189.347 358.122C190.111 358.25 190.751 358.494 191.267 358.854C191.784 359.208 192.197 359.706 192.508 360.35C192.827 360.994 192.986 361.701 192.986 362.472C192.986 363.794 192.565 364.915 191.724 365.834C190.882 366.747 189.361 367.203 187.162 367.203H183.174V373.525H181.116ZM183.174 365.368H187.194C188.523 365.368 189.468 365.12 190.026 364.625C190.585 364.13 190.864 363.433 190.864 362.535C190.864 361.885 190.698 361.329 190.366 360.87C190.04 360.403 189.609 360.095 189.072 359.947C188.725 359.855 188.085 359.809 187.151 359.809H183.174V365.368ZM198.322 373.525L194.195 357.974H196.306L198.672 368.168C198.926 369.236 199.146 370.297 199.329 371.35C199.725 369.688 199.959 368.73 200.029 368.476L202.989 357.974H205.471L207.699 365.845C208.258 367.797 208.661 369.632 208.908 371.35C209.106 370.367 209.364 369.239 209.683 367.966L212.123 357.974H214.191L209.927 373.525H207.943L204.665 361.676C204.389 360.686 204.227 360.078 204.177 359.851C204.015 360.566 203.862 361.174 203.721 361.676L200.422 373.525H198.322ZM216.058 373.525V357.974H219.156L222.837 368.985C223.176 370.01 223.423 370.778 223.579 371.287C223.756 370.721 224.032 369.89 224.406 368.794L228.13 357.974H230.899V373.525H228.915V360.509L224.396 373.525H222.539L218.042 360.286V373.525H216.058ZM252.358 373.525V357.974H257.715C258.925 357.974 259.848 358.048 260.484 358.197C261.375 358.402 262.135 358.773 262.765 359.31C263.585 360.003 264.197 360.891 264.6 361.973C265.01 363.048 265.215 364.278 265.215 365.665C265.215 366.846 265.077 367.892 264.801 368.804C264.526 369.717 264.172 370.473 263.741 371.075C263.309 371.669 262.835 372.139 262.319 372.485C261.81 372.825 261.191 373.083 260.463 373.26C259.741 373.437 258.91 373.525 257.97 373.525H252.358ZM254.416 371.69H257.737C258.762 371.69 259.565 371.594 260.145 371.403C260.732 371.212 261.198 370.944 261.545 370.597C262.033 370.109 262.411 369.455 262.68 368.635C262.956 367.807 263.094 366.807 263.094 365.633C263.094 364.006 262.825 362.758 262.287 361.888C261.757 361.011 261.11 360.424 260.346 360.127C259.794 359.915 258.907 359.809 257.683 359.809H254.416V371.69ZM277.191 361.782L275.293 361.931C275.123 361.181 274.882 360.636 274.571 360.297C274.055 359.752 273.419 359.48 272.662 359.48C272.054 359.48 271.52 359.65 271.06 359.989C270.459 360.428 269.985 361.068 269.639 361.909C269.292 362.751 269.112 363.95 269.098 365.505C269.557 364.805 270.12 364.286 270.784 363.946C271.449 363.607 272.146 363.437 272.874 363.437C274.147 363.437 275.229 363.907 276.12 364.848C277.018 365.781 277.467 366.991 277.467 368.476C277.467 369.452 277.255 370.36 276.831 371.202C276.414 372.036 275.837 372.676 275.102 373.122C274.366 373.567 273.532 373.79 272.598 373.79C271.007 373.79 269.709 373.207 268.705 372.04C267.701 370.866 267.199 368.935 267.199 366.248C267.199 363.242 267.754 361.057 268.864 359.692C269.833 358.504 271.138 357.91 272.779 357.91C274.002 357.91 275.003 358.253 275.781 358.939C276.566 359.625 277.036 360.573 277.191 361.782ZM269.395 368.486C269.395 369.144 269.533 369.773 269.808 370.374C270.091 370.976 270.484 371.435 270.986 371.753C271.488 372.065 272.015 372.22 272.566 372.22C273.373 372.22 274.066 371.895 274.646 371.244C275.225 370.594 275.515 369.71 275.515 368.592C275.515 367.517 275.229 366.672 274.656 366.057C274.083 365.435 273.362 365.124 272.492 365.124C271.629 365.124 270.897 365.435 270.296 366.057C269.695 366.672 269.395 367.482 269.395 368.486Z" fill="black"/>
<path d="M181.116 393.275V377.724H186.982C188.014 377.724 188.803 377.773 189.347 377.872C190.111 378 190.751 378.244 191.267 378.604C191.784 378.958 192.197 379.456 192.508 380.1C192.827 380.744 192.986 381.451 192.986 382.222C192.986 383.544 192.565 384.665 191.724 385.584C190.882 386.497 189.361 386.953 187.162 386.953H183.174V393.275H181.116ZM183.174 385.118H187.194C188.523 385.118 189.468 384.87 190.026 384.375C190.585 383.88 190.864 383.183 190.864 382.285C190.864 381.635 190.698 381.079 190.366 380.62C190.04 380.153 189.609 379.845 189.072 379.697C188.725 379.605 188.085 379.559 187.151 379.559H183.174V385.118ZM198.322 393.275L194.195 377.724H196.306L198.672 387.918C198.926 388.986 199.146 390.047 199.329 391.1C199.725 389.438 199.959 388.48 200.029 388.226L202.989 377.724H205.471L207.699 385.595C208.258 387.547 208.661 389.382 208.908 391.1C209.106 390.117 209.364 388.989 209.683 387.716L212.123 377.724H214.191L209.927 393.275H207.943L204.665 381.426C204.389 380.436 204.227 379.828 204.177 379.601C204.015 380.316 203.862 380.924 203.721 381.426L200.422 393.275H198.322ZM216.058 393.275V377.724H219.156L222.837 388.735C223.176 389.76 223.423 390.528 223.579 391.037C223.756 390.471 224.032 389.64 224.406 388.544L228.13 377.724H230.899V393.275H228.915V380.259L224.396 393.275H222.539L218.042 380.036V393.275H216.058ZM252.358 393.275V377.724H257.715C258.925 377.724 259.848 377.798 260.484 377.947C261.375 378.152 262.135 378.523 262.765 379.06C263.585 379.753 264.197 380.641 264.6 381.723C265.01 382.798 265.215 384.028 265.215 385.415C265.215 386.596 265.077 387.642 264.801 388.554C264.526 389.467 264.172 390.223 263.741 390.825C263.309 391.419 262.835 391.889 262.319 392.235C261.81 392.575 261.191 392.833 260.463 393.01C259.741 393.187 258.91 393.275 257.97 393.275H252.358ZM254.416 391.44H257.737C258.762 391.44 259.565 391.344 260.145 391.153C260.732 390.962 261.198 390.694 261.545 390.347C262.033 389.859 262.411 389.205 262.68 388.385C262.956 387.557 263.094 386.557 263.094 385.383C263.094 383.756 262.825 382.508 262.287 381.638C261.757 380.761 261.11 380.174 260.346 379.877C259.794 379.665 258.907 379.559 257.683 379.559H254.416V391.44ZM267.284 389.202L269.289 389.032C269.437 390.008 269.78 390.743 270.318 391.238C270.862 391.726 271.516 391.97 272.28 391.97C273.199 391.97 273.977 391.624 274.614 390.931C275.25 390.238 275.568 389.318 275.568 388.173C275.568 387.084 275.261 386.224 274.646 385.595C274.037 384.965 273.238 384.651 272.248 384.651C271.633 384.651 271.078 384.792 270.583 385.075C270.088 385.351 269.699 385.712 269.416 386.157L267.623 385.924L269.129 377.936H276.863V379.761H270.657L269.819 383.94C270.752 383.289 271.732 382.964 272.757 382.964C274.115 382.964 275.261 383.434 276.194 384.375C277.128 385.316 277.595 386.525 277.595 388.003C277.595 389.41 277.184 390.627 276.364 391.652C275.367 392.911 274.006 393.54 272.28 393.54C270.866 393.54 269.709 393.144 268.811 392.352C267.92 391.56 267.411 390.51 267.284 389.202Z" fill="black"/>
<path d="M252.358 413.025V397.474H257.715C258.925 397.474 259.848 397.548 260.484 397.697C261.375 397.902 262.135 398.273 262.765 398.81C263.585 399.503 264.197 400.391 264.6 401.473C265.01 402.548 265.215 403.778 265.215 405.165C265.215 406.346 265.077 407.392 264.801 408.304C264.526 409.217 264.172 409.973 263.741 410.575C263.309 411.169 262.835 411.639 262.319 411.985C261.81 412.325 261.191 412.583 260.463 412.76C259.741 412.937 258.91 413.025 257.97 413.025H252.358ZM254.416 411.19H257.737C258.762 411.19 259.565 411.094 260.145 410.903C260.732 410.712 261.198 410.444 261.545 410.097C262.033 409.609 262.411 408.955 262.68 408.135C262.956 407.307 263.094 406.307 263.094 405.133C263.094 403.506 262.825 402.258 262.287 401.388C261.757 400.511 261.11 399.924 260.346 399.627C259.794 399.415 258.907 399.309 257.684 399.309H254.416V411.19ZM273.404 413.025V409.302H266.658V407.551L273.754 397.474H275.314V407.551H277.414V409.302H275.314V413.025H273.404ZM273.404 407.551V400.539L268.535 407.551H273.404Z" fill="black"/>
<path d="M181.116 432.775V417.224H186.982C188.014 417.224 188.803 417.273 189.347 417.372C190.111 417.5 190.751 417.744 191.267 418.104C191.784 418.458 192.197 418.956 192.508 419.6C192.827 420.244 192.986 420.951 192.986 421.722C192.986 423.044 192.565 424.165 191.724 425.084C190.882 425.997 189.361 426.453 187.162 426.453H183.174V432.775H181.116ZM183.174 424.618H187.194C188.523 424.618 189.468 424.37 190.026 423.875C190.585 423.38 190.864 422.683 190.864 421.785C190.864 421.135 190.698 420.579 190.366 420.12C190.04 419.653 189.609 419.345 189.072 419.197C188.725 419.105 188.085 419.059 187.151 419.059H183.174V424.618ZM198.322 432.775L194.195 417.224H196.306L198.672 427.418C198.926 428.486 199.146 429.547 199.329 430.6C199.725 428.938 199.959 427.98 200.029 427.726L202.989 417.224H205.471L207.699 425.095C208.258 427.047 208.661 428.882 208.908 430.6C209.106 429.617 209.364 428.489 209.683 427.216L212.123 417.224H214.191L209.927 432.775H207.943L204.665 420.926C204.389 419.936 204.227 419.328 204.177 419.101C204.015 419.816 203.862 420.424 203.721 420.926L200.422 432.775H198.322ZM216.058 432.775V417.224H219.156L222.837 428.235C223.176 429.26 223.423 430.028 223.579 430.537C223.756 429.971 224.032 429.14 224.406 428.044L228.13 417.224H230.899V432.775H228.915V419.759L224.396 432.775H222.539L218.042 419.536V432.775H216.058ZM252.358 432.775V417.224H257.715C258.925 417.224 259.848 417.298 260.484 417.447C261.375 417.652 262.135 418.023 262.765 418.56C263.585 419.253 264.197 420.141 264.6 421.223C265.01 422.298 265.215 423.528 265.215 424.915C265.215 426.096 265.077 427.142 264.801 428.054C264.526 428.967 264.172 429.723 263.741 430.325C263.309 430.919 262.835 431.389 262.319 431.735C261.81 432.075 261.191 432.333 260.463 432.51C259.741 432.687 258.91 432.775 257.97 432.775H252.358ZM254.416 430.94H257.737C258.762 430.94 259.565 430.844 260.145 430.653C260.732 430.462 261.198 430.194 261.545 429.847C262.033 429.359 262.411 428.705 262.68 427.885C262.956 427.057 263.094 426.057 263.094 424.883C263.094 423.256 262.825 422.008 262.287 421.138C261.757 420.261 261.11 419.674 260.346 419.377C259.794 419.165 258.907 419.059 257.683 419.059H254.416V430.94ZM267.294 428.67L269.204 428.415C269.423 429.497 269.794 430.279 270.318 430.759C270.848 431.233 271.491 431.47 272.248 431.47C273.146 431.47 273.903 431.159 274.518 430.537C275.141 429.914 275.452 429.144 275.452 428.224C275.452 427.347 275.165 426.626 274.593 426.06C274.02 425.487 273.291 425.201 272.407 425.201C272.047 425.201 271.598 425.272 271.06 425.413L271.272 423.737C271.4 423.751 271.502 423.758 271.58 423.758C272.393 423.758 273.125 423.546 273.776 423.122C274.426 422.697 274.752 422.043 274.752 421.159C274.752 420.459 274.515 419.879 274.041 419.42C273.567 418.96 272.955 418.73 272.206 418.73C271.463 418.73 270.844 418.963 270.349 419.43C269.854 419.897 269.536 420.597 269.395 421.531L267.485 421.191C267.719 419.911 268.249 418.921 269.076 418.221C269.904 417.514 270.933 417.16 272.163 417.16C273.012 417.16 273.793 417.344 274.508 417.712C275.222 418.072 275.766 418.567 276.141 419.197C276.523 419.826 276.714 420.495 276.714 421.202C276.714 421.874 276.534 422.485 276.173 423.037C275.812 423.589 275.278 424.027 274.571 424.352C275.491 424.564 276.205 425.006 276.714 425.678C277.223 426.343 277.478 427.178 277.478 428.182C277.478 429.54 276.983 430.692 275.993 431.64C275.003 432.581 273.751 433.051 272.238 433.051C270.873 433.051 269.738 432.644 268.832 431.831C267.934 431.018 267.422 429.964 267.294 428.67Z" fill="black"/>
<path d="M252.358 452.525V436.974H257.715C258.925 436.974 259.848 437.048 260.484 437.197C261.375 437.402 262.135 437.773 262.765 438.31C263.585 439.003 264.197 439.891 264.6 440.973C265.01 442.048 265.215 443.278 265.215 444.665C265.215 445.846 265.077 446.892 264.801 447.804C264.526 448.717 264.172 449.473 263.741 450.075C263.309 450.669 262.835 451.139 262.319 451.485C261.81 451.825 261.191 452.083 260.463 452.26C259.741 452.437 258.91 452.525 257.97 452.525H252.358ZM254.416 450.69H257.737C258.762 450.69 259.565 450.594 260.145 450.403C260.732 450.212 261.198 449.944 261.545 449.597C262.033 449.109 262.411 448.455 262.68 447.635C262.956 446.807 263.094 445.807 263.094 444.633C263.094 443.006 262.825 441.758 262.287 440.888C261.757 440.011 261.11 439.424 260.346 439.127C259.794 438.915 258.907 438.809 257.684 438.809H254.416V450.69ZM277.319 450.69V452.525H267.04C267.026 452.065 267.1 451.623 267.262 451.199C267.524 450.499 267.941 449.809 268.514 449.13C269.094 448.452 269.929 447.667 271.018 446.776C272.708 445.389 273.85 444.293 274.444 443.487C275.038 442.674 275.335 441.906 275.335 441.185C275.335 440.428 275.063 439.792 274.518 439.276C273.981 438.752 273.277 438.491 272.407 438.491C271.488 438.491 270.752 438.767 270.201 439.318C269.649 439.87 269.37 440.634 269.363 441.609L267.4 441.408C267.535 439.944 268.04 438.83 268.917 438.066C269.794 437.296 270.972 436.91 272.45 436.91C273.942 436.91 275.123 437.324 275.993 438.151C276.863 438.979 277.298 440.004 277.298 441.228C277.298 441.85 277.17 442.462 276.916 443.063C276.661 443.664 276.237 444.297 275.643 444.962C275.056 445.626 274.076 446.539 272.704 447.698C271.559 448.66 270.823 449.314 270.498 449.661C270.173 450 269.904 450.343 269.692 450.69H277.319Z" fill="black"/>
<path d="M210.404 472.275V458.559H205.28V456.724H217.607V458.559H212.462V472.275H210.404ZM218.148 472.275L224.163 464.171L218.859 456.724H221.309L224.131 460.712C224.718 461.54 225.135 462.176 225.382 462.622C225.729 462.056 226.139 461.466 226.613 460.85L229.742 456.724H231.981L226.517 464.054L232.405 472.275H229.859L225.945 466.727C225.725 466.409 225.499 466.062 225.266 465.687C224.919 466.253 224.672 466.642 224.523 466.854L220.619 472.275H218.148ZM252.358 472.275V456.724H257.715C258.925 456.724 259.848 456.798 260.484 456.947C261.375 457.152 262.135 457.523 262.765 458.06C263.585 458.753 264.197 459.641 264.6 460.723C265.01 461.798 265.215 463.028 265.215 464.415C265.215 465.596 265.077 466.642 264.801 467.554C264.526 468.467 264.172 469.223 263.741 469.825C263.309 470.419 262.835 470.889 262.319 471.235C261.81 471.575 261.191 471.833 260.463 472.01C259.741 472.187 258.91 472.275 257.97 472.275H252.358ZM254.416 470.44H257.737C258.762 470.44 259.565 470.344 260.145 470.153C260.732 469.962 261.198 469.694 261.545 469.347C262.033 468.859 262.411 468.205 262.68 467.385C262.956 466.557 263.094 465.557 263.094 464.383C263.094 462.756 262.825 461.508 262.287 460.638C261.757 459.761 261.11 459.174 260.346 458.877C259.794 458.665 258.907 458.559 257.684 458.559H254.416V470.44ZM274.476 472.275H272.566V460.108C272.107 460.546 271.502 460.985 270.752 461.423C270.01 461.862 269.342 462.19 268.748 462.41V460.564C269.815 460.062 270.749 459.454 271.548 458.739C272.347 458.025 272.913 457.332 273.245 456.66H274.476V472.275Z" fill="black"/>
<path d="M204.061 492.025V476.474H210.956C212.342 476.474 213.395 476.615 214.117 476.898C214.838 477.174 215.415 477.665 215.846 478.373C216.277 479.08 216.493 479.861 216.493 480.717C216.493 481.82 216.136 482.75 215.422 483.507C214.707 484.264 213.604 484.744 212.112 484.95C212.656 485.211 213.07 485.469 213.353 485.724C213.954 486.276 214.523 486.965 215.061 487.792L217.766 492.025H215.178L213.12 488.79C212.519 487.856 212.024 487.142 211.635 486.647C211.246 486.152 210.896 485.805 210.584 485.607C210.28 485.409 209.969 485.271 209.651 485.193C209.418 485.144 209.036 485.119 208.505 485.119H206.118V492.025H204.061ZM206.118 483.337H210.542C211.483 483.337 212.218 483.242 212.748 483.051C213.279 482.853 213.682 482.542 213.958 482.117C214.233 481.686 214.371 481.219 214.371 480.717C214.371 479.981 214.103 479.377 213.565 478.903C213.035 478.429 212.193 478.192 211.041 478.192H206.118V483.337ZM218.148 492.025L224.163 483.921L218.859 476.474H221.309L224.131 480.462C224.718 481.29 225.135 481.926 225.382 482.372C225.729 481.806 226.139 481.216 226.613 480.6L229.742 476.474H231.981L226.517 483.804L232.405 492.025H229.859L225.945 486.477C225.725 486.159 225.499 485.812 225.266 485.437C224.919 486.003 224.672 486.392 224.523 486.604L220.619 492.025H218.148ZM252.358 492.025V476.474H257.715C258.925 476.474 259.848 476.548 260.484 476.697C261.375 476.902 262.135 477.273 262.765 477.81C263.585 478.503 264.197 479.391 264.6 480.473C265.01 481.548 265.215 482.778 265.215 484.165C265.215 485.346 265.077 486.392 264.801 487.304C264.526 488.217 264.172 488.973 263.741 489.575C263.309 490.169 262.835 490.639 262.319 490.985C261.81 491.325 261.191 491.583 260.463 491.76C259.741 491.937 258.91 492.025 257.97 492.025H252.358ZM254.416 490.19H257.737C258.762 490.19 259.565 490.094 260.145 489.903C260.732 489.712 261.198 489.444 261.545 489.097C262.033 488.609 262.411 487.955 262.68 487.135C262.956 486.307 263.094 485.307 263.094 484.133C263.094 482.506 262.825 481.258 262.287 480.388C261.757 479.511 261.11 478.924 260.346 478.627C259.794 478.415 258.907 478.309 257.683 478.309H254.416V490.19ZM267.284 484.355C267.284 482.517 267.471 481.039 267.846 479.921C268.228 478.797 268.79 477.931 269.533 477.322C270.282 476.714 271.223 476.41 272.354 476.41C273.189 476.41 273.921 476.58 274.55 476.919C275.179 477.252 275.699 477.736 276.109 478.373C276.52 479.002 276.841 479.773 277.075 480.685C277.308 481.59 277.425 482.814 277.425 484.355C277.425 486.18 277.237 487.655 276.863 488.779C276.488 489.896 275.926 490.763 275.176 491.378C274.433 491.986 273.493 492.29 272.354 492.29C270.855 492.29 269.678 491.753 268.822 490.678C267.796 489.384 267.284 487.276 267.284 484.355ZM269.246 484.355C269.246 486.908 269.543 488.609 270.137 489.458C270.738 490.299 271.477 490.72 272.354 490.72C273.231 490.72 273.967 490.296 274.561 489.447C275.162 488.599 275.462 486.901 275.462 484.355C275.462 481.795 275.162 480.095 274.561 479.253C273.967 478.412 273.224 477.991 272.333 477.991C271.456 477.991 270.756 478.362 270.233 479.105C269.575 480.052 269.246 481.803 269.246 484.355Z" fill="black"/>
<path d="M167.875 158C171.825 175.775 197.5 175.775 197.5 158C197.5 140.225 171.825 140.225 167.875 158Z" stroke="black" stroke-width="3.95" stroke-linecap="square"/>
<path d="M167.875 158C163.925 140.225 138.25 140.225 138.25 158C138.25 175.775 163.925 175.775 167.875 158Z" stroke="black" stroke-width="3.95" stroke-linecap="square"/>
<path d="M179.725 158H187.625" stroke="black" stroke-width="3.95" stroke-linecap="square"/>
<path d="M183.675 161.95V154.05" stroke="black" stroke-width="3.95" stroke-linecap="square"/>
<path d="M156.025 158H148.125" stroke="black" stroke-width="3.95" stroke-linecap="square"/>
<path d="M474 497.7C476.182 497.7 477.95 495.932 477.95 493.75C477.95 491.568 476.182 489.8 474 489.8C471.818 489.8 470.05 491.568 470.05 493.75C470.05 495.932 471.818 497.7 474 497.7Z" fill="black" stroke="black" stroke-width="3.95"/>
<path d="M711 398.95C713.182 398.95 714.95 397.182 714.95 395C714.95 392.818 713.182 391.05 711 391.05C708.818 391.05 707.05 392.818 707.05 395C707.05 397.182 708.818 398.95 711 398.95Z" fill="black" stroke="black" stroke-width="3.95"/>
<path d="M711 161.95C713.182 161.95 714.95 160.182 714.95 158C714.95 155.818 713.182 154.05 711 154.05C708.818 154.05 707.05 155.818 707.05 158C707.05 160.182 708.818 161.95 711 161.95Z" fill="black" stroke="black" stroke-width="3.95"/>
<path d="M711 280.45C713.182 280.45 714.95 278.682 714.95 276.5C714.95 274.318 713.182 272.55 711 272.55C708.818 272.55 707.05 274.318 707.05 276.5C707.05 278.682 708.818 280.45 711 280.45Z" fill="black" stroke="black" stroke-width="3.95"/>
</svg>
