<svg width="790" height="553" viewBox="0 0 790 553" fill="none" xmlns="http://www.w3.org/2000/svg">
<rect width="790" height="553" fill="white"/>
<path d="M434.499 187.25H478.001" stroke="black" stroke-width="3.95" stroke-linecap="square"/>
<path d="M477.95 171.7V203.3V171.7ZM477.95 187.5L448.325 203.3V171.7L477.95 187.5Z" stroke="black" stroke-width="3.95" stroke-linecap="square"/>
<path d="M487.825 148L479.925 151.95L483.875 155.9L487.825 148ZM487.825 148L479.925 151.95M470.05 165.775L485.85 149.975L470.05 165.775Z" stroke="black" stroke-width="3.95" stroke-linecap="square"/>
<path d="M499.675 161.825L491.775 165.775L495.725 169.725L499.675 161.825ZM499.675 161.825L491.775 165.775M481.9 179.6L497.7 163.8L481.9 179.6Z" stroke="black" stroke-width="3.95" stroke-linecap="square"/>
<path d="M671.5 187.5H711" stroke="black" stroke-width="3.95" stroke-linecap="square"/>
<path d="M711 49V453" stroke="black" stroke-width="3.95" stroke-linecap="square"/>
<path d="M535 188L572.751 187.5" stroke="black" stroke-width="3.95" stroke-linecap="square"/>
<path d="M482 128.125H533.25" stroke="#FF0000" stroke-width="3.95" stroke-linecap="square"/>
<path d="M493.75 247H533.25" stroke="#0144EF" stroke-width="3.95" stroke-linecap="square"/>
<path d="M482 187H529" stroke="#01EF19" stroke-width="3.95" stroke-linecap="square"/>
<path d="M533.25 128.25V187.5" stroke="black" stroke-width="3.95" stroke-linecap="square"/>
<path d="M533.25 187.5V246.75" stroke="black" stroke-width="3.95" stroke-linecap="square"/>
<path d="M355.5 49.25H711" stroke="black" stroke-width="3.95" stroke-linecap="square"/>
<path d="M395 128.25H434.5" stroke="black" stroke-width="3.95" stroke-linecap="square"/>
<path d="M395 128.25V207.25" stroke="black" stroke-width="3.95" stroke-linecap="square"/>
<path d="M355.5 49.25V148" stroke="black" stroke-width="3.95" stroke-linecap="square"/>
<path d="M335.75 148H355.5" stroke="black" stroke-width="3.95" stroke-linecap="square"/>
<path d="M335.75 207.25H395" stroke="black" stroke-width="3.95" stroke-linecap="square"/>
<path d="M335.75 246.875H478" stroke="black" stroke-width="3.95" stroke-linecap="square"/>
<path d="M572.75 187.5H582.625" stroke="black" stroke-width="3.95" stroke-linecap="square"/>
<path d="M661.625 187.5H671.5" stroke="black" stroke-width="3.95" stroke-linecap="square"/>
<path d="M582.625 187.5H586.575L592.5 173.675L604.35 201.325L616.2 173.675L628.05 201.325L639.9 173.675L651.75 201.325L657.675 187.5H661.625" stroke="black" stroke-width="3.95" stroke-linecap="square"/>
<path d="M593.526 154.02L595.435 153.765C595.655 154.847 596.026 155.629 596.549 156.109C597.08 156.583 597.723 156.82 598.48 156.82C599.378 156.82 600.135 156.509 600.75 155.887C601.372 155.264 601.684 154.494 601.684 153.574C601.684 152.697 601.397 151.976 600.824 151.41C600.251 150.837 599.523 150.551 598.639 150.551C598.278 150.551 597.829 150.622 597.292 150.763L597.504 149.087C597.631 149.101 597.734 149.108 597.812 149.108C598.625 149.108 599.357 148.896 600.008 148.472C600.658 148.047 600.983 147.393 600.983 146.509C600.983 145.809 600.747 145.229 600.273 144.77C599.799 144.31 599.187 144.08 598.438 144.08C597.695 144.08 597.076 144.314 596.581 144.78C596.086 145.247 595.768 145.947 595.626 146.881L593.717 146.541C593.95 145.261 594.481 144.271 595.308 143.571C596.136 142.864 597.165 142.51 598.395 142.51C599.244 142.51 600.025 142.694 600.739 143.062C601.454 143.422 601.998 143.917 602.373 144.547C602.755 145.176 602.946 145.845 602.946 146.552C602.946 147.224 602.766 147.835 602.405 148.387C602.044 148.939 601.51 149.377 600.803 149.702C601.722 149.914 602.437 150.356 602.946 151.028C603.455 151.693 603.71 152.528 603.71 153.532C603.71 154.89 603.215 156.042 602.225 156.99C601.234 157.931 599.983 158.401 598.469 158.401C597.104 158.401 595.969 157.994 595.064 157.181C594.166 156.368 593.653 155.314 593.526 154.02ZM605.619 154.02L607.529 153.765C607.748 154.847 608.119 155.629 608.642 156.109C609.173 156.583 609.816 156.82 610.573 156.82C611.471 156.82 612.228 156.509 612.843 155.887C613.465 155.264 613.777 154.494 613.777 153.574C613.777 152.697 613.49 151.976 612.917 151.41C612.345 150.837 611.616 150.551 610.732 150.551C610.371 150.551 609.922 150.622 609.385 150.763L609.597 149.087C609.724 149.101 609.827 149.108 609.905 149.108C610.718 149.108 611.45 148.896 612.101 148.472C612.751 148.047 613.076 147.393 613.076 146.509C613.076 145.809 612.84 145.229 612.366 144.77C611.892 144.31 611.28 144.08 610.531 144.08C609.788 144.08 609.169 144.314 608.674 144.78C608.179 145.247 607.861 145.947 607.719 146.881L605.81 146.541C606.043 145.261 606.574 144.271 607.401 143.571C608.229 142.864 609.258 142.51 610.488 142.51C611.337 142.51 612.118 142.694 612.832 143.062C613.547 143.422 614.091 143.917 614.466 144.547C614.848 145.176 615.039 145.845 615.039 146.552C615.039 147.224 614.859 147.835 614.498 148.387C614.137 148.939 613.603 149.377 612.896 149.702C613.815 149.914 614.53 150.356 615.039 151.028C615.548 151.693 615.803 152.528 615.803 153.532C615.803 154.89 615.308 156.042 614.318 156.99C613.328 157.931 612.076 158.401 610.562 158.401C609.197 158.401 608.062 157.994 607.157 157.181C606.259 156.368 605.746 155.314 605.619 154.02ZM617.701 150.455C617.701 148.617 617.889 147.139 618.264 146.021C618.646 144.897 619.208 144.031 619.95 143.422C620.7 142.814 621.641 142.51 622.772 142.51C623.607 142.51 624.339 142.68 624.968 143.019C625.597 143.352 626.117 143.836 626.527 144.473C626.937 145.102 627.259 145.873 627.493 146.785C627.726 147.69 627.843 148.914 627.843 150.455C627.843 152.28 627.655 153.755 627.28 154.879C626.906 155.996 626.343 156.863 625.594 157.478C624.851 158.086 623.911 158.39 622.772 158.39C621.273 158.39 620.095 157.853 619.24 156.778C618.214 155.484 617.701 153.376 617.701 150.455ZM619.664 150.455C619.664 153.008 619.961 154.709 620.555 155.558C621.156 156.399 621.895 156.82 622.772 156.82C623.649 156.82 624.384 156.396 624.979 155.547C625.58 154.699 625.88 153.001 625.88 150.455C625.88 147.895 625.58 146.195 624.979 145.353C624.384 144.512 623.642 144.091 622.751 144.091C621.874 144.091 621.174 144.462 620.65 145.205C619.993 146.152 619.664 147.903 619.664 150.455ZM640.201 156.428C639.437 155.954 638.854 155.494 638.451 155.049C637.835 154.37 637.361 153.574 637.029 152.662C636.697 151.743 636.531 150.728 636.531 149.617C636.531 148.231 636.81 146.958 637.369 145.799C637.934 144.632 638.751 143.737 639.819 143.115C640.894 142.492 642.124 142.181 643.511 142.181C645.887 142.181 647.711 143.079 648.984 144.876C649.911 146.191 650.374 147.775 650.374 149.628C650.374 150.816 650.183 151.87 649.801 152.789C649.419 153.702 648.921 154.486 648.305 155.144C647.931 155.554 647.404 155.982 646.725 156.428L650.586 156.364V158.125H644.486V156.247C645.052 155.965 645.491 155.689 645.802 155.42C646.311 154.989 646.742 154.476 647.096 153.882C647.45 153.288 647.715 152.655 647.892 151.983C648.075 151.311 648.167 150.611 648.167 149.883C648.167 148.907 647.991 147.927 647.637 146.944C647.29 145.954 646.76 145.201 646.046 144.685C645.339 144.169 644.479 143.91 643.468 143.91C642.117 143.91 641.071 144.335 640.328 145.183C639.296 146.379 638.779 147.934 638.779 149.851C638.779 151.385 639.101 152.704 639.745 153.808C640.388 154.904 641.276 155.706 642.407 156.216V158.125H636.287V156.343L640.201 156.428Z" fill="black"/>
<path d="M434.5 128.25L476 127.987" stroke="black" stroke-width="3.95" stroke-linecap="square"/>
<path d="M477.95 112.45V144.05V112.45ZM477.95 128.25L448.325 144.05V112.45L477.95 128.25Z" stroke="black" stroke-width="3.95" stroke-linecap="square"/>
<path d="M487.825 88.75L479.925 92.7L483.875 96.65L487.825 88.75ZM487.825 88.75L479.925 92.7M470.05 106.525L485.85 90.725L470.05 106.525Z" stroke="black" stroke-width="3.95" stroke-linecap="square"/>
<path d="M499.675 102.575L491.775 106.525L495.725 110.475L499.675 102.575ZM499.675 102.575L491.775 106.525M481.9 120.35L497.7 104.55L481.9 120.35Z" stroke="black" stroke-width="3.95" stroke-linecap="square"/>
<path d="M477.999 247H493.751" stroke="#0144EF" stroke-width="3.95" stroke-linecap="square"/>
<path d="M477.95 230.95V262.55V230.95ZM477.95 246.75L448.325 262.55V230.95L477.95 246.75Z" stroke="black" stroke-width="3.95" stroke-linecap="square"/>
<path d="M487.825 207.25L479.925 211.2L483.875 215.15L487.825 207.25ZM487.825 207.25L479.925 211.2M470.05 225.025L485.85 209.225L470.05 225.025Z" stroke="black" stroke-width="3.95" stroke-linecap="square"/>
<path d="M499.675 221.075L491.775 225.025L495.725 228.975L499.675 221.075ZM499.675 221.075L491.775 225.025M481.9 238.85L497.7 223.05L481.9 238.85Z" stroke="black" stroke-width="3.95" stroke-linecap="square"/>
<path d="M671.5 454.25H711" stroke="black" stroke-width="3.95" stroke-linecap="square"/>
<path d="M572.75 454.25H582.625" stroke="black" stroke-width="3.95" stroke-linecap="square"/>
<path d="M661.625 454.25H671.5" stroke="black" stroke-width="3.95" stroke-linecap="square"/>
<path d="M582.625 454.25H586.575L592.5 440.425L604.35 468.075L616.2 440.425L628.05 468.075L639.9 440.425L651.75 468.075L657.675 454.25H661.625" stroke="black" stroke-width="3.95" stroke-linecap="square"/>
<path d="M601.323 424.875H599.413V412.708C598.954 413.146 598.349 413.585 597.6 414.023C596.857 414.462 596.189 414.79 595.595 415.01V413.164C596.662 412.662 597.596 412.054 598.395 411.339C599.194 410.625 599.76 409.932 600.092 409.26H601.323V424.875ZM606.224 417.205C606.224 415.367 606.411 413.889 606.786 412.771C607.168 411.647 607.73 410.781 608.473 410.172C609.222 409.564 610.163 409.26 611.294 409.26C612.129 409.26 612.861 409.43 613.49 409.769C614.12 410.102 614.639 410.586 615.05 411.223C615.46 411.852 615.781 412.623 616.015 413.535C616.248 414.44 616.365 415.664 616.365 417.205C616.365 419.03 616.177 420.505 615.803 421.629C615.428 422.746 614.866 423.613 614.116 424.228C613.373 424.836 612.433 425.14 611.294 425.14C609.795 425.14 608.618 424.603 607.762 423.528C606.736 422.234 606.224 420.126 606.224 417.205ZM608.186 417.205C608.186 419.758 608.483 421.459 609.077 422.308C609.678 423.149 610.417 423.57 611.294 423.57C612.171 423.57 612.907 423.146 613.501 422.297C614.102 421.449 614.402 419.751 614.402 417.205C614.402 414.645 614.102 412.945 613.501 412.103C612.907 411.262 612.164 410.841 611.273 410.841C610.396 410.841 609.696 411.212 609.173 411.955C608.515 412.902 608.186 414.653 608.186 417.205ZM624.904 424.875V409.324H626.814V418.192L631.333 413.609H633.804L629.497 417.789L634.239 424.875H631.884L628.161 419.115L626.814 420.409V424.875H624.904ZM639.586 423.178C638.822 422.704 638.238 422.244 637.835 421.799C637.22 421.12 636.746 420.324 636.414 419.412C636.081 418.493 635.915 417.478 635.915 416.367C635.915 414.981 636.195 413.708 636.753 412.549C637.319 411.382 638.136 410.487 639.204 409.865C640.279 409.242 641.509 408.931 642.895 408.931C645.271 408.931 647.096 409.829 648.369 411.626C649.295 412.941 649.759 414.525 649.759 416.378C649.759 417.566 649.568 418.62 649.186 419.539C648.804 420.452 648.305 421.236 647.69 421.894C647.315 422.304 646.788 422.732 646.109 423.178L649.971 423.114V424.875H643.871V422.997C644.437 422.715 644.875 422.439 645.187 422.17C645.696 421.739 646.127 421.226 646.481 420.632C646.834 420.038 647.1 419.405 647.276 418.733C647.46 418.061 647.552 417.361 647.552 416.633C647.552 415.657 647.375 414.677 647.022 413.694C646.675 412.704 646.145 411.951 645.431 411.435C644.723 410.919 643.864 410.66 642.853 410.66C641.502 410.66 640.455 411.085 639.713 411.933C638.68 413.129 638.164 414.684 638.164 416.601C638.164 418.135 638.486 419.454 639.129 420.558C639.773 421.654 640.661 422.456 641.792 422.966V424.875H635.671V423.093L639.586 423.178Z" fill="black"/>
<path d="M429.708 311V295.449H436.603C437.989 295.449 439.043 295.59 439.764 295.873C440.486 296.149 441.062 296.64 441.493 297.348C441.925 298.055 442.14 298.836 442.14 299.692C442.14 300.795 441.783 301.725 441.069 302.482C440.355 303.239 439.251 303.719 437.759 303.925C438.304 304.186 438.718 304.444 439 304.699C439.602 305.251 440.171 305.94 440.708 306.767L443.413 311H440.825L438.767 307.765C438.166 306.831 437.671 306.117 437.282 305.622C436.893 305.127 436.543 304.78 436.232 304.582C435.928 304.384 435.616 304.246 435.298 304.169C435.065 304.119 434.683 304.094 434.153 304.094H431.766V311H429.708ZM431.766 302.312H436.189C437.13 302.312 437.865 302.217 438.396 302.026C438.926 301.828 439.329 301.517 439.605 301.092C439.881 300.661 440.019 300.194 440.019 299.692C440.019 298.956 439.75 298.352 439.213 297.878C438.682 297.404 437.841 297.167 436.688 297.167H431.766V302.312ZM452.653 304.9V303.076L459.24 303.065V308.836C458.229 309.642 457.186 310.25 456.111 310.661C455.036 311.064 453.933 311.265 452.801 311.265C451.274 311.265 449.884 310.94 448.632 310.289C447.388 309.632 446.447 308.684 445.811 307.446C445.174 306.209 444.856 304.826 444.856 303.299C444.856 301.785 445.171 300.374 445.8 299.066C446.437 297.751 447.349 296.775 448.537 296.138C449.725 295.502 451.093 295.184 452.642 295.184C453.767 295.184 454.781 295.367 455.687 295.735C456.599 296.096 457.313 296.602 457.829 297.252C458.346 297.903 458.738 298.751 459.007 299.798L457.151 300.307C456.917 299.515 456.627 298.893 456.281 298.44C455.934 297.988 455.439 297.627 454.796 297.358C454.152 297.082 453.438 296.945 452.653 296.945C451.712 296.945 450.899 297.089 450.213 297.379C449.527 297.662 448.972 298.037 448.548 298.504C448.13 298.971 447.805 299.483 447.572 300.042C447.176 301.004 446.978 302.047 446.978 303.171C446.978 304.557 447.214 305.717 447.688 306.651C448.169 307.584 448.866 308.277 449.778 308.73C450.69 309.183 451.659 309.409 452.685 309.409C453.576 309.409 454.446 309.239 455.294 308.9C456.143 308.553 456.786 308.185 457.225 307.796V304.9H452.653ZM462.2 311V295.449H468.034C469.222 295.449 470.174 295.608 470.888 295.926C471.609 296.237 472.171 296.722 472.574 297.379C472.985 298.03 473.19 298.713 473.19 299.427C473.19 300.092 473.009 300.717 472.649 301.304C472.288 301.891 471.743 302.365 471.015 302.726C471.956 303.002 472.677 303.472 473.179 304.137C473.688 304.801 473.943 305.586 473.943 306.492C473.943 307.22 473.787 307.899 473.476 308.528C473.172 309.151 472.794 309.632 472.341 309.971C471.888 310.31 471.319 310.569 470.633 310.745C469.954 310.915 469.12 311 468.13 311H462.2ZM464.258 301.983H467.621C468.533 301.983 469.187 301.923 469.583 301.803C470.106 301.647 470.499 301.389 470.76 301.029C471.029 300.668 471.164 300.215 471.164 299.671C471.164 299.155 471.04 298.702 470.792 298.313C470.545 297.917 470.191 297.648 469.732 297.507C469.272 297.358 468.483 297.284 467.366 297.284H464.258V301.983ZM464.258 309.165H468.13C468.794 309.165 469.261 309.14 469.53 309.091C470.004 309.006 470.4 308.864 470.718 308.666C471.036 308.468 471.298 308.182 471.503 307.807C471.708 307.425 471.811 306.987 471.811 306.492C471.811 305.912 471.662 305.41 471.365 304.985C471.068 304.554 470.654 304.253 470.124 304.084C469.601 303.907 468.844 303.818 467.854 303.818H464.258V309.165ZM482.737 311V295.449H484.795V309.165H492.454V311H482.737ZM494.957 311V295.449H506.202V297.284H497.015V302.047H505.618V303.871H497.015V309.165H506.562V311H494.957ZM509.405 311V295.449H514.762C515.971 295.449 516.894 295.523 517.531 295.672C518.422 295.877 519.182 296.248 519.811 296.785C520.632 297.478 521.244 298.366 521.647 299.448C522.057 300.523 522.262 301.753 522.262 303.14C522.262 304.321 522.124 305.367 521.848 306.279C521.572 307.192 521.219 307.948 520.787 308.55C520.356 309.144 519.882 309.614 519.366 309.96C518.857 310.3 518.238 310.558 517.51 310.735C516.788 310.912 515.957 311 515.017 311H509.405ZM511.463 309.165H514.783C515.809 309.165 516.611 309.069 517.191 308.878C517.778 308.687 518.245 308.419 518.592 308.072C519.08 307.584 519.458 306.93 519.727 306.11C520.002 305.282 520.14 304.282 520.14 303.108C520.14 301.481 519.872 300.233 519.334 299.363C518.804 298.486 518.157 297.899 517.393 297.602C516.841 297.39 515.954 297.284 514.73 297.284H511.463V309.165ZM440.772 330.548L442.83 331.067C442.398 332.758 441.621 334.048 440.496 334.939C439.379 335.823 438.01 336.265 436.391 336.265C434.715 336.265 433.35 335.926 432.296 335.247C431.25 334.561 430.45 333.571 429.899 332.277C429.354 330.982 429.082 329.593 429.082 328.108C429.082 326.488 429.39 325.077 430.005 323.875C430.627 322.666 431.508 321.75 432.646 321.128C433.792 320.498 435.051 320.184 436.423 320.184C437.979 320.184 439.287 320.58 440.348 321.372C441.408 322.164 442.147 323.278 442.565 324.713L440.539 325.191C440.178 324.059 439.655 323.235 438.969 322.719C438.283 322.203 437.42 321.945 436.38 321.945C435.185 321.945 434.184 322.231 433.378 322.804C432.579 323.377 432.017 324.147 431.692 325.116C431.366 326.078 431.204 327.072 431.204 328.097C431.204 329.42 431.395 330.576 431.776 331.566C432.165 332.549 432.766 333.284 433.58 333.772C434.393 334.26 435.273 334.504 436.221 334.504C437.374 334.504 438.35 334.172 439.149 333.507C439.948 332.842 440.489 331.856 440.772 330.548ZM444.421 330.367C444.421 328.281 445.001 326.736 446.161 325.732C447.13 324.897 448.311 324.48 449.704 324.48C451.253 324.48 452.518 324.989 453.501 326.007C454.484 327.019 454.976 328.419 454.976 330.208C454.976 331.658 454.757 332.8 454.318 333.634C453.887 334.462 453.254 335.105 452.419 335.565C451.592 336.025 450.687 336.255 449.704 336.255C448.127 336.255 446.85 335.749 445.874 334.738C444.905 333.726 444.421 332.27 444.421 330.367ZM446.384 330.367C446.384 331.81 446.698 332.892 447.328 333.613C447.957 334.327 448.749 334.685 449.704 334.685C450.651 334.685 451.44 334.324 452.069 333.603C452.699 332.881 453.013 331.782 453.013 330.304C453.013 328.91 452.695 327.857 452.059 327.142C451.429 326.421 450.644 326.06 449.704 326.06C448.749 326.06 447.957 326.418 447.328 327.132C446.698 327.846 446.384 328.925 446.384 330.367ZM457.225 336V324.734H458.933V326.315C459.286 325.763 459.757 325.321 460.344 324.989C460.93 324.65 461.599 324.48 462.348 324.48C463.183 324.48 463.865 324.653 464.396 325C464.933 325.346 465.312 325.831 465.531 326.453C466.422 325.137 467.582 324.48 469.01 324.48C470.128 324.48 470.987 324.791 471.588 325.413C472.189 326.029 472.49 326.98 472.49 328.267V336H470.591V328.903C470.591 328.14 470.527 327.591 470.4 327.259C470.28 326.92 470.057 326.647 469.732 326.442C469.406 326.237 469.024 326.135 468.586 326.135C467.794 326.135 467.136 326.4 466.613 326.93C466.089 327.454 465.828 328.295 465.828 329.455V336H463.918V328.681C463.918 327.832 463.763 327.195 463.452 326.771C463.14 326.347 462.631 326.135 461.924 326.135C461.387 326.135 460.888 326.276 460.428 326.559C459.976 326.842 459.647 327.256 459.442 327.8C459.237 328.345 459.134 329.13 459.134 330.155V336H457.225ZM475.322 336V324.734H477.03V326.315C477.383 325.763 477.854 325.321 478.441 324.989C479.028 324.65 479.696 324.48 480.446 324.48C481.28 324.48 481.962 324.653 482.493 325C483.03 325.346 483.409 325.831 483.628 326.453C484.519 325.137 485.679 324.48 487.107 324.48C488.225 324.48 489.084 324.791 489.685 325.413C490.286 326.029 490.587 326.98 490.587 328.267V336H488.688V328.903C488.688 328.14 488.624 327.591 488.497 327.259C488.377 326.92 488.154 326.647 487.829 326.442C487.503 326.237 487.121 326.135 486.683 326.135C485.891 326.135 485.233 326.4 484.71 326.93C484.187 327.454 483.925 328.295 483.925 329.455V336H482.015V328.681C482.015 327.832 481.86 327.195 481.549 326.771C481.238 326.347 480.728 326.135 480.021 326.135C479.484 326.135 478.985 326.276 478.525 326.559C478.073 326.842 477.744 327.256 477.539 327.8C477.334 328.345 477.231 329.13 477.231 330.155V336H475.322ZM492.708 330.367C492.708 328.281 493.288 326.736 494.448 325.732C495.417 324.897 496.598 324.48 497.991 324.48C499.54 324.48 500.806 324.989 501.789 326.007C502.772 327.019 503.263 328.419 503.263 330.208C503.263 331.658 503.044 332.8 502.605 333.634C502.174 334.462 501.541 335.105 500.707 335.565C499.879 336.025 498.974 336.255 497.991 336.255C496.414 336.255 495.137 335.749 494.162 334.738C493.193 333.726 492.708 332.27 492.708 330.367ZM494.671 330.367C494.671 331.81 494.985 332.892 495.615 333.613C496.244 334.327 497.036 334.685 497.991 334.685C498.939 334.685 499.727 334.324 500.357 333.603C500.986 332.881 501.301 331.782 501.301 330.304C501.301 328.91 500.982 327.857 500.346 327.142C499.717 326.421 498.932 326.06 497.991 326.06C497.036 326.06 496.244 326.418 495.615 327.132C494.985 327.846 494.671 328.925 494.671 330.367ZM505.512 336V324.734H507.23V326.336C508.058 325.099 509.253 324.48 510.816 324.48C511.495 324.48 512.117 324.604 512.683 324.851C513.256 325.092 513.684 325.41 513.967 325.806C514.249 326.202 514.447 326.672 514.561 327.217C514.631 327.57 514.667 328.189 514.667 329.073V336H512.757V329.147C512.757 328.369 512.683 327.789 512.534 327.408C512.386 327.019 512.121 326.711 511.739 326.485C511.364 326.251 510.922 326.135 510.413 326.135C509.6 326.135 508.896 326.393 508.302 326.909C507.715 327.425 507.421 328.405 507.421 329.847V336H505.512ZM534.991 330.548L537.049 331.067C536.618 332.758 535.84 334.048 534.716 334.939C533.598 335.823 532.23 336.265 530.61 336.265C528.934 336.265 527.569 335.926 526.516 335.247C525.469 334.561 524.67 333.571 524.118 332.277C523.574 330.982 523.301 329.593 523.301 328.108C523.301 326.488 523.609 325.077 524.224 323.875C524.847 322.666 525.727 321.75 526.866 321.128C528.011 320.498 529.27 320.184 530.642 320.184C532.198 320.184 533.506 320.58 534.567 321.372C535.628 322.164 536.367 323.278 536.784 324.713L534.758 325.191C534.397 324.059 533.874 323.235 533.188 322.719C532.502 322.203 531.639 321.945 530.6 321.945C529.405 321.945 528.404 322.231 527.598 322.804C526.799 323.377 526.236 324.147 525.911 325.116C525.586 326.078 525.423 327.072 525.423 328.097C525.423 329.42 525.614 330.576 525.996 331.566C526.385 332.549 526.986 333.284 527.799 333.772C528.612 334.26 529.493 334.504 530.441 334.504C531.593 334.504 532.569 334.172 533.368 333.507C534.168 332.842 534.709 331.856 534.991 330.548ZM546.703 334.61C545.995 335.211 545.313 335.636 544.655 335.883C544.005 336.131 543.304 336.255 542.555 336.255C541.317 336.255 540.366 335.954 539.701 335.353C539.037 334.745 538.704 333.97 538.704 333.03C538.704 332.478 538.828 331.976 539.075 331.523C539.33 331.064 539.659 330.696 540.062 330.42C540.472 330.144 540.932 329.936 541.441 329.794C541.816 329.695 542.382 329.6 543.138 329.508C544.68 329.324 545.815 329.105 546.543 328.85C546.55 328.589 546.554 328.422 546.554 328.352C546.554 327.574 546.374 327.026 546.013 326.707C545.525 326.276 544.8 326.06 543.838 326.06C542.94 326.06 542.275 326.22 541.844 326.538C541.42 326.849 541.105 327.404 540.9 328.203L539.033 327.949C539.203 327.149 539.482 326.506 539.871 326.018C540.26 325.523 540.822 325.145 541.558 324.883C542.293 324.614 543.145 324.48 544.114 324.48C545.076 324.48 545.857 324.593 546.459 324.819C547.06 325.046 547.502 325.332 547.785 325.679C548.067 326.018 548.265 326.449 548.379 326.973C548.442 327.298 548.474 327.885 548.474 328.734V331.279C548.474 333.055 548.513 334.179 548.591 334.653C548.676 335.12 548.838 335.569 549.079 336H547.084C546.886 335.604 546.759 335.141 546.703 334.61ZM546.543 330.346C545.85 330.629 544.811 330.869 543.425 331.067C542.64 331.18 542.085 331.308 541.759 331.449C541.434 331.591 541.183 331.799 541.006 332.075C540.829 332.344 540.741 332.644 540.741 332.977C540.741 333.486 540.932 333.91 541.314 334.25C541.703 334.589 542.268 334.759 543.011 334.759C543.746 334.759 544.401 334.6 544.973 334.282C545.546 333.956 545.967 333.514 546.236 332.956C546.441 332.524 546.543 331.888 546.543 331.046V330.346ZM555.613 334.292L555.889 335.979C555.351 336.092 554.871 336.149 554.446 336.149C553.753 336.149 553.216 336.039 552.834 335.82C552.452 335.6 552.183 335.314 552.028 334.96C551.872 334.6 551.794 333.847 551.794 332.701V326.22H550.394V324.734H551.794V321.945L553.693 320.799V324.734H555.613V326.22H553.693V332.807C553.693 333.352 553.725 333.702 553.789 333.857C553.859 334.013 553.969 334.137 554.117 334.228C554.273 334.32 554.492 334.366 554.775 334.366C554.987 334.366 555.267 334.342 555.613 334.292ZM557.491 336V320.449H559.4V326.029C560.291 324.996 561.416 324.48 562.773 324.48C563.608 324.48 564.333 324.646 564.948 324.978C565.563 325.304 566.002 325.756 566.263 326.336C566.532 326.916 566.667 327.758 566.667 328.861V336H564.757V328.861C564.757 327.906 564.549 327.213 564.131 326.782C563.721 326.343 563.138 326.124 562.381 326.124C561.815 326.124 561.281 326.273 560.779 326.57C560.284 326.86 559.931 327.256 559.718 327.758C559.506 328.26 559.4 328.953 559.4 329.837V336H557.491ZM568.873 330.367C568.873 328.281 569.453 326.736 570.613 325.732C571.582 324.897 572.763 324.48 574.156 324.48C575.705 324.48 576.97 324.989 577.953 326.007C578.936 327.019 579.428 328.419 579.428 330.208C579.428 331.658 579.209 332.8 578.77 333.634C578.339 334.462 577.706 335.105 576.871 335.565C576.044 336.025 575.139 336.255 574.156 336.255C572.579 336.255 571.302 335.749 570.326 334.738C569.357 333.726 568.873 332.27 568.873 330.367ZM570.836 330.367C570.836 331.81 571.15 332.892 571.78 333.613C572.409 334.327 573.201 334.685 574.156 334.685C575.103 334.685 575.892 334.324 576.521 333.603C577.151 332.881 577.465 331.782 577.465 330.304C577.465 328.91 577.147 327.857 576.511 327.142C575.881 326.421 575.096 326.06 574.156 326.06C573.201 326.06 572.409 326.418 571.78 327.132C571.15 327.846 570.836 328.925 570.836 330.367ZM588.986 336V334.579C588.271 335.696 587.221 336.255 585.835 336.255C584.937 336.255 584.11 336.007 583.353 335.512C582.603 335.017 582.02 334.327 581.603 333.443C581.192 332.552 580.987 331.531 580.987 330.378C580.987 329.253 581.175 328.235 581.549 327.323C581.924 326.403 582.487 325.7 583.236 325.212C583.986 324.724 584.824 324.48 585.75 324.48C586.429 324.48 587.034 324.625 587.564 324.915C588.095 325.198 588.526 325.569 588.858 326.029V320.449H590.757V336H588.986ZM582.95 330.378C582.95 331.82 583.254 332.899 583.862 333.613C584.47 334.327 585.188 334.685 586.015 334.685C586.85 334.685 587.557 334.345 588.137 333.666C588.724 332.98 589.017 331.937 589.017 330.537C589.017 328.995 588.72 327.864 588.126 327.142C587.532 326.421 586.8 326.06 585.931 326.06C585.082 326.06 584.371 326.407 583.798 327.1C583.233 327.793 582.95 328.886 582.95 330.378ZM601.482 332.372L603.455 332.616C603.144 333.769 602.567 334.663 601.726 335.3C600.884 335.936 599.809 336.255 598.501 336.255C596.853 336.255 595.545 335.749 594.576 334.738C593.614 333.719 593.133 332.294 593.133 330.463C593.133 328.567 593.621 327.096 594.597 326.05C595.573 325.003 596.839 324.48 598.395 324.48C599.901 324.48 601.132 324.993 602.086 326.018C603.041 327.043 603.518 328.486 603.518 330.346C603.518 330.459 603.515 330.629 603.508 330.855H595.106C595.177 332.093 595.527 333.04 596.157 333.698C596.786 334.356 597.571 334.685 598.512 334.685C599.212 334.685 599.809 334.501 600.304 334.133C600.799 333.765 601.192 333.178 601.482 332.372ZM595.212 329.285H601.503C601.418 328.338 601.178 327.627 600.782 327.153C600.173 326.418 599.385 326.05 598.416 326.05C597.539 326.05 596.8 326.343 596.199 326.93C595.605 327.517 595.276 328.302 595.212 329.285Z" fill="black"/>
<path d="M533.25 454.25H572.75" stroke="black" stroke-width="3.95" stroke-linecap="square"/>
<path d="M513.75 405.999V455.999" stroke="black" stroke-width="3.95" stroke-linecap="square"/>
<path d="M474 454.25H533.25" stroke="black" stroke-width="3.95" stroke-linecap="square"/>
<path d="M335.75 405.75H513.5" stroke="black" stroke-width="3.95" stroke-linecap="square"/>
<path d="M375.25 454.25H414.75" stroke="black" stroke-width="3.95" stroke-linecap="square"/>
<path d="M375.25 454.25V513.5" stroke="black" stroke-width="3.95" stroke-linecap="square"/>
<path d="M39.5 513.5H375.25" stroke="black" stroke-width="3.95" stroke-linecap="square"/>
<path d="M39.75 248V513.5" stroke="black" stroke-width="3.95" stroke-linecap="square"/>
<path d="M39.5 247.75H79" stroke="black" stroke-width="3.95" stroke-linecap="square"/>
<path d="M414.75 454.25H416.725" stroke="black" stroke-width="3.95" stroke-linecap="square"/>
<path d="M472.025 454.25H474" stroke="black" stroke-width="3.95" stroke-linecap="square"/>
<path d="M422.65 460.175C425.922 460.175 428.575 457.522 428.575 454.25C428.575 450.978 425.922 448.325 422.65 448.325C419.378 448.325 416.725 450.978 416.725 454.25C416.725 457.522 419.378 460.175 422.65 460.175Z" stroke="black" stroke-width="3.95"/>
<path d="M466.1 460.175C469.372 460.175 472.025 457.522 472.025 454.25C472.025 450.978 469.372 448.325 466.1 448.325C462.828 448.325 460.175 450.978 460.175 454.25C460.175 457.522 462.828 460.175 466.1 460.175Z" stroke="black" stroke-width="3.95"/>
<path d="M428.575 450.3L462.15 438.45" stroke="black" stroke-width="3.95" stroke-linecap="square"/>
<path d="M325.875 88.875H88.875V474H325.875V88.875Z" stroke="black" stroke-width="3.95"/>
<path d="M156.943 156.4L162.915 140.849H165.132L171.497 156.4H169.153L167.339 151.69H160.836L159.128 156.4H156.943ZM161.43 150.014H166.702L165.079 145.707C164.584 144.399 164.217 143.324 163.976 142.482C163.778 143.48 163.499 144.47 163.138 145.453L161.43 150.014ZM173.173 156.4V140.849H180.068C181.454 140.849 182.508 140.99 183.23 141.273C183.951 141.549 184.527 142.04 184.959 142.748C185.39 143.455 185.606 144.236 185.606 145.092C185.606 146.195 185.249 147.125 184.534 147.882C183.82 148.639 182.717 149.119 181.225 149.325C181.769 149.586 182.183 149.844 182.466 150.099C183.067 150.651 183.636 151.34 184.174 152.167L186.879 156.4H184.29L182.232 153.165C181.631 152.231 181.136 151.517 180.747 151.022C180.358 150.527 180.008 150.18 179.697 149.982C179.393 149.784 179.082 149.646 178.764 149.568C178.53 149.519 178.148 149.494 177.618 149.494H175.231V156.4H173.173ZM175.231 147.712H179.655C180.595 147.712 181.331 147.617 181.861 147.426C182.392 147.228 182.795 146.917 183.07 146.492C183.346 146.061 183.484 145.594 183.484 145.092C183.484 144.356 183.215 143.752 182.678 143.278C182.148 142.804 181.306 142.567 180.153 142.567H175.231V147.712ZM188.841 156.4V140.849H194.198C195.407 140.849 196.33 140.923 196.967 141.072C197.858 141.277 198.618 141.648 199.247 142.185C200.068 142.878 200.68 143.766 201.083 144.848C201.493 145.923 201.698 147.153 201.698 148.54C201.698 149.721 201.56 150.767 201.284 151.679C201.008 152.592 200.655 153.348 200.223 153.95C199.792 154.544 199.318 155.014 198.802 155.36C198.293 155.7 197.674 155.958 196.946 156.135C196.224 156.312 195.393 156.4 194.453 156.4H188.841ZM190.899 154.565H194.219C195.245 154.565 196.047 154.469 196.627 154.278C197.214 154.087 197.681 153.819 198.028 153.472C198.516 152.984 198.894 152.33 199.163 151.51C199.438 150.682 199.576 149.682 199.576 148.508C199.576 146.881 199.308 145.633 198.77 144.763C198.24 143.886 197.593 143.299 196.829 143.002C196.277 142.79 195.39 142.684 194.166 142.684H190.899V154.565ZM214.746 140.849H216.804V149.834C216.804 151.397 216.627 152.638 216.273 153.557C215.92 154.476 215.28 155.226 214.353 155.806C213.434 156.379 212.225 156.665 210.725 156.665C209.268 156.665 208.077 156.414 207.15 155.912C206.224 155.41 205.563 154.685 205.167 153.737C204.771 152.783 204.573 151.481 204.573 149.834V140.849H206.631V149.823C206.631 151.174 206.754 152.171 207.002 152.815C207.256 153.451 207.688 153.942 208.296 154.289C208.911 154.636 209.661 154.809 210.545 154.809C212.058 154.809 213.137 154.466 213.78 153.78C214.424 153.094 214.746 151.775 214.746 149.823V140.849ZM220.591 156.4V140.849H222.649V156.4H220.591ZM226.266 156.4V140.849H228.377L236.545 153.059V140.849H238.518V156.4H236.407L228.239 144.18V156.4H226.266ZM241.361 148.826C241.361 146.245 242.054 144.226 243.44 142.769C244.826 141.305 246.615 140.573 248.808 140.573C250.243 140.573 251.537 140.916 252.69 141.602C253.843 142.288 254.72 143.246 255.321 144.477C255.929 145.7 256.233 147.09 256.233 148.646C256.233 150.223 255.915 151.634 255.278 152.878C254.642 154.123 253.74 155.067 252.573 155.71C251.407 156.347 250.148 156.665 248.797 156.665C247.333 156.665 246.025 156.312 244.872 155.604C243.719 154.897 242.846 153.932 242.252 152.708C241.658 151.485 241.361 150.191 241.361 148.826ZM243.482 148.858C243.482 150.732 243.985 152.21 244.989 153.292C246 154.367 247.266 154.904 248.786 154.904C250.335 154.904 251.608 154.36 252.605 153.271C253.609 152.182 254.112 150.636 254.112 148.635C254.112 147.369 253.896 146.266 253.465 145.325C253.04 144.378 252.414 143.646 251.587 143.129C250.767 142.606 249.844 142.345 248.818 142.345C247.361 142.345 246.106 142.847 245.052 143.851C244.006 144.848 243.482 146.517 243.482 148.858Z" fill="black"/>
<path d="M182.681 160.599H184.739V169.584C184.739 171.147 184.562 172.388 184.208 173.307C183.855 174.226 183.215 174.976 182.288 175.556C181.369 176.129 180.16 176.415 178.661 176.415C177.204 176.415 176.012 176.164 175.086 175.662C174.159 175.16 173.498 174.435 173.102 173.487C172.706 172.533 172.508 171.231 172.508 169.584V160.599H174.566V169.573C174.566 170.924 174.69 171.921 174.937 172.565C175.192 173.201 175.623 173.692 176.231 174.039C176.847 174.386 177.596 174.559 178.48 174.559C179.994 174.559 181.072 174.216 181.716 173.53C182.359 172.844 182.681 171.525 182.681 169.573V160.599ZM188.155 176.15V160.599H190.266L198.434 172.809V160.599H200.407V176.15H198.296L190.128 163.93V176.15H188.155ZM203.25 168.576C203.25 165.995 203.943 163.976 205.329 162.519C206.715 161.055 208.504 160.323 210.696 160.323C212.132 160.323 213.426 160.666 214.579 161.352C215.732 162.038 216.609 162.996 217.21 164.227C217.818 165.45 218.122 166.84 218.122 168.396C218.122 169.973 217.804 171.384 217.167 172.628C216.531 173.873 215.629 174.817 214.462 175.46C213.295 176.097 212.037 176.415 210.686 176.415C209.222 176.415 207.914 176.062 206.761 175.354C205.608 174.647 204.735 173.682 204.141 172.458C203.547 171.235 203.25 169.941 203.25 168.576ZM205.371 168.608C205.371 170.482 205.873 171.96 206.878 173.042C207.889 174.117 209.155 174.654 210.675 174.654C212.224 174.654 213.497 174.11 214.494 173.021C215.498 171.932 216 170.386 216 168.385C216 167.119 215.785 166.016 215.353 165.075C214.929 164.128 214.303 163.396 213.476 162.879C212.655 162.356 211.732 162.095 210.707 162.095C209.25 162.095 207.995 162.597 206.941 163.601C205.895 164.598 205.371 166.267 205.371 168.608ZM226.566 176.15V164.884H228.284V166.592C228.723 165.793 229.126 165.266 229.494 165.012C229.868 164.757 230.279 164.63 230.724 164.63C231.368 164.63 232.022 164.835 232.687 165.245L232.029 167.017C231.562 166.741 231.095 166.603 230.629 166.603C230.211 166.603 229.837 166.73 229.504 166.985C229.172 167.232 228.935 167.579 228.793 168.024C228.581 168.703 228.475 169.446 228.475 170.252V176.15H226.566ZM233.302 172.045L235.211 171.79C235.431 172.872 235.802 173.654 236.325 174.134C236.856 174.608 237.499 174.845 238.256 174.845C239.154 174.845 239.911 174.534 240.526 173.912C241.148 173.289 241.459 172.519 241.459 171.599C241.459 170.722 241.173 170.001 240.6 169.435C240.027 168.862 239.299 168.576 238.415 168.576C238.054 168.576 237.605 168.647 237.068 168.788L237.28 167.112C237.407 167.126 237.51 167.133 237.587 167.133C238.401 167.133 239.133 166.921 239.783 166.497C240.434 166.072 240.759 165.418 240.759 164.534C240.759 163.834 240.522 163.254 240.048 162.795C239.575 162.335 238.963 162.105 238.213 162.105C237.471 162.105 236.852 162.338 236.357 162.805C235.862 163.272 235.544 163.972 235.402 164.906L233.493 164.566C233.726 163.286 234.257 162.296 235.084 161.596C235.911 160.889 236.94 160.535 238.171 160.535C239.02 160.535 239.801 160.719 240.515 161.087C241.23 161.447 241.774 161.942 242.149 162.572C242.531 163.201 242.722 163.87 242.722 164.577C242.722 165.249 242.541 165.86 242.181 166.412C241.82 166.964 241.286 167.402 240.579 167.727C241.498 167.939 242.213 168.381 242.722 169.053C243.231 169.718 243.485 170.553 243.485 171.557C243.485 172.915 242.99 174.067 242 175.015C241.01 175.956 239.759 176.426 238.245 176.426C236.88 176.426 235.745 176.019 234.84 175.206C233.942 174.393 233.429 173.339 233.302 172.045Z" fill="black"/>
<path d="M79 247.75H93.88" stroke="black" stroke-width="3.95" stroke-linecap="square"/>
<path d="M321 148H336.88" stroke="black" stroke-width="3.95" stroke-linecap="square"/>
<path d="M321 207.25H336.88" stroke="black" stroke-width="3.95" stroke-linecap="square"/>
<path d="M321 246.75H336.88" stroke="black" stroke-width="3.95" stroke-linecap="square"/>
<path d="M321 405.75H335" stroke="black" stroke-width="3.95" stroke-linecap="square"/>
<path d="M98.8011 195.775V180.224H100.859V195.775H98.8011ZM103.872 188.201C103.872 185.62 104.565 183.601 105.951 182.144C107.337 180.68 109.126 179.948 111.318 179.948C112.754 179.948 114.048 180.291 115.201 180.977C116.354 181.663 117.231 182.621 117.832 183.852C118.44 185.075 118.744 186.465 118.744 188.021C118.744 189.598 118.426 191.009 117.789 192.253C117.153 193.498 116.251 194.442 115.084 195.085C113.917 195.722 112.659 196.04 111.308 196.04C109.844 196.04 108.536 195.687 107.383 194.979C106.23 194.272 105.357 193.307 104.763 192.083C104.169 190.86 103.872 189.566 103.872 188.201ZM105.993 188.233C105.993 190.107 106.495 191.585 107.5 192.667C108.511 193.742 109.777 194.279 111.297 194.279C112.846 194.279 114.119 193.735 115.116 192.646C116.12 191.557 116.622 190.011 116.622 188.01C116.622 186.744 116.407 185.641 115.975 184.7C115.551 183.753 114.925 183.021 114.098 182.504C113.277 181.981 112.355 181.72 111.329 181.72C109.872 181.72 108.617 182.222 107.563 183.226C106.517 184.223 105.993 185.892 105.993 188.233ZM121.438 195.775V180.224H128.334C129.72 180.224 130.773 180.365 131.495 180.648C132.216 180.924 132.792 181.415 133.224 182.123C133.655 182.83 133.871 183.611 133.871 184.467C133.871 185.57 133.514 186.5 132.799 187.257C132.085 188.014 130.982 188.494 129.49 188.7C130.034 188.961 130.448 189.219 130.731 189.474C131.332 190.026 131.901 190.715 132.439 191.542L135.144 195.775H132.556L130.498 192.54C129.896 191.606 129.401 190.892 129.012 190.397C128.624 189.902 128.273 189.555 127.962 189.357C127.658 189.159 127.347 189.021 127.029 188.943C126.795 188.894 126.414 188.869 125.883 188.869H123.496V195.775H121.438ZM123.496 187.087H127.92C128.86 187.087 129.596 186.992 130.126 186.801C130.657 186.603 131.06 186.292 131.336 185.867C131.611 185.436 131.749 184.969 131.749 184.467C131.749 183.731 131.481 183.127 130.943 182.653C130.413 182.179 129.571 181.942 128.418 181.942H123.496V187.087ZM137.149 195.775V180.224H148.393V182.059H139.207V186.822H147.81V188.646H139.207V193.94H148.754V195.775H137.149ZM151.703 195.775V180.224H162.194V182.059H153.761V186.875H161.059V188.71H153.761V195.775H151.703Z" fill="black"/>
<path d="M98.4829 215.525V199.974H105.378C106.764 199.974 107.818 200.115 108.539 200.398C109.261 200.674 109.837 201.165 110.268 201.873C110.7 202.58 110.915 203.361 110.915 204.217C110.915 205.32 110.558 206.25 109.844 207.007C109.13 207.764 108.026 208.244 106.534 208.45C107.079 208.711 107.493 208.969 107.775 209.224C108.377 209.776 108.946 210.465 109.483 211.292L112.188 215.525H109.6L107.542 212.29C106.941 211.356 106.446 210.642 106.057 210.147C105.668 209.652 105.318 209.305 105.007 209.107C104.703 208.909 104.392 208.771 104.073 208.693C103.84 208.644 103.458 208.619 102.928 208.619H100.541V215.525H98.4829ZM100.541 206.837H104.964C105.905 206.837 106.64 206.742 107.171 206.551C107.701 206.353 108.104 206.042 108.38 205.617C108.656 205.186 108.794 204.719 108.794 204.217C108.794 203.481 108.525 202.877 107.988 202.403C107.457 201.929 106.616 201.692 105.463 201.692H100.541V206.837ZM114.193 215.525V199.974H125.438V201.809H116.251V206.572H124.854V208.396H116.251V213.69H125.798V215.525H114.193ZM127.941 210.529L129.882 210.359C129.974 211.137 130.186 211.777 130.519 212.279C130.858 212.774 131.382 213.177 132.089 213.488C132.796 213.792 133.592 213.944 134.476 213.944C135.261 213.944 135.954 213.828 136.555 213.594C137.156 213.361 137.601 213.043 137.891 212.64C138.188 212.229 138.337 211.784 138.337 211.303C138.337 210.815 138.195 210.391 137.913 210.03C137.63 209.662 137.163 209.355 136.512 209.107C136.095 208.945 135.172 208.693 133.744 208.354C132.315 208.008 131.314 207.682 130.742 207.378C129.999 206.989 129.444 206.508 129.076 205.935C128.715 205.356 128.535 204.708 128.535 203.994C128.535 203.209 128.758 202.477 129.203 201.798C129.649 201.112 130.3 200.593 131.155 200.239C132.011 199.885 132.962 199.709 134.009 199.709C135.162 199.709 136.176 199.896 137.053 200.271C137.937 200.639 138.616 201.183 139.09 201.904C139.564 202.626 139.818 203.443 139.854 204.355L137.881 204.503C137.775 203.52 137.414 202.778 136.799 202.276C136.19 201.774 135.289 201.523 134.094 201.523C132.849 201.523 131.94 201.752 131.367 202.212C130.802 202.665 130.519 203.213 130.519 203.856C130.519 204.415 130.72 204.875 131.123 205.235C131.519 205.596 132.552 205.967 134.221 206.349C135.897 206.724 137.046 207.053 137.669 207.336C138.574 207.753 139.242 208.283 139.673 208.927C140.105 209.563 140.32 210.299 140.32 211.133C140.32 211.961 140.084 212.742 139.61 213.478C139.136 214.206 138.454 214.775 137.562 215.186C136.678 215.589 135.681 215.79 134.571 215.79C133.164 215.79 131.983 215.585 131.028 215.175C130.08 214.765 129.334 214.15 128.79 213.329C128.252 212.502 127.969 211.568 127.941 210.529ZM143.174 215.525V199.974H154.418V201.809H145.232V206.572H153.835V208.396H145.232V213.69H154.779V215.525H143.174ZM161.579 215.525V201.809H156.455V199.974H168.782V201.809H163.637V215.525H161.579Z" fill="black"/>
<path d="M97.6873 231.17L99.5967 230.915C99.816 231.997 100.187 232.779 100.711 233.259C101.241 233.733 101.885 233.97 102.641 233.97C103.539 233.97 104.296 233.659 104.911 233.037C105.534 232.414 105.845 231.644 105.845 230.724C105.845 229.847 105.558 229.126 104.986 228.56C104.413 227.987 103.684 227.701 102.8 227.701C102.44 227.701 101.991 227.772 101.453 227.913L101.665 226.237C101.793 226.251 101.895 226.258 101.973 226.258C102.786 226.258 103.518 226.046 104.169 225.622C104.819 225.197 105.145 224.543 105.145 223.659C105.145 222.959 104.908 222.379 104.434 221.92C103.96 221.46 103.348 221.23 102.599 221.23C101.856 221.23 101.237 221.463 100.742 221.93C100.247 222.397 99.9291 223.097 99.7877 224.031L97.8782 223.691C98.1116 222.411 98.642 221.421 99.4694 220.721C100.297 220.014 101.326 219.66 102.556 219.66C103.405 219.66 104.186 219.844 104.901 220.212C105.615 220.572 106.159 221.067 106.534 221.697C106.916 222.326 107.107 222.995 107.107 223.702C107.107 224.374 106.927 224.985 106.566 225.537C106.205 226.089 105.672 226.527 104.964 226.852C105.884 227.064 106.598 227.506 107.107 228.178C107.616 228.843 107.871 229.678 107.871 230.682C107.871 232.04 107.376 233.192 106.386 234.14C105.396 235.081 104.144 235.551 102.631 235.551C101.266 235.551 100.131 235.144 99.2255 234.331C98.3273 233.518 97.8146 232.464 97.6873 231.17ZM110.841 235.275V233.1H113.016V235.275H110.841ZM115.827 231.17L117.736 230.915C117.955 231.997 118.327 232.779 118.85 233.259C119.38 233.733 120.024 233.97 120.781 233.97C121.679 233.97 122.436 233.659 123.051 233.037C123.673 232.414 123.984 231.644 123.984 230.724C123.984 229.847 123.698 229.126 123.125 228.56C122.552 227.987 121.824 227.701 120.94 227.701C120.579 227.701 120.13 227.772 119.593 227.913L119.805 226.237C119.932 226.251 120.035 226.258 120.112 226.258C120.926 226.258 121.658 226.046 122.308 225.622C122.959 225.197 123.284 224.543 123.284 223.659C123.284 222.959 123.047 222.379 122.573 221.92C122.1 221.46 121.488 221.23 120.738 221.23C119.996 221.23 119.377 221.463 118.882 221.93C118.387 222.397 118.069 223.097 117.927 224.031L116.018 223.691C116.251 222.411 116.782 221.421 117.609 220.721C118.436 220.014 119.465 219.66 120.696 219.66C121.544 219.66 122.326 219.844 123.04 220.212C123.754 220.572 124.299 221.067 124.674 221.697C125.056 222.326 125.247 222.995 125.247 223.702C125.247 224.374 125.066 224.985 124.706 225.537C124.345 226.089 123.811 226.527 123.104 226.852C124.023 227.064 124.737 227.506 125.247 228.178C125.756 228.843 126.01 229.678 126.01 230.682C126.01 232.04 125.515 233.192 124.525 234.14C123.535 235.081 122.284 235.551 120.77 235.551C119.405 235.551 118.27 235.144 117.365 234.331C116.467 233.518 115.954 232.464 115.827 231.17ZM133.128 235.275L127.103 219.724H129.331L133.372 231.021C133.698 231.926 133.97 232.775 134.189 233.567C134.43 232.718 134.709 231.87 135.027 231.021L139.228 219.724H141.328L135.239 235.275H133.128Z" fill="black"/>
<path d="M97.6767 250.952L99.6816 250.782C99.8301 251.758 100.173 252.493 100.711 252.988C101.255 253.476 101.909 253.72 102.673 253.72C103.592 253.72 104.37 253.374 105.007 252.681C105.643 251.988 105.961 251.068 105.961 249.923C105.961 248.834 105.654 247.974 105.039 247.345C104.43 246.715 103.631 246.401 102.641 246.401C102.026 246.401 101.471 246.542 100.976 246.825C100.481 247.101 100.092 247.462 99.8089 247.907L98.0161 247.674L99.5225 239.686H107.256V241.511H101.05L100.212 245.69C101.145 245.039 102.125 244.714 103.15 244.714C104.508 244.714 105.654 245.184 106.587 246.125C107.521 247.066 107.988 248.275 107.988 249.753C107.988 251.16 107.577 252.377 106.757 253.402C105.76 254.661 104.399 255.29 102.673 255.29C101.259 255.29 100.102 254.894 99.2042 254.102C98.3132 253.31 97.804 252.26 97.6767 250.952ZM114.989 255.025L108.964 239.474H111.191L115.233 250.771C115.558 251.676 115.83 252.525 116.05 253.317C116.29 252.468 116.569 251.62 116.888 250.771L121.088 239.474H123.189L117.1 255.025H114.989Z" fill="black"/>
<path d="M105.728 268.675V266.851L112.316 266.84V272.611C111.304 273.417 110.261 274.025 109.186 274.436C108.111 274.839 107.008 275.04 105.877 275.04C104.349 275.04 102.959 274.715 101.708 274.064C100.463 273.407 99.5225 272.459 98.886 271.221C98.2495 269.984 97.9313 268.601 97.9313 267.074C97.9313 265.56 98.246 264.149 98.8754 262.841C99.5119 261.526 100.424 260.55 101.612 259.913C102.8 259.277 104.169 258.959 105.717 258.959C106.842 258.959 107.857 259.142 108.762 259.51C109.674 259.871 110.389 260.377 110.905 261.027C111.421 261.678 111.814 262.526 112.082 263.573L110.226 264.082C109.992 263.29 109.703 262.668 109.356 262.215C109.009 261.763 108.514 261.402 107.871 261.133C107.227 260.857 106.513 260.72 105.728 260.72C104.788 260.72 103.974 260.864 103.288 261.154C102.602 261.437 102.047 261.812 101.623 262.279C101.206 262.746 100.88 263.258 100.647 263.817C100.251 264.779 100.053 265.822 100.053 266.946C100.053 268.332 100.29 269.492 100.764 270.426C101.244 271.359 101.941 272.052 102.853 272.505C103.766 272.958 104.734 273.184 105.76 273.184C106.651 273.184 107.521 273.014 108.369 272.675C109.218 272.328 109.862 271.96 110.3 271.571V268.675H105.728ZM115.339 274.775V259.224H117.45L125.618 271.434V259.224H127.591V274.775H125.48L117.312 262.555V274.775H115.339ZM131.06 274.775V259.224H136.417C137.626 259.224 138.549 259.298 139.185 259.447C140.077 259.652 140.837 260.023 141.466 260.56C142.286 261.253 142.898 262.141 143.301 263.223C143.711 264.298 143.917 265.528 143.917 266.915C143.917 268.096 143.779 269.142 143.503 270.054C143.227 270.967 142.873 271.723 142.442 272.325C142.011 272.919 141.537 273.389 141.021 273.735C140.511 274.075 139.893 274.333 139.164 274.51C138.443 274.687 137.612 274.775 136.671 274.775H131.06ZM133.118 272.94H136.438C137.463 272.94 138.266 272.844 138.846 272.653C139.433 272.462 139.9 272.194 140.246 271.847C140.734 271.359 141.113 270.705 141.381 269.885C141.657 269.057 141.795 268.057 141.795 266.883C141.795 265.256 141.526 264.008 140.989 263.138C140.458 262.261 139.811 261.674 139.048 261.377C138.496 261.165 137.608 261.059 136.385 261.059H133.118V272.94Z" fill="black"/>
<path d="M105.728 288.425V286.601L112.316 286.59V292.361C111.304 293.167 110.261 293.775 109.186 294.186C108.111 294.589 107.008 294.79 105.877 294.79C104.349 294.79 102.959 294.465 101.708 293.814C100.463 293.157 99.5225 292.209 98.886 290.971C98.2495 289.734 97.9313 288.351 97.9313 286.824C97.9313 285.31 98.246 283.899 98.8754 282.591C99.5119 281.276 100.424 280.3 101.612 279.663C102.8 279.027 104.169 278.709 105.717 278.709C106.842 278.709 107.857 278.892 108.762 279.26C109.674 279.621 110.389 280.127 110.905 280.777C111.421 281.428 111.814 282.276 112.082 283.323L110.226 283.832C109.992 283.04 109.703 282.418 109.356 281.965C109.009 281.513 108.514 281.152 107.871 280.883C107.227 280.607 106.513 280.47 105.728 280.47C104.788 280.47 103.974 280.614 103.288 280.904C102.602 281.187 102.047 281.562 101.623 282.029C101.206 282.496 100.88 283.008 100.647 283.567C100.251 284.529 100.053 285.572 100.053 286.696C100.053 288.082 100.29 289.242 100.764 290.176C101.244 291.109 101.941 291.802 102.853 292.255C103.766 292.708 104.734 292.934 105.76 292.934C106.651 292.934 107.521 292.764 108.369 292.425C109.218 292.078 109.862 291.71 110.3 291.321V288.425H105.728ZM115.339 294.525V278.974H117.45L125.618 291.184V278.974H127.591V294.525H125.48L117.312 282.305V294.525H115.339ZM131.06 294.525V278.974H136.417C137.626 278.974 138.549 279.048 139.185 279.197C140.077 279.402 140.837 279.773 141.466 280.31C142.286 281.003 142.898 281.891 143.301 282.973C143.711 284.048 143.917 285.278 143.917 286.665C143.917 287.846 143.779 288.892 143.503 289.804C143.227 290.717 142.873 291.473 142.442 292.075C142.011 292.669 141.537 293.139 141.021 293.485C140.511 293.825 139.893 294.083 139.164 294.26C138.443 294.437 137.612 294.525 136.671 294.525H131.06ZM133.118 292.69H136.438C137.463 292.69 138.266 292.594 138.846 292.403C139.433 292.212 139.9 291.944 140.246 291.597C140.734 291.109 141.113 290.455 141.381 289.635C141.657 288.807 141.795 287.807 141.795 286.633C141.795 285.006 141.526 283.758 140.989 282.888C140.458 282.011 139.811 281.424 139.048 281.127C138.496 280.915 137.608 280.809 136.385 280.809H133.118V292.69Z" fill="black"/>
<path d="M102.896 314.275L96.8705 298.724H99.0982L103.14 310.021C103.465 310.926 103.737 311.775 103.957 312.567C104.197 311.718 104.476 310.87 104.795 310.021L108.995 298.724H111.096L105.007 314.275H102.896ZM112.305 300.92V298.724H114.214V300.92H112.305ZM112.305 314.275V303.009H114.214V314.275H112.305ZM117.132 314.275V303.009H118.85V304.611C119.678 303.374 120.873 302.755 122.436 302.755C123.114 302.755 123.737 302.879 124.303 303.126C124.875 303.367 125.303 303.685 125.586 304.081C125.869 304.477 126.067 304.947 126.18 305.492C126.251 305.845 126.286 306.464 126.286 307.348V314.275H124.377V307.422C124.377 306.644 124.303 306.064 124.154 305.683C124.006 305.294 123.74 304.986 123.358 304.76C122.984 304.526 122.542 304.41 122.032 304.41C121.219 304.41 120.516 304.668 119.921 305.184C119.335 305.7 119.041 306.68 119.041 308.122V314.275H117.132Z" fill="black"/>
<path d="M96.7432 353.775L102.715 338.224H104.933L111.297 353.775H108.953L107.139 349.065H100.636L98.9284 353.775H96.7432ZM101.23 347.389H106.502L104.879 343.082C104.384 341.774 104.017 340.699 103.776 339.857C103.578 340.855 103.299 341.845 102.938 342.828L101.23 347.389ZM112.167 346.105C112.167 344.267 112.355 342.789 112.729 341.671C113.111 340.547 113.673 339.681 114.416 339.072C115.166 338.464 116.106 338.16 117.238 338.16C118.072 338.16 118.804 338.33 119.434 338.669C120.063 339.002 120.583 339.486 120.993 340.123C121.403 340.752 121.725 341.523 121.958 342.435C122.192 343.34 122.308 344.564 122.308 346.105C122.308 347.93 122.121 349.405 121.746 350.529C121.371 351.646 120.809 352.513 120.059 353.128C119.317 353.736 118.376 354.04 117.238 354.04C115.738 354.04 114.561 353.503 113.705 352.428C112.68 351.134 112.167 349.026 112.167 346.105ZM114.13 346.105C114.13 348.658 114.427 350.359 115.021 351.208C115.622 352.049 116.361 352.47 117.238 352.47C118.115 352.47 118.85 352.046 119.444 351.197C120.045 350.349 120.346 348.651 120.346 346.105C120.346 343.545 120.045 341.845 119.444 341.003C118.85 340.162 118.108 339.741 117.216 339.741C116.34 339.741 115.639 340.112 115.116 340.855C114.458 341.802 114.13 343.553 114.13 346.105Z" fill="black"/>
<path d="M96.7432 373.525L102.715 357.974H104.933L111.297 373.525H108.953L107.139 368.815H100.636L98.9284 373.525H96.7432ZM101.23 367.139H106.502L104.879 362.832C104.384 361.524 104.017 360.449 103.776 359.607C103.578 360.605 103.299 361.595 102.938 362.578L101.23 367.139ZM119.359 373.525H117.45V361.358C116.99 361.796 116.386 362.235 115.636 362.673C114.893 363.112 114.225 363.44 113.631 363.66V361.814C114.699 361.312 115.632 360.704 116.431 359.989C117.231 359.275 117.796 358.582 118.129 357.91H119.359V373.525Z" fill="black"/>
<path d="M96.7432 393.275L102.715 377.724H104.933L111.297 393.275H108.953L107.139 388.565H100.636L98.9284 393.275H96.7432ZM101.23 386.889H106.502L104.879 382.582C104.384 381.274 104.017 380.199 103.776 379.357C103.578 380.355 103.299 381.345 102.938 382.328L101.23 386.889ZM122.202 391.44V393.275H111.923C111.909 392.815 111.983 392.373 112.146 391.949C112.408 391.249 112.825 390.559 113.398 389.88C113.978 389.202 114.812 388.417 115.901 387.526C117.591 386.139 118.733 385.043 119.327 384.237C119.921 383.424 120.219 382.656 120.219 381.935C120.219 381.178 119.946 380.542 119.402 380.026C118.864 379.502 118.161 379.241 117.291 379.241C116.371 379.241 115.636 379.517 115.084 380.068C114.533 380.62 114.253 381.384 114.246 382.359L112.284 382.158C112.418 380.694 112.924 379.58 113.801 378.816C114.678 378.046 115.855 377.66 117.333 377.66C118.825 377.66 120.006 378.074 120.876 378.901C121.746 379.729 122.181 380.754 122.181 381.978C122.181 382.6 122.054 383.212 121.799 383.813C121.544 384.414 121.12 385.047 120.526 385.712C119.939 386.376 118.96 387.289 117.588 388.448C116.442 389.41 115.707 390.064 115.381 390.411C115.056 390.75 114.787 391.093 114.575 391.44H122.202Z" fill="black"/>
<path d="M96.7432 413.025L102.715 397.474H104.933L111.297 413.025H108.953L107.139 408.315H100.636L98.9284 413.025H96.7432ZM101.23 406.639H106.502L104.879 402.332C104.384 401.024 104.017 399.949 103.776 399.107C103.578 400.105 103.299 401.095 102.938 402.078L101.23 406.639ZM112.178 408.92L114.087 408.665C114.306 409.747 114.678 410.529 115.201 411.009C115.731 411.483 116.375 411.72 117.132 411.72C118.03 411.72 118.786 411.409 119.402 410.787C120.024 410.164 120.335 409.394 120.335 408.474C120.335 407.597 120.049 406.876 119.476 406.31C118.903 405.737 118.175 405.451 117.291 405.451C116.93 405.451 116.481 405.522 115.944 405.663L116.156 403.987C116.283 404.001 116.386 404.008 116.463 404.008C117.277 404.008 118.009 403.796 118.659 403.372C119.31 402.947 119.635 402.293 119.635 401.409C119.635 400.709 119.398 400.129 118.924 399.67C118.451 399.21 117.839 398.98 117.089 398.98C116.347 398.98 115.728 399.213 115.233 399.68C114.738 400.147 114.42 400.847 114.278 401.781L112.369 401.441C112.602 400.161 113.132 399.171 113.96 398.471C114.787 397.764 115.816 397.41 117.047 397.41C117.895 397.41 118.677 397.594 119.391 397.962C120.105 398.322 120.65 398.817 121.025 399.447C121.407 400.076 121.598 400.745 121.598 401.452C121.598 402.124 121.417 402.735 121.057 403.287C120.696 403.839 120.162 404.277 119.455 404.602C120.374 404.814 121.088 405.256 121.598 405.928C122.107 406.593 122.361 407.428 122.361 408.432C122.361 409.79 121.866 410.942 120.876 411.89C119.886 412.831 118.634 413.301 117.121 413.301C115.756 413.301 114.621 412.894 113.716 412.081C112.818 411.268 112.305 410.214 112.178 408.92Z" fill="black"/>
<path d="M96.7432 432.775L102.715 417.224H104.933L111.297 432.775H108.953L107.139 428.065H100.636L98.9284 432.775H96.7432ZM101.23 426.389H106.502L104.879 422.082C104.384 420.774 104.017 419.699 103.776 418.857C103.578 419.855 103.299 420.845 102.938 421.828L101.23 426.389ZM118.288 432.775V429.052H111.541V427.301L118.638 417.224H120.197V427.301H122.298V429.052H120.197V432.775H118.288ZM118.288 427.301V420.289L113.419 427.301H118.288Z" fill="black"/>
<path d="M96.7432 452.525L102.715 436.974H104.933L111.297 452.525H108.953L107.139 447.815H100.636L98.9284 452.525H96.7432ZM101.23 446.139H106.502L104.879 441.832C104.384 440.524 104.017 439.449 103.776 438.607C103.578 439.605 103.299 440.595 102.938 441.578L101.23 446.139ZM112.167 448.452L114.172 448.282C114.321 449.258 114.663 449.993 115.201 450.488C115.746 450.976 116.4 451.22 117.163 451.22C118.083 451.22 118.861 450.874 119.497 450.181C120.134 449.488 120.452 448.568 120.452 447.423C120.452 446.334 120.144 445.474 119.529 444.845C118.921 444.215 118.122 443.901 117.132 443.901C116.516 443.901 115.961 444.042 115.466 444.325C114.971 444.601 114.582 444.962 114.299 445.407L112.507 445.174L114.013 437.186H121.746V439.011H115.54L114.702 443.19C115.636 442.539 116.615 442.214 117.641 442.214C118.999 442.214 120.144 442.684 121.078 443.625C122.011 444.566 122.478 445.775 122.478 447.253C122.478 448.66 122.068 449.877 121.247 450.902C120.25 452.161 118.889 452.79 117.163 452.79C115.749 452.79 114.593 452.394 113.695 451.602C112.804 450.81 112.294 449.76 112.167 448.452Z" fill="black"/>
<path d="M259.982 136.525L265.954 120.974H268.171L274.536 136.525H272.191L270.377 131.815H263.875L262.167 136.525H259.982ZM264.469 130.139H269.741L268.118 125.832C267.623 124.524 267.255 123.449 267.015 122.607C266.817 123.605 266.537 124.595 266.177 125.578L264.469 130.139ZM276.212 136.525V120.974H283.107C284.493 120.974 285.547 121.115 286.268 121.398C286.989 121.674 287.566 122.165 287.997 122.873C288.428 123.58 288.644 124.361 288.644 125.217C288.644 126.32 288.287 127.25 287.573 128.007C286.858 128.764 285.755 129.244 284.263 129.45C284.808 129.711 285.221 129.969 285.504 130.224C286.105 130.776 286.675 131.465 287.212 132.292L289.917 136.525H287.329L285.271 133.29C284.67 132.356 284.175 131.642 283.786 131.147C283.397 130.652 283.047 130.305 282.735 130.107C282.431 129.909 282.12 129.771 281.802 129.694C281.569 129.644 281.187 129.619 280.656 129.619H278.27V136.525H276.212ZM278.27 127.837H282.693C283.634 127.837 284.369 127.742 284.9 127.551C285.43 127.353 285.833 127.042 286.109 126.617C286.385 126.186 286.523 125.719 286.523 125.217C286.523 124.481 286.254 123.877 285.716 123.403C285.186 122.929 284.344 122.692 283.192 122.692H278.27V127.837ZM291.922 136.525V120.974H303.166V122.809H293.98V127.572H302.583V129.396H293.98V134.69H303.527V136.525H291.922ZM306.476 136.525V120.974H316.967V122.809H308.534V127.625H315.832V129.46H308.534V136.525H306.476Z" fill="black"/>
<path d="M278.62 150.175V148.351L285.207 148.34V154.111C284.196 154.917 283.153 155.525 282.078 155.936C281.003 156.339 279.9 156.54 278.768 156.54C277.241 156.54 275.851 156.215 274.599 155.564C273.355 154.907 272.414 153.959 271.778 152.721C271.141 151.484 270.823 150.101 270.823 148.574C270.823 147.06 271.138 145.649 271.767 144.341C272.403 143.026 273.316 142.05 274.504 141.413C275.692 140.777 277.06 140.459 278.609 140.459C279.733 140.459 280.748 140.642 281.653 141.01C282.566 141.371 283.28 141.877 283.796 142.527C284.313 143.178 284.705 144.026 284.974 145.073L283.117 145.582C282.884 144.79 282.594 144.168 282.248 143.715C281.901 143.263 281.406 142.902 280.762 142.633C280.119 142.357 279.405 142.22 278.62 142.22C277.679 142.22 276.866 142.364 276.18 142.654C275.494 142.937 274.939 143.312 274.514 143.779C274.097 144.246 273.772 144.758 273.538 145.317C273.142 146.279 272.944 147.322 272.944 148.446C272.944 149.832 273.181 150.992 273.655 151.926C274.136 152.859 274.833 153.552 275.745 154.005C276.657 154.458 277.626 154.684 278.651 154.684C279.543 154.684 280.412 154.514 281.261 154.175C282.11 153.828 282.753 153.46 283.192 153.071V150.175H278.62ZM288.23 156.275V140.724H290.341L298.509 152.934V140.724H300.483V156.275H298.372L290.203 144.055V156.275H288.23ZM303.951 156.275V140.724H309.308C310.518 140.724 311.441 140.798 312.077 140.947C312.968 141.152 313.728 141.523 314.358 142.06C315.178 142.753 315.79 143.641 316.193 144.723C316.603 145.798 316.808 147.028 316.808 148.415C316.808 149.596 316.67 150.642 316.394 151.554C316.119 152.467 315.765 153.223 315.334 153.825C314.902 154.419 314.428 154.889 313.912 155.235C313.403 155.575 312.784 155.833 312.056 156.01C311.334 156.187 310.503 156.275 309.563 156.275H303.951ZM306.009 154.44H309.33C310.355 154.44 311.158 154.344 311.738 154.153C312.324 153.962 312.791 153.694 313.138 153.347C313.626 152.859 314.004 152.205 314.273 151.385C314.549 150.557 314.687 149.557 314.687 148.383C314.687 146.756 314.418 145.508 313.88 144.638C313.35 143.761 312.703 143.174 311.939 142.877C311.387 142.665 310.5 142.559 309.276 142.559H306.009V154.44Z" fill="black"/>
<path d="M279.765 176.025V160.474H285.122C286.332 160.474 287.254 160.548 287.891 160.697C288.782 160.902 289.542 161.273 290.172 161.81C290.992 162.503 291.604 163.391 292.007 164.473C292.417 165.548 292.622 166.778 292.622 168.165C292.622 169.346 292.484 170.392 292.208 171.304C291.933 172.217 291.579 172.973 291.148 173.575C290.716 174.169 290.242 174.639 289.726 174.985C289.217 175.325 288.598 175.583 287.87 175.76C287.148 175.937 286.317 176.025 285.377 176.025H279.765ZM281.823 174.19H285.144C286.169 174.19 286.972 174.094 287.552 173.903C288.138 173.712 288.605 173.444 288.952 173.097C289.44 172.609 289.818 171.955 290.087 171.135C290.363 170.307 290.501 169.307 290.501 168.133C290.501 166.506 290.232 165.258 289.694 164.388C289.164 163.511 288.517 162.924 287.753 162.627C287.201 162.415 286.314 162.309 285.09 162.309H281.823V174.19ZM301.883 176.025H299.973V163.858C299.514 164.296 298.909 164.735 298.159 165.173C297.417 165.612 296.749 165.94 296.155 166.16V164.314C297.222 163.812 298.156 163.204 298.955 162.489C299.754 161.775 300.32 161.082 300.652 160.41H301.883V176.025ZM306.794 171.92L308.704 171.665C308.923 172.747 309.294 173.529 309.818 174.009C310.348 174.483 310.991 174.72 311.748 174.72C312.646 174.72 313.403 174.409 314.018 173.787C314.641 173.164 314.952 172.394 314.952 171.474C314.952 170.597 314.665 169.876 314.093 169.31C313.52 168.737 312.791 168.451 311.907 168.451C311.547 168.451 311.098 168.522 310.56 168.663L310.772 166.987C310.9 167.001 311.002 167.008 311.08 167.008C311.893 167.008 312.625 166.796 313.276 166.372C313.926 165.947 314.252 165.293 314.252 164.409C314.252 163.709 314.015 163.129 313.541 162.67C313.067 162.21 312.455 161.98 311.706 161.98C310.963 161.98 310.344 162.213 309.849 162.68C309.354 163.147 309.036 163.847 308.895 164.781L306.985 164.441C307.219 163.161 307.749 162.171 308.576 161.471C309.404 160.764 310.433 160.41 311.663 160.41C312.512 160.41 313.293 160.594 314.008 160.962C314.722 161.322 315.266 161.817 315.641 162.447C316.023 163.076 316.214 163.745 316.214 164.452C316.214 165.124 316.034 165.735 315.673 166.287C315.312 166.839 314.778 167.277 314.071 167.602C314.991 167.814 315.705 168.256 316.214 168.928C316.723 169.593 316.978 170.428 316.978 171.432C316.978 172.79 316.483 173.942 315.493 174.89C314.503 175.831 313.251 176.301 311.738 176.301C310.373 176.301 309.238 175.894 308.332 175.081C307.434 174.268 306.922 173.214 306.794 171.92Z" fill="black"/>
<path d="M279.765 195.775V180.224H285.122C286.332 180.224 287.254 180.298 287.891 180.447C288.782 180.652 289.542 181.023 290.172 181.56C290.992 182.253 291.604 183.141 292.007 184.223C292.417 185.298 292.622 186.528 292.622 187.915C292.622 189.096 292.484 190.142 292.208 191.054C291.933 191.967 291.579 192.723 291.148 193.325C290.716 193.919 290.242 194.389 289.726 194.735C289.217 195.075 288.598 195.333 287.87 195.51C287.148 195.687 286.317 195.775 285.377 195.775H279.765ZM281.823 193.94H285.144C286.169 193.94 286.972 193.844 287.552 193.653C288.138 193.462 288.605 193.194 288.952 192.847C289.44 192.359 289.818 191.705 290.087 190.885C290.363 190.057 290.501 189.057 290.501 187.883C290.501 186.256 290.232 185.008 289.694 184.138C289.164 183.261 288.517 182.674 287.753 182.377C287.201 182.165 286.314 182.059 285.09 182.059H281.823V193.94ZM301.883 195.775H299.973V183.608C299.514 184.046 298.909 184.485 298.159 184.923C297.417 185.362 296.749 185.69 296.155 185.91V184.064C297.222 183.562 298.156 182.954 298.955 182.239C299.754 181.525 300.32 180.832 300.652 180.16H301.883V195.775ZM316.819 193.94V195.775H306.54C306.526 195.315 306.6 194.873 306.762 194.449C307.024 193.749 307.441 193.059 308.014 192.38C308.594 191.702 309.429 190.917 310.518 190.026C312.208 188.639 313.35 187.543 313.944 186.737C314.538 185.924 314.835 185.156 314.835 184.435C314.835 183.678 314.563 183.042 314.018 182.526C313.481 182.002 312.777 181.741 311.907 181.741C310.988 181.741 310.252 182.017 309.701 182.568C309.149 183.12 308.87 183.884 308.863 184.859L306.9 184.658C307.035 183.194 307.54 182.08 308.417 181.316C309.294 180.546 310.472 180.16 311.95 180.16C313.442 180.16 314.623 180.574 315.493 181.401C316.363 182.229 316.798 183.254 316.798 184.478C316.798 185.1 316.67 185.712 316.416 186.313C316.161 186.914 315.737 187.547 315.143 188.212C314.556 188.876 313.576 189.789 312.204 190.948C311.059 191.91 310.323 192.564 309.998 192.911C309.673 193.25 309.404 193.593 309.192 193.94H316.819Z" fill="black"/>
<path d="M222.228 215.525V199.974H228.094C229.127 199.974 229.915 200.023 230.46 200.122C231.223 200.25 231.863 200.494 232.38 200.854C232.896 201.208 233.31 201.706 233.621 202.35C233.939 202.994 234.098 203.701 234.098 204.472C234.098 205.794 233.677 206.915 232.836 207.834C231.994 208.747 230.474 209.203 228.274 209.203H224.286V215.525H222.228ZM224.286 207.368H228.306C229.636 207.368 230.58 207.12 231.139 206.625C231.697 206.13 231.977 205.433 231.977 204.535C231.977 203.885 231.81 203.329 231.478 202.87C231.153 202.403 230.721 202.095 230.184 201.947C229.837 201.855 229.197 201.809 228.264 201.809H224.286V207.368ZM239.434 215.525L235.308 199.974H237.419L239.784 210.168C240.039 211.236 240.258 212.297 240.442 213.35C240.838 211.688 241.071 210.73 241.142 210.476L244.101 199.974H246.584L248.811 207.845C249.37 209.797 249.773 211.632 250.021 213.35C250.219 212.367 250.477 211.239 250.795 209.966L253.235 199.974H255.303L251.039 215.525H249.055L245.778 203.676C245.502 202.686 245.339 202.078 245.29 201.851C245.127 202.566 244.975 203.174 244.833 203.676L241.534 215.525H239.434ZM257.17 215.525V199.974H260.268L263.949 210.985C264.288 212.01 264.536 212.778 264.691 213.287C264.868 212.721 265.144 211.89 265.519 210.794L269.242 199.974H272.011V215.525H270.027V202.509L265.508 215.525H263.652L259.154 202.286V215.525H257.17ZM281.378 215.525V199.974H286.735C287.944 199.974 288.867 200.048 289.503 200.197C290.394 200.402 291.155 200.773 291.784 201.31C292.604 202.003 293.216 202.891 293.619 203.973C294.029 205.048 294.234 206.278 294.234 207.665C294.234 208.846 294.097 209.892 293.821 210.804C293.545 211.717 293.191 212.473 292.76 213.075C292.329 213.669 291.855 214.139 291.339 214.485C290.829 214.825 290.211 215.083 289.482 215.26C288.761 215.437 287.93 215.525 286.989 215.525H281.378ZM283.436 213.69H286.756C287.781 213.69 288.584 213.594 289.164 213.403C289.751 213.212 290.218 212.944 290.564 212.597C291.052 212.109 291.43 211.455 291.699 210.635C291.975 209.807 292.113 208.807 292.113 207.633C292.113 206.006 291.844 204.758 291.307 203.888C290.776 203.011 290.129 202.424 289.365 202.127C288.814 201.915 287.926 201.809 286.703 201.809H283.436V213.69ZM303.495 215.525H301.586V203.358C301.126 203.796 300.521 204.235 299.772 204.673C299.029 205.112 298.361 205.44 297.767 205.66V203.814C298.835 203.312 299.768 202.704 300.567 201.989C301.367 201.275 301.932 200.582 302.265 199.91H303.495V215.525ZM313.976 215.525H312.066V203.358C311.607 203.796 311.002 204.235 310.252 204.673C309.51 205.112 308.842 205.44 308.248 205.66V203.814C309.315 203.312 310.249 202.704 311.048 201.989C311.847 201.275 312.413 200.582 312.745 199.91H313.976V215.525Z" fill="black"/>
<path d="M220.616 235.275V219.724H226.482C227.514 219.724 228.303 219.773 228.847 219.872C229.611 220 230.251 220.244 230.767 220.604C231.284 220.958 231.697 221.456 232.008 222.1C232.327 222.744 232.486 223.451 232.486 224.222C232.486 225.544 232.065 226.665 231.224 227.584C230.382 228.497 228.861 228.953 226.662 228.953H222.674V235.275H220.616ZM222.674 227.118H226.694C228.023 227.118 228.968 226.87 229.526 226.375C230.085 225.88 230.364 225.183 230.364 224.285C230.364 223.635 230.198 223.079 229.866 222.62C229.54 222.153 229.109 221.845 228.572 221.697C228.225 221.605 227.585 221.559 226.651 221.559H222.674V227.118ZM237.822 235.275L233.695 219.724H235.806L238.172 229.918C238.426 230.986 238.646 232.047 238.829 233.1C239.225 231.438 239.459 230.48 239.529 230.226L242.489 219.724H244.971L247.199 227.595C247.758 229.547 248.161 231.382 248.408 233.1C248.606 232.117 248.864 230.989 249.183 229.716L251.623 219.724H253.691L249.427 235.275H247.443L244.165 223.426C243.889 222.436 243.727 221.828 243.677 221.601C243.515 222.316 243.362 222.924 243.221 223.426L239.922 235.275H237.822ZM255.558 235.275V219.724H258.656L262.337 230.735C262.676 231.76 262.923 232.528 263.079 233.037C263.256 232.471 263.532 231.64 263.906 230.544L267.63 219.724H270.399V235.275H268.415V222.259L263.896 235.275H262.039L257.542 222.036V235.275H255.558ZM279.765 235.275V219.724H285.122C286.332 219.724 287.254 219.798 287.891 219.947C288.782 220.152 289.542 220.523 290.172 221.06C290.992 221.753 291.604 222.641 292.007 223.723C292.417 224.798 292.622 226.028 292.622 227.415C292.622 228.596 292.484 229.642 292.208 230.554C291.933 231.467 291.579 232.223 291.148 232.825C290.716 233.419 290.242 233.889 289.726 234.235C289.217 234.575 288.598 234.833 287.87 235.01C287.148 235.187 286.317 235.275 285.377 235.275H279.765ZM281.823 233.44H285.144C286.169 233.44 286.972 233.344 287.552 233.153C288.138 232.962 288.605 232.694 288.952 232.347C289.44 231.859 289.818 231.205 290.087 230.385C290.363 229.557 290.501 228.557 290.501 227.383C290.501 225.756 290.232 224.508 289.694 223.638C289.164 222.761 288.517 222.174 287.753 221.877C287.201 221.665 286.314 221.559 285.09 221.559H281.823V233.44ZM301.883 235.275H299.973V223.108C299.514 223.546 298.909 223.985 298.159 224.423C297.417 224.862 296.749 225.19 296.155 225.41V223.564C297.222 223.062 298.156 222.454 298.955 221.739C299.754 221.025 300.32 220.332 300.652 219.66H301.883V235.275ZM306.784 227.605C306.784 225.767 306.971 224.289 307.346 223.171C307.728 222.047 308.29 221.181 309.033 220.572C309.782 219.964 310.723 219.66 311.854 219.66C312.689 219.66 313.421 219.83 314.05 220.169C314.679 220.502 315.199 220.986 315.609 221.623C316.02 222.252 316.341 223.023 316.575 223.935C316.808 224.84 316.925 226.064 316.925 227.605C316.925 229.43 316.737 230.905 316.363 232.029C315.988 233.146 315.426 234.013 314.676 234.628C313.933 235.236 312.993 235.54 311.854 235.54C310.355 235.54 309.178 235.003 308.322 233.928C307.296 232.634 306.784 230.526 306.784 227.605ZM308.746 227.605C308.746 230.158 309.043 231.859 309.637 232.708C310.238 233.549 310.977 233.97 311.854 233.97C312.731 233.97 313.467 233.546 314.061 232.697C314.662 231.849 314.962 230.151 314.962 227.605C314.962 225.045 314.662 223.345 314.061 222.503C313.467 221.662 312.724 221.241 311.833 221.241C310.956 221.241 310.256 221.612 309.733 222.355C309.075 223.302 308.746 225.053 308.746 227.605Z" fill="black"/>
<path d="M220.616 255.025V239.474H226.482C227.514 239.474 228.303 239.523 228.847 239.622C229.611 239.75 230.251 239.994 230.767 240.354C231.284 240.708 231.697 241.206 232.008 241.85C232.327 242.494 232.486 243.201 232.486 243.972C232.486 245.294 232.065 246.415 231.224 247.334C230.382 248.247 228.861 248.703 226.662 248.703H222.674V255.025H220.616ZM222.674 246.868H226.694C228.023 246.868 228.968 246.62 229.526 246.125C230.085 245.63 230.364 244.933 230.364 244.035C230.364 243.385 230.198 242.829 229.866 242.37C229.54 241.903 229.109 241.595 228.572 241.447C228.225 241.355 227.585 241.309 226.651 241.309H222.674V246.868ZM237.822 255.025L233.695 239.474H235.806L238.172 249.668C238.426 250.736 238.646 251.797 238.829 252.85C239.225 251.188 239.459 250.23 239.529 249.976L242.489 239.474H244.971L247.199 247.345C247.758 249.297 248.161 251.132 248.408 252.85C248.606 251.867 248.864 250.739 249.183 249.466L251.623 239.474H253.691L249.427 255.025H247.443L244.165 243.176C243.889 242.186 243.727 241.578 243.677 241.351C243.515 242.066 243.362 242.674 243.221 243.176L239.922 255.025H237.822ZM255.558 255.025V239.474H258.656L262.337 250.485C262.676 251.51 262.923 252.278 263.079 252.787C263.256 252.221 263.532 251.39 263.906 250.294L267.63 239.474H270.399V255.025H268.415V242.009L263.896 255.025H262.039L257.542 241.786V255.025H255.558ZM291.858 255.025V239.474H297.215C298.425 239.474 299.348 239.548 299.984 239.697C300.875 239.902 301.635 240.273 302.265 240.81C303.085 241.503 303.697 242.391 304.1 243.473C304.51 244.548 304.715 245.778 304.715 247.165C304.715 248.346 304.577 249.392 304.301 250.304C304.026 251.217 303.672 251.973 303.241 252.575C302.809 253.169 302.335 253.639 301.819 253.985C301.31 254.325 300.691 254.583 299.963 254.76C299.241 254.937 298.41 255.025 297.47 255.025H291.858ZM293.916 253.19H297.237C298.262 253.19 299.065 253.094 299.645 252.903C300.232 252.712 300.698 252.444 301.045 252.097C301.533 251.609 301.911 250.955 302.18 250.135C302.456 249.307 302.594 248.307 302.594 247.133C302.594 245.506 302.325 244.258 301.787 243.388C301.257 242.511 300.61 241.924 299.846 241.627C299.294 241.415 298.407 241.309 297.183 241.309H293.916V253.19ZM307.07 251.429L308.905 251.259C309.061 252.122 309.358 252.748 309.796 253.137C310.235 253.526 310.797 253.72 311.483 253.72C312.07 253.72 312.583 253.586 313.021 253.317C313.467 253.048 313.831 252.691 314.114 252.246C314.397 251.793 314.634 251.185 314.824 250.421C315.015 249.657 315.111 248.879 315.111 248.087C315.111 248.003 315.107 247.875 315.1 247.706C314.718 248.314 314.195 248.809 313.53 249.191C312.873 249.565 312.158 249.753 311.387 249.753C310.1 249.753 309.011 249.286 308.12 248.353C307.229 247.419 306.784 246.189 306.784 244.661C306.784 243.084 307.247 241.815 308.173 240.853C309.107 239.891 310.274 239.41 311.674 239.41C312.685 239.41 313.608 239.682 314.443 240.227C315.284 240.771 315.921 241.549 316.352 242.561C316.79 243.565 317.01 245.022 317.01 246.931C317.01 248.918 316.794 250.502 316.363 251.684C315.931 252.857 315.288 253.752 314.432 254.367C313.583 254.983 312.586 255.29 311.441 255.29C310.224 255.29 309.231 254.954 308.46 254.282C307.689 253.604 307.226 252.652 307.07 251.429ZM314.888 244.566C314.888 243.469 314.595 242.6 314.008 241.956C313.428 241.313 312.728 240.991 311.907 240.991C311.059 240.991 310.32 241.337 309.69 242.03C309.061 242.723 308.746 243.621 308.746 244.725C308.746 245.715 309.043 246.521 309.637 247.143C310.238 247.759 310.977 248.066 311.854 248.066C312.738 248.066 313.463 247.759 314.029 247.143C314.602 246.521 314.888 245.662 314.888 244.566Z" fill="black"/>
<path d="M291.858 274.775V259.224H297.215C298.425 259.224 299.347 259.298 299.984 259.447C300.875 259.652 301.635 260.023 302.265 260.56C303.085 261.253 303.697 262.141 304.1 263.223C304.51 264.298 304.715 265.528 304.715 266.915C304.715 268.096 304.577 269.142 304.301 270.054C304.026 270.967 303.672 271.723 303.241 272.325C302.809 272.919 302.335 273.389 301.819 273.735C301.31 274.075 300.691 274.333 299.963 274.51C299.241 274.687 298.41 274.775 297.47 274.775H291.858ZM293.916 272.94H297.237C298.262 272.94 299.065 272.844 299.645 272.653C300.231 272.462 300.698 272.194 301.045 271.847C301.533 271.359 301.911 270.705 302.18 269.885C302.456 269.057 302.594 268.057 302.594 266.883C302.594 265.256 302.325 264.008 301.787 263.138C301.257 262.261 300.61 261.674 299.846 261.377C299.294 261.165 298.407 261.059 297.183 261.059H293.916V272.94ZM309.722 266.342C308.93 266.052 308.343 265.638 307.961 265.101C307.579 264.563 307.388 263.92 307.388 263.17C307.388 262.038 307.795 261.087 308.608 260.316C309.421 259.546 310.503 259.16 311.854 259.16C313.212 259.16 314.305 259.556 315.132 260.348C315.959 261.133 316.373 262.091 316.373 263.223C316.373 263.944 316.182 264.574 315.8 265.111C315.426 265.642 314.853 266.052 314.082 266.342C315.037 266.653 315.761 267.155 316.256 267.848C316.759 268.541 317.01 269.368 317.01 270.33C317.01 271.66 316.539 272.777 315.599 273.682C314.658 274.588 313.421 275.04 311.886 275.04C310.351 275.04 309.114 274.588 308.173 273.682C307.233 272.77 306.762 271.635 306.762 270.277C306.762 269.266 307.017 268.421 307.526 267.742C308.042 267.056 308.774 266.589 309.722 266.342ZM309.34 263.106C309.34 263.842 309.577 264.443 310.051 264.91C310.525 265.376 311.14 265.61 311.897 265.61C312.632 265.61 313.233 265.38 313.7 264.92C314.174 264.453 314.411 263.884 314.411 263.212C314.411 262.512 314.167 261.925 313.679 261.451C313.198 260.971 312.597 260.73 311.875 260.73C311.147 260.73 310.542 260.963 310.061 261.43C309.581 261.897 309.34 262.456 309.34 263.106ZM308.725 270.288C308.725 270.832 308.852 271.359 309.107 271.868C309.368 272.378 309.754 272.774 310.263 273.057C310.772 273.332 311.32 273.47 311.907 273.47C312.82 273.47 313.573 273.177 314.167 272.59C314.761 272.003 315.058 271.257 315.058 270.351C315.058 269.432 314.75 268.672 314.135 268.071C313.527 267.47 312.763 267.169 311.844 267.169C310.945 267.169 310.199 267.466 309.605 268.06C309.018 268.654 308.725 269.397 308.725 270.288Z" fill="black"/>
<path d="M291.858 314.275V298.724H297.215C298.425 298.724 299.347 298.798 299.984 298.947C300.875 299.152 301.635 299.523 302.265 300.06C303.085 300.753 303.697 301.641 304.1 302.723C304.51 303.798 304.715 305.028 304.715 306.415C304.715 307.596 304.577 308.642 304.301 309.554C304.026 310.467 303.672 311.223 303.241 311.825C302.809 312.419 302.335 312.889 301.819 313.235C301.31 313.575 300.691 313.833 299.963 314.01C299.241 314.187 298.41 314.275 297.47 314.275H291.858ZM293.916 312.44H297.237C298.262 312.44 299.065 312.344 299.645 312.153C300.231 311.962 300.698 311.694 301.045 311.347C301.533 310.859 301.911 310.205 302.18 309.385C302.456 308.557 302.594 307.557 302.594 306.383C302.594 304.756 302.325 303.508 301.787 302.638C301.257 301.761 300.61 301.174 299.846 300.877C299.294 300.665 298.407 300.559 297.183 300.559H293.916V312.44ZM306.911 300.761V298.925H316.978V300.41C315.988 301.464 315.005 302.864 314.029 304.611C313.06 306.358 312.31 308.154 311.78 310C311.398 311.301 311.154 312.726 311.048 314.275H309.086C309.107 313.052 309.347 311.574 309.807 309.841C310.267 308.108 310.924 306.439 311.78 304.834C312.643 303.222 313.559 301.864 314.527 300.761H306.911Z" fill="black"/>
<path d="M220.616 334.025V318.474H226.482C227.514 318.474 228.303 318.523 228.847 318.622C229.611 318.75 230.251 318.994 230.767 319.354C231.284 319.708 231.697 320.206 232.008 320.85C232.327 321.494 232.486 322.201 232.486 322.972C232.486 324.294 232.065 325.415 231.224 326.334C230.382 327.247 228.861 327.703 226.662 327.703H222.674V334.025H220.616ZM222.674 325.868H226.694C228.023 325.868 228.968 325.62 229.526 325.125C230.085 324.63 230.364 323.933 230.364 323.035C230.364 322.385 230.198 321.829 229.866 321.37C229.54 320.903 229.109 320.595 228.572 320.447C228.225 320.355 227.585 320.309 226.651 320.309H222.674V325.868ZM237.822 334.025L233.695 318.474H235.806L238.172 328.668C238.426 329.736 238.646 330.797 238.829 331.85C239.225 330.188 239.459 329.23 239.529 328.976L242.489 318.474H244.971L247.199 326.345C247.758 328.297 248.161 330.132 248.408 331.85C248.606 330.867 248.864 329.739 249.183 328.466L251.623 318.474H253.691L249.427 334.025H247.443L244.165 322.176C243.889 321.186 243.727 320.578 243.677 320.351C243.515 321.066 243.362 321.674 243.221 322.176L239.922 334.025H237.822ZM255.558 334.025V318.474H258.656L262.337 329.485C262.676 330.51 262.923 331.278 263.079 331.787C263.256 331.221 263.532 330.39 263.906 329.294L267.63 318.474H270.399V334.025H268.415V321.009L263.896 334.025H262.039L257.542 320.786V334.025H255.558ZM291.858 334.025V318.474H297.215C298.425 318.474 299.348 318.548 299.984 318.697C300.875 318.902 301.635 319.273 302.265 319.81C303.085 320.503 303.697 321.391 304.1 322.473C304.51 323.548 304.715 324.778 304.715 326.165C304.715 327.346 304.577 328.392 304.301 329.304C304.026 330.217 303.672 330.973 303.241 331.575C302.809 332.169 302.335 332.639 301.819 332.985C301.31 333.325 300.691 333.583 299.963 333.76C299.241 333.937 298.41 334.025 297.47 334.025H291.858ZM293.916 332.19H297.237C298.262 332.19 299.065 332.094 299.645 331.903C300.232 331.712 300.698 331.444 301.045 331.097C301.533 330.609 301.911 329.955 302.18 329.135C302.456 328.307 302.594 327.307 302.594 326.133C302.594 324.506 302.325 323.258 301.787 322.388C301.257 321.511 300.61 320.924 299.846 320.627C299.294 320.415 298.407 320.309 297.183 320.309H293.916V332.19ZM316.691 322.282L314.793 322.431C314.623 321.681 314.382 321.136 314.071 320.797C313.555 320.252 312.919 319.98 312.162 319.98C311.554 319.98 311.02 320.15 310.56 320.489C309.959 320.928 309.485 321.568 309.139 322.409C308.792 323.251 308.612 324.45 308.598 326.005C309.057 325.305 309.62 324.786 310.284 324.446C310.949 324.107 311.646 323.937 312.374 323.937C313.647 323.937 314.729 324.407 315.62 325.348C316.518 326.281 316.967 327.491 316.967 328.976C316.967 329.952 316.755 330.86 316.331 331.702C315.914 332.536 315.337 333.176 314.602 333.622C313.866 334.067 313.032 334.29 312.098 334.29C310.507 334.29 309.209 333.707 308.205 332.54C307.201 331.366 306.699 329.435 306.699 326.748C306.699 323.742 307.254 321.557 308.364 320.192C309.333 319.004 310.638 318.41 312.279 318.41C313.502 318.41 314.503 318.753 315.281 319.439C316.066 320.125 316.536 321.073 316.691 322.282ZM308.895 328.986C308.895 329.644 309.033 330.273 309.308 330.874C309.591 331.476 309.984 331.935 310.486 332.253C310.988 332.565 311.515 332.72 312.066 332.72C312.873 332.72 313.566 332.395 314.146 331.744C314.725 331.094 315.015 330.21 315.015 329.092C315.015 328.017 314.729 327.172 314.156 326.557C313.583 325.935 312.862 325.624 311.992 325.624C311.129 325.624 310.397 325.935 309.796 326.557C309.195 327.172 308.895 327.982 308.895 328.986Z" fill="black"/>
<path d="M220.616 353.775V338.224H226.482C227.514 338.224 228.303 338.273 228.847 338.372C229.611 338.5 230.251 338.744 230.767 339.104C231.284 339.458 231.697 339.956 232.008 340.6C232.327 341.244 232.486 341.951 232.486 342.722C232.486 344.044 232.065 345.165 231.224 346.084C230.382 346.997 228.861 347.453 226.662 347.453H222.674V353.775H220.616ZM222.674 345.618H226.694C228.023 345.618 228.968 345.37 229.526 344.875C230.085 344.38 230.364 343.683 230.364 342.785C230.364 342.135 230.198 341.579 229.866 341.12C229.54 340.653 229.109 340.345 228.572 340.197C228.225 340.105 227.585 340.059 226.651 340.059H222.674V345.618ZM237.822 353.775L233.695 338.224H235.806L238.172 348.418C238.426 349.486 238.646 350.547 238.829 351.6C239.225 349.938 239.459 348.98 239.529 348.726L242.489 338.224H244.971L247.199 346.095C247.758 348.047 248.161 349.882 248.408 351.6C248.606 350.617 248.864 349.489 249.183 348.216L251.623 338.224H253.691L249.427 353.775H247.443L244.165 341.926C243.889 340.936 243.727 340.328 243.677 340.101C243.515 340.816 243.362 341.424 243.221 341.926L239.922 353.775H237.822ZM255.558 353.775V338.224H258.656L262.337 349.235C262.676 350.26 262.923 351.028 263.079 351.537C263.256 350.971 263.532 350.14 263.906 349.044L267.63 338.224H270.399V353.775H268.415V340.759L263.896 353.775H262.039L257.542 340.536V353.775H255.558ZM291.858 353.775V338.224H297.215C298.425 338.224 299.348 338.298 299.984 338.447C300.875 338.652 301.635 339.023 302.265 339.56C303.085 340.253 303.697 341.141 304.1 342.223C304.51 343.298 304.715 344.528 304.715 345.915C304.715 347.096 304.577 348.142 304.301 349.054C304.026 349.967 303.672 350.723 303.241 351.325C302.809 351.919 302.335 352.389 301.819 352.735C301.31 353.075 300.691 353.333 299.963 353.51C299.241 353.687 298.41 353.775 297.47 353.775H291.858ZM293.916 351.94H297.237C298.262 351.94 299.065 351.844 299.645 351.653C300.232 351.462 300.698 351.194 301.045 350.847C301.533 350.359 301.911 349.705 302.18 348.885C302.456 348.057 302.594 347.057 302.594 345.883C302.594 344.256 302.325 343.008 301.787 342.138C301.257 341.261 300.61 340.674 299.846 340.377C299.294 340.165 298.407 340.059 297.183 340.059H293.916V351.94ZM306.784 349.702L308.789 349.532C308.937 350.508 309.28 351.243 309.818 351.738C310.362 352.226 311.016 352.47 311.78 352.47C312.699 352.47 313.477 352.124 314.114 351.431C314.75 350.738 315.068 349.818 315.068 348.673C315.068 347.584 314.761 346.724 314.146 346.095C313.537 345.465 312.738 345.151 311.748 345.151C311.133 345.151 310.578 345.292 310.083 345.575C309.588 345.851 309.199 346.212 308.916 346.657L307.123 346.424L308.629 338.436H316.363V340.261H310.157L309.319 344.44C310.252 343.789 311.232 343.464 312.257 343.464C313.615 343.464 314.761 343.934 315.694 344.875C316.628 345.816 317.095 347.025 317.095 348.503C317.095 349.91 316.684 351.127 315.864 352.152C314.867 353.411 313.506 354.04 311.78 354.04C310.366 354.04 309.209 353.644 308.311 352.852C307.42 352.06 306.911 351.01 306.784 349.702Z" fill="black"/>
<path d="M291.858 373.525V357.974H297.215C298.425 357.974 299.347 358.048 299.984 358.197C300.875 358.402 301.635 358.773 302.265 359.31C303.085 360.003 303.697 360.891 304.1 361.973C304.51 363.048 304.715 364.278 304.715 365.665C304.715 366.846 304.577 367.892 304.301 368.804C304.026 369.717 303.672 370.473 303.241 371.075C302.809 371.669 302.335 372.139 301.819 372.485C301.31 372.825 300.691 373.083 299.963 373.26C299.241 373.437 298.41 373.525 297.47 373.525H291.858ZM293.916 371.69H297.237C298.262 371.69 299.065 371.594 299.645 371.403C300.231 371.212 300.698 370.944 301.045 370.597C301.533 370.109 301.911 369.455 302.18 368.635C302.456 367.807 302.594 366.807 302.594 365.633C302.594 364.006 302.325 362.758 301.787 361.888C301.257 361.011 300.61 360.424 299.846 360.127C299.294 359.915 298.407 359.809 297.183 359.809H293.916V371.69ZM312.904 373.525V369.802H306.158V368.051L313.254 357.974H314.814V368.051H316.914V369.802H314.814V373.525H312.904ZM312.904 368.051V361.039L308.035 368.051H312.904Z" fill="black"/>
<path d="M220.616 393.275V377.724H226.482C227.514 377.724 228.303 377.773 228.847 377.872C229.611 378 230.251 378.244 230.767 378.604C231.284 378.958 231.697 379.456 232.008 380.1C232.327 380.744 232.486 381.451 232.486 382.222C232.486 383.544 232.065 384.665 231.224 385.584C230.382 386.497 228.861 386.953 226.662 386.953H222.674V393.275H220.616ZM222.674 385.118H226.694C228.023 385.118 228.968 384.87 229.526 384.375C230.085 383.88 230.364 383.183 230.364 382.285C230.364 381.635 230.198 381.079 229.866 380.62C229.54 380.153 229.109 379.845 228.572 379.697C228.225 379.605 227.585 379.559 226.651 379.559H222.674V385.118ZM237.822 393.275L233.695 377.724H235.806L238.172 387.918C238.426 388.986 238.646 390.047 238.829 391.1C239.225 389.438 239.459 388.48 239.529 388.226L242.489 377.724H244.971L247.199 385.595C247.758 387.547 248.161 389.382 248.408 391.1C248.606 390.117 248.864 388.989 249.183 387.716L251.623 377.724H253.691L249.427 393.275H247.443L244.165 381.426C243.889 380.436 243.727 379.828 243.677 379.601C243.515 380.316 243.362 380.924 243.221 381.426L239.922 393.275H237.822ZM255.558 393.275V377.724H258.656L262.337 388.735C262.676 389.76 262.923 390.528 263.079 391.037C263.256 390.471 263.532 389.64 263.906 388.544L267.63 377.724H270.399V393.275H268.415V380.259L263.896 393.275H262.039L257.542 380.036V393.275H255.558ZM291.858 393.275V377.724H297.215C298.425 377.724 299.348 377.798 299.984 377.947C300.875 378.152 301.635 378.523 302.265 379.06C303.085 379.753 303.697 380.641 304.1 381.723C304.51 382.798 304.715 384.028 304.715 385.415C304.715 386.596 304.577 387.642 304.301 388.554C304.026 389.467 303.672 390.223 303.241 390.825C302.809 391.419 302.335 391.889 301.819 392.235C301.31 392.575 300.691 392.833 299.963 393.01C299.241 393.187 298.41 393.275 297.47 393.275H291.858ZM293.916 391.44H297.237C298.262 391.44 299.065 391.344 299.645 391.153C300.232 390.962 300.698 390.694 301.045 390.347C301.533 389.859 301.911 389.205 302.18 388.385C302.456 387.557 302.594 386.557 302.594 385.383C302.594 383.756 302.325 382.508 301.787 381.638C301.257 380.761 300.61 380.174 299.846 379.877C299.294 379.665 298.407 379.559 297.183 379.559H293.916V391.44ZM306.794 389.17L308.704 388.915C308.923 389.997 309.294 390.779 309.818 391.259C310.348 391.733 310.991 391.97 311.748 391.97C312.646 391.97 313.403 391.659 314.018 391.037C314.641 390.414 314.952 389.644 314.952 388.724C314.952 387.847 314.665 387.126 314.093 386.56C313.52 385.987 312.791 385.701 311.907 385.701C311.547 385.701 311.098 385.772 310.56 385.913L310.772 384.237C310.9 384.251 311.002 384.258 311.08 384.258C311.893 384.258 312.625 384.046 313.276 383.622C313.926 383.197 314.252 382.543 314.252 381.659C314.252 380.959 314.015 380.379 313.541 379.92C313.067 379.46 312.455 379.23 311.706 379.23C310.963 379.23 310.344 379.463 309.849 379.93C309.354 380.397 309.036 381.097 308.895 382.031L306.985 381.691C307.219 380.411 307.749 379.421 308.576 378.721C309.404 378.014 310.433 377.66 311.663 377.66C312.512 377.66 313.293 377.844 314.008 378.212C314.722 378.572 315.266 379.067 315.641 379.697C316.023 380.326 316.214 380.995 316.214 381.702C316.214 382.374 316.034 382.985 315.673 383.537C315.312 384.089 314.778 384.527 314.071 384.852C314.991 385.064 315.705 385.506 316.214 386.178C316.723 386.843 316.978 387.678 316.978 388.682C316.978 390.04 316.483 391.192 315.493 392.14C314.503 393.081 313.251 393.551 311.738 393.551C310.373 393.551 309.238 393.144 308.332 392.331C307.434 391.518 306.922 390.464 306.794 389.17Z" fill="black"/>
<path d="M291.858 413.025V397.474H297.215C298.425 397.474 299.347 397.548 299.984 397.697C300.875 397.902 301.635 398.273 302.265 398.81C303.085 399.503 303.697 400.391 304.1 401.473C304.51 402.548 304.715 403.778 304.715 405.165C304.715 406.346 304.577 407.392 304.301 408.304C304.026 409.217 303.672 409.973 303.241 410.575C302.809 411.169 302.335 411.639 301.819 411.985C301.31 412.325 300.691 412.583 299.963 412.76C299.241 412.937 298.41 413.025 297.47 413.025H291.858ZM293.916 411.19H297.237C298.262 411.19 299.065 411.094 299.645 410.903C300.231 410.712 300.698 410.444 301.045 410.097C301.533 409.609 301.911 408.955 302.18 408.135C302.456 407.307 302.594 406.307 302.594 405.133C302.594 403.506 302.325 402.258 301.787 401.388C301.257 400.511 300.61 399.924 299.846 399.627C299.294 399.415 298.407 399.309 297.183 399.309H293.916V411.19ZM316.819 411.19V413.025H306.54C306.526 412.565 306.6 412.123 306.762 411.699C307.024 410.999 307.441 410.309 308.014 409.63C308.594 408.952 309.429 408.167 310.518 407.276C312.208 405.889 313.35 404.793 313.944 403.987C314.538 403.174 314.835 402.406 314.835 401.685C314.835 400.928 314.563 400.292 314.018 399.776C313.481 399.252 312.777 398.991 311.907 398.991C310.988 398.991 310.252 399.267 309.701 399.818C309.149 400.37 308.87 401.134 308.863 402.109L306.9 401.908C307.035 400.444 307.54 399.33 308.417 398.566C309.294 397.796 310.472 397.41 311.95 397.41C313.442 397.41 314.623 397.824 315.493 398.651C316.363 399.479 316.797 400.504 316.797 401.728C316.797 402.35 316.67 402.962 316.416 403.563C316.161 404.164 315.737 404.797 315.143 405.462C314.556 406.126 313.576 407.039 312.204 408.198C311.059 409.16 310.323 409.814 309.998 410.161C309.673 410.5 309.404 410.843 309.192 411.19H316.819Z" fill="black"/>
<path d="M249.904 432.775V419.059H244.78V417.224H257.107V419.059H251.962V432.775H249.904ZM257.648 432.775L263.663 424.671L258.359 417.224H260.809L263.631 421.212C264.218 422.04 264.635 422.676 264.882 423.122C265.229 422.556 265.639 421.966 266.113 421.35L269.242 417.224H271.481L266.018 424.554L271.905 432.775H269.359L265.445 427.227C265.225 426.909 264.999 426.562 264.766 426.187C264.419 426.753 264.172 427.142 264.023 427.354L260.12 432.775H257.648ZM291.858 432.775V417.224H297.215C298.425 417.224 299.348 417.298 299.984 417.447C300.875 417.652 301.635 418.023 302.265 418.56C303.085 419.253 303.697 420.141 304.1 421.223C304.51 422.298 304.715 423.528 304.715 424.915C304.715 426.096 304.577 427.142 304.301 428.054C304.026 428.967 303.672 429.723 303.241 430.325C302.809 430.919 302.335 431.389 301.819 431.735C301.31 432.075 300.691 432.333 299.963 432.51C299.241 432.687 298.411 432.775 297.47 432.775H291.858ZM293.916 430.94H297.237C298.262 430.94 299.065 430.844 299.645 430.653C300.232 430.462 300.698 430.194 301.045 429.847C301.533 429.359 301.911 428.705 302.18 427.885C302.456 427.057 302.594 426.057 302.594 424.883C302.594 423.256 302.325 422.008 301.787 421.138C301.257 420.261 300.61 419.674 299.846 419.377C299.295 419.165 298.407 419.059 297.184 419.059H293.916V430.94ZM313.976 432.775H312.066V420.608C311.607 421.046 311.002 421.485 310.252 421.923C309.51 422.362 308.842 422.69 308.248 422.91V421.064C309.315 420.562 310.249 419.954 311.048 419.239C311.847 418.525 312.413 417.832 312.745 417.16H313.976V432.775Z" fill="black"/>
<path d="M243.56 452.525V436.974H250.456C251.842 436.974 252.895 437.115 253.617 437.398C254.338 437.674 254.914 438.165 255.346 438.873C255.777 439.58 255.993 440.361 255.993 441.217C255.993 442.32 255.636 443.25 254.922 444.007C254.207 444.764 253.104 445.244 251.612 445.45C252.156 445.711 252.57 445.969 252.853 446.224C253.454 446.776 254.023 447.465 254.561 448.292L257.266 452.525H254.678L252.62 449.29C252.019 448.356 251.523 447.642 251.135 447.147C250.746 446.652 250.395 446.305 250.084 446.107C249.78 445.909 249.469 445.771 249.151 445.693C248.917 445.644 248.536 445.619 248.005 445.619H245.618V452.525H243.56ZM245.618 443.837H250.042C250.982 443.837 251.718 443.742 252.248 443.551C252.779 443.353 253.182 443.042 253.458 442.617C253.733 442.186 253.871 441.719 253.871 441.217C253.871 440.481 253.603 439.877 253.065 439.403C252.535 438.929 251.693 438.692 250.54 438.692H245.618V443.837ZM257.648 452.525L263.662 444.421L258.359 436.974H260.809L263.631 440.962C264.218 441.79 264.635 442.426 264.882 442.872C265.229 442.306 265.639 441.716 266.113 441.1L269.242 436.974H271.48L266.017 444.304L271.905 452.525H269.359L265.445 446.977C265.225 446.659 264.999 446.312 264.766 445.937C264.419 446.503 264.172 446.892 264.023 447.104L260.119 452.525H257.648ZM291.858 452.525V436.974H297.215C298.425 436.974 299.347 437.048 299.984 437.197C300.875 437.402 301.635 437.773 302.265 438.31C303.085 439.003 303.697 439.891 304.1 440.973C304.51 442.048 304.715 443.278 304.715 444.665C304.715 445.846 304.577 446.892 304.301 447.804C304.026 448.717 303.672 449.473 303.241 450.075C302.809 450.669 302.335 451.139 301.819 451.485C301.31 451.825 300.691 452.083 299.963 452.26C299.241 452.437 298.41 452.525 297.47 452.525H291.858ZM293.916 450.69H297.236C298.262 450.69 299.065 450.594 299.644 450.403C300.231 450.212 300.698 449.944 301.045 449.597C301.533 449.109 301.911 448.455 302.18 447.635C302.456 446.807 302.593 445.807 302.593 444.633C302.593 443.006 302.325 441.758 301.787 440.888C301.257 440.011 300.61 439.424 299.846 439.127C299.294 438.915 298.407 438.809 297.183 438.809H293.916V450.69ZM306.784 444.855C306.784 443.017 306.971 441.539 307.346 440.421C307.728 439.297 308.29 438.431 309.032 437.822C309.782 437.214 310.723 436.91 311.854 436.91C312.689 436.91 313.421 437.08 314.05 437.419C314.679 437.752 315.199 438.236 315.609 438.873C316.02 439.502 316.341 440.273 316.575 441.185C316.808 442.09 316.925 443.314 316.925 444.855C316.925 446.68 316.737 448.155 316.363 449.279C315.988 450.396 315.426 451.263 314.676 451.878C313.933 452.486 312.993 452.79 311.854 452.79C310.355 452.79 309.177 452.253 308.322 451.178C307.296 449.884 306.784 447.776 306.784 444.855ZM308.746 444.855C308.746 447.408 309.043 449.109 309.637 449.958C310.238 450.799 310.977 451.22 311.854 451.22C312.731 451.22 313.467 450.796 314.061 449.947C314.662 449.099 314.962 447.401 314.962 444.855C314.962 442.295 314.662 440.595 314.061 439.753C313.467 438.912 312.724 438.491 311.833 438.491C310.956 438.491 310.256 438.862 309.733 439.605C309.075 440.552 308.746 442.303 308.746 444.855Z" fill="black"/>
<path d="M207.375 118.5C211.325 136.275 237 136.275 237 118.5C237 100.725 211.325 100.725 207.375 118.5Z" stroke="black" stroke-width="3.95" stroke-linecap="square"/>
<path d="M207.375 118.5C203.425 100.725 177.75 100.725 177.75 118.5C177.75 136.275 203.425 136.275 207.375 118.5Z" stroke="black" stroke-width="3.95" stroke-linecap="square"/>
<path d="M219.225 118.5H227.125" stroke="black" stroke-width="3.95" stroke-linecap="square"/>
<path d="M223.175 122.45V114.55" stroke="black" stroke-width="3.95" stroke-linecap="square"/>
<path d="M195.525 118.5H187.625" stroke="black" stroke-width="3.95" stroke-linecap="square"/>
<path d="M711 191.45C713.182 191.45 714.95 189.682 714.95 187.5C714.95 185.318 713.182 183.55 711 183.55C708.819 183.55 707.05 185.318 707.05 187.5C707.05 189.682 708.819 191.45 711 191.45Z" fill="black" stroke="black" stroke-width="3.95"/>
<path d="M533.25 191.45C535.432 191.45 537.2 189.682 537.2 187.5C537.2 185.318 535.432 183.55 533.25 183.55C531.069 183.55 529.3 185.318 529.3 187.5C529.3 189.682 531.069 191.45 533.25 191.45Z" fill="black" stroke="black" stroke-width="3.95"/>
<path d="M513.5 458.2C515.682 458.2 517.45 456.432 517.45 454.25C517.45 452.068 515.682 450.3 513.5 450.3C511.319 450.3 509.55 452.068 509.55 454.25C509.55 456.432 511.319 458.2 513.5 458.2Z" fill="black" stroke="black" stroke-width="3.95"/>
<rect x="413.5" y="75.5" width="141" height="208" rx="29.5" stroke="black" stroke-width="3"/>
</svg>
